<svg width="36" height="24" viewBox="0 0 36 24" fill="none" xmlns="http://www.w3.org/2000/svg">
<rect x="1" y="0.5" width="34" height="23" rx="3.5" fill="white" stroke="#D9D9D9"/>
<path fill-rule="evenodd" clip-rule="evenodd" d="M21.604 16.845C21.801 16.3447 22.2396 15.2236 22.031 14.9519H22.0326C21.8249 14.6796 20.6596 14.8225 20.1354 14.8868L20.1343 14.8869C19.9748 14.9065 19.9503 14.7648 20.0937 14.6622C21.0244 13.9944 22.5493 14.1854 22.7264 14.4109C22.9035 14.6364 22.6781 16.1975 21.8064 16.9429C21.6722 17.0572 21.5442 16.9961 21.604 16.845ZM15.3411 17.6169C17.3682 17.6169 19.7287 16.9632 21.3548 15.7379V15.7403C21.6239 15.5336 21.3932 15.2298 21.1187 15.3488C19.3437 16.1134 17.4384 16.5125 15.5121 16.5232C12.8395 16.5232 10.2543 15.7747 8.16286 14.5322C7.97963 14.4234 7.84316 14.6152 7.9965 14.7554C10.01 16.6105 12.6293 17.6311 15.3411 17.6169Z" fill="#FF9900"/>
<path fill-rule="evenodd" clip-rule="evenodd" d="M28.596 13.9481H29.4593H29.46C29.5503 13.9499 29.6254 13.8774 29.6287 13.7852V11.3417C29.6287 11.0348 29.6448 10.7577 29.7659 10.4805C29.8491 10.2697 30.045 10.1277 30.2673 10.1172C30.8195 10.1172 30.8142 10.7352 30.8101 11.2206C30.8097 11.2616 30.8094 11.3016 30.8094 11.3402V13.8056C30.82 13.8847 30.8846 13.9447 30.9627 13.9481H31.8336C31.9162 13.9499 31.9873 13.889 32 13.8056V10.9487C32 10.5095 32 9.89802 31.7738 9.53474C31.5293 9.14328 31.1505 9 30.7626 9C30.1646 9 29.825 9.29595 29.5827 9.91681H29.5658V9.22235C29.5484 9.14975 29.4857 9.09791 29.4125 9.09552H28.6091C28.5242 9.09338 28.4518 9.15806 28.4427 9.24427V13.7852C28.4438 13.8723 28.5109 13.9436 28.596 13.9481ZM27.7834 11.5665C27.7834 10.1337 27.088 9.0063 25.8023 9.0063C24.5496 9.0063 23.8542 10.1149 23.8542 11.5187C23.8542 12.9225 24.5412 14.0499 25.8023 14.0499C27.0167 14.0499 27.7834 12.9515 27.7834 11.5665ZM25.1315 11.3754C25.1315 10.8211 25.1721 9.93327 25.8108 9.93327C26.0852 9.93327 26.2792 10.0593 26.3765 10.3725C26.49 10.735 26.5061 11.1938 26.5061 11.5758C26.5061 12.1583 26.4808 13.1135 25.8023 13.1135C25.1312 13.1135 25.1314 11.9554 25.1315 11.3938L25.1315 11.3754ZM8.93194 13.9575H9.7975H9.79827C9.84171 13.9585 9.88377 13.9418 9.91514 13.9111C9.94651 13.8804 9.96459 13.8382 9.9654 13.7938V11.3879L9.96538 11.3502C9.96502 10.8271 9.96455 10.1352 10.5634 10.1352C11.117 10.1352 11.1084 10.7431 11.1015 11.234V11.2341V11.2341V11.2341V11.2341C11.1008 11.287 11.1001 11.3386 11.1001 11.3879V13.7946C11.1015 13.8815 11.1684 13.9525 11.2534 13.9575H12.1213C12.1646 13.9583 12.2064 13.9415 12.2376 13.9108C12.2688 13.8801 12.2868 13.8381 12.2876 13.7938V11.3879L12.2875 11.3307C12.287 11.0758 12.2863 10.7318 12.3689 10.5181C12.4531 10.2996 12.6566 10.1533 12.8864 10.1462C13.1371 10.1462 13.331 10.2323 13.3954 10.5376C13.4283 10.6846 13.4241 11.0253 13.4212 11.2512C13.4206 11.3045 13.42 11.3514 13.42 11.3879V13.7946C13.4211 13.8817 13.4882 13.9529 13.5733 13.9575H14.4389C14.4823 13.9585 14.5244 13.9418 14.5557 13.9111C14.5871 13.8804 14.6052 13.8382 14.606 13.7938V10.9291C14.606 10.8593 14.6072 10.7879 14.6084 10.7158L14.6084 10.7157C14.6155 10.288 14.623 9.83265 14.3875 9.50573C14.102 9.13491 13.6429 8.95012 13.1865 9.02232C12.73 9.09452 12.3471 9.41249 12.1849 9.85414C11.9419 9.28025 11.5946 9.01327 11.061 9.01327C10.5274 9.01327 10.131 9.28025 9.92093 9.85414H9.90483V9.26146C9.90027 9.17699 9.83422 9.10954 9.7515 9.10487H8.9442C8.85505 9.10398 8.78152 9.17594 8.77861 9.26694V13.8079C8.78646 13.8896 8.85164 13.9532 8.93194 13.9575ZM7.42545 13.992C7.36844 14.0425 7.2865 14.0509 7.22075 14.0131C6.97545 13.8047 6.90149 13.692 6.78792 13.519C6.76838 13.4893 6.74767 13.4577 6.72472 13.4236C6.24862 13.9184 5.91206 14.0664 5.29643 14.0664C4.56733 14.0664 4 13.6068 4 12.6876C4 11.9697 4.38333 11.4819 4.91999 11.2424C5.31628 11.0648 5.84502 11.0096 6.30214 10.962C6.38713 10.9531 6.46965 10.9445 6.54838 10.9354V10.8211C6.54838 10.7993 6.54856 10.7771 6.54873 10.7546C6.55025 10.5597 6.55193 10.3427 6.44335 10.1791C6.33755 10.0163 6.13669 9.94974 5.95729 9.94974C5.62686 9.94974 5.33246 10.1228 5.26039 10.4806C5.25126 10.564 5.18837 10.6308 5.10706 10.6434L4.27447 10.5502C4.23292 10.5442 4.19563 10.521 4.17129 10.486C4.14695 10.4511 4.13769 10.4076 4.14567 10.3655C4.3381 9.32575 5.25809 9.01179 6.08225 9.01179C6.50392 9.01179 7.05438 9.1261 7.38558 9.4518C7.77438 9.82353 7.77197 10.3102 7.76935 10.842C7.76913 10.8859 7.76891 10.9301 7.76891 10.9746V12.3518C7.76891 12.7227 7.90366 12.9072 8.04561 13.1015L8.04563 13.1015C8.06248 13.1246 8.07944 13.1478 8.09628 13.1715C8.15148 13.2498 8.16374 13.3476 8.09628 13.4064C7.91918 13.5575 7.60485 13.8362 7.43235 13.9936L7.42545 13.992ZM6.55219 11.8358L6.55222 11.8786C6.55252 12.2043 6.55278 12.4804 6.39042 12.7753C6.25243 13.0242 6.03393 13.1777 5.79013 13.1777C5.45816 13.1777 5.2642 12.9193 5.2642 12.5357C5.2642 11.7825 5.92583 11.6455 6.55219 11.6455V11.8358ZM19.3967 13.0982L19.3969 13.0983L19.397 13.0985L19.397 13.0985C19.4138 13.1215 19.4307 13.1447 19.4475 13.1683C19.5058 13.2497 19.518 13.3452 19.4437 13.3992C19.2666 13.5503 18.9522 13.8298 18.7797 13.9864C18.7224 14.0362 18.6407 14.0443 18.575 14.0068C18.3287 13.7975 18.2557 13.6864 18.1405 13.5112L18.1404 13.5111C18.1212 13.4818 18.1008 13.4508 18.0782 13.4172C17.6029 13.912 17.264 14.06 16.6507 14.06C15.9216 14.06 15.3543 13.6004 15.3543 12.6821C15.3543 11.9633 15.7353 11.4756 16.2781 11.236C16.6753 11.0577 17.207 11.0029 17.6654 10.9556L17.6654 10.9556L17.6655 10.9556C17.7487 10.947 17.8294 10.9386 17.9065 10.9299V10.8179C17.9065 10.7962 17.9067 10.7741 17.9068 10.7517C17.9084 10.5567 17.91 10.3396 17.8007 10.1767C17.698 10.0138 17.4933 9.94651 17.3146 9.94651C16.9842 9.94651 16.6913 10.1195 16.6185 10.4773C16.6091 10.5607 16.5464 10.6273 16.4652 10.6402L15.6257 10.5478C15.5838 10.5419 15.5462 10.5187 15.5217 10.4836C15.4972 10.4485 15.4879 10.4046 15.4961 10.3622C15.6893 9.32174 16.6093 9.00856 17.4335 9.00856C17.8544 9.00856 18.4048 9.12287 18.7368 9.44857C19.1264 9.81838 19.1237 10.3013 19.1207 10.8304C19.1204 10.877 19.1201 10.924 19.1201 10.9714V12.3493C19.1201 12.7194 19.2548 12.9039 19.3967 13.0982ZM17.146 13.173C17.389 13.173 17.6083 13.0195 17.7455 12.7713C17.9084 12.4749 17.9083 12.1974 17.9081 11.8677L17.9081 11.8326V11.6416C17.2817 11.6416 16.6201 11.7778 16.6201 12.5318C16.6201 12.9146 16.814 13.173 17.146 13.173ZM20.1804 9.25134V9.89803C20.1799 9.94239 20.1973 9.98501 20.2285 10.0159C20.2596 10.0469 20.3018 10.0634 20.3452 10.0617H21.8356L20.1267 12.567C20.0487 12.7014 20.0119 12.8566 20.0209 13.0125V13.6741C20.0209 13.7696 20.1244 13.8784 20.2233 13.8244C21.1658 13.3253 22.2867 13.3233 23.2309 13.8189C23.339 13.8761 23.441 13.7657 23.441 13.6702V12.9749C23.4381 12.8686 23.3796 12.7721 23.2877 12.722C22.7901 12.4363 22.2113 12.3525 21.6639 12.3658L23.1389 10.2159C23.2762 10.0233 23.3528 9.90116 23.3528 9.808V9.25134C23.3533 9.20712 23.336 9.16463 23.305 9.13373C23.274 9.10283 23.232 9.08621 23.1888 9.0877H20.3422C20.2988 9.08522 20.2565 9.1016 20.2256 9.13279C20.1948 9.16399 20.1784 9.20706 20.1804 9.25134Z" fill="black"/>
</svg>
