<svg width="430" height="276" viewBox="0 0 430 276" fill="none" xmlns="http://www.w3.org/2000/svg">
<path d="M0 0H430V276H0V0Z" fill="#FD6905"/>
<g style="mix-blend-mode:plus-lighter" opacity="0.39">
<path d="M429.993 151.69V142.986L407.717 130.035L429.993 117.085V108.38L400.226 125.683L347.885 95.2529L340.45 99.6334L392.743 130.035L324.52 169.7L222.313 110.73L413.473 0H398.472L214.788 106.399L30.3769 0H15.3549L238.521 128.683L175.382 165.723L0 65.0353V73.683L167.933 170.097L110.39 203.853L0 140.799V149.56L102.831 208.29L0 266.404V266.8C0 269.44 1.15821 271.811 2.99608 273.488L72.1625 235.004L146.44 234.353L146.121 276H153.535L153.868 232.697L214.081 196.224L345.347 270.126L335.256 275.993H350.229L352.955 274.408L355.771 275.993H371.112L360.501 270.02L421.712 234.438L429.993 239.222V230.553L429.189 230.093L429.993 229.626V220.922L421.678 225.755L332.038 174.038L400.233 134.394L430 151.697L429.993 151.69ZM85.2496 227.319L110.515 212.5L136.71 226.866L85.2496 227.319ZM150.574 225.883L118.082 208.056L175.396 174.435L206.556 191.978L150.581 225.883H150.574ZM414.194 230.093L352.893 265.732L182.844 170.061L245.998 133.014L414.201 230.086L414.194 230.093Z" fill="url(#paint0_radial_26_15)" style="mix-blend-mode:screen"/>
</g>
<defs>
<radialGradient id="paint0_radial_26_15" cx="0" cy="0" r="1" gradientUnits="userSpaceOnUse" gradientTransform="translate(285.737 191.072) scale(179.598 183.259)">
<stop offset="0.02" stop-color="#fff"/>
<stop offset="0.58" stop-color="#ccc"/>
<stop offset="1" stop-color="#ffff"/>
</radialGradient>
</defs>
</svg>
