<svg width="31" height="33" viewBox="0 0 31 33" fill="none" xmlns="http://www.w3.org/2000/svg">
<g opacity="0.4">
<path d="M15.5009 9.90137C14.4154 9.90034 12.9166 10.2424 12.2984 10.5294C11.6762 10.8127 11.2627 11.0976 11.1337 11.8071L10.6679 15.7613V21.2073H11.4702V22.0567C11.4696 23.0997 12.8503 23.0997 12.8484 22.0567V21.2073H18.0566V22.0567C18.0575 23.0997 19.4381 23.0997 19.4409 22.0567V21.2073H20.2367V15.7613L19.7709 11.8071C19.645 11.0976 19.2315 10.8127 18.613 10.5294C17.9911 10.2424 16.4927 9.90034 15.4103 9.90137" fill="#042F40"/>
<path d="M18.7496 19.5005C19.1139 19.497 19.4105 19.1698 19.4096 18.7652C19.4105 18.363 19.1139 18.0357 18.7496 18.0371C18.3823 18.0357 18.0856 18.363 18.0831 18.7652C18.0856 19.1698 18.3823 19.497 18.7496 19.5005Z" fill="#EDEEF1"/>
<path d="M12.1629 19.5014C11.7949 19.498 11.4986 19.1707 11.4964 18.7662C11.4986 18.364 11.7949 18.0367 12.1629 18.0381C12.5265 18.0367 12.8231 18.364 12.8228 18.7662C12.8231 19.1707 12.5265 19.498 12.1629 19.5014Z" fill="#EDEEF1"/>
<path d="M15.4046 11.5425H13.4831C13.0979 11.5391 13.0979 10.8976 13.4831 10.9004H17.4231C17.811 10.8976 17.811 11.5391 17.4231 11.5425H15.4046Z" fill="#EDEEF1"/>
<path d="M15.4041 12.1846H12.4409C12.0309 12.1863 11.9237 12.4159 11.8713 12.7628L11.509 15.632C11.4784 15.9043 11.5504 16.1769 11.8972 16.1745H19.0141C19.3575 16.1769 19.4295 15.9043 19.3958 15.632L19.0335 12.7628C18.9842 12.4159 18.877 12.1863 18.4707 12.1846H15.4041Z" fill="#EDEEF1"/>
</g>
</svg>
