<svg width="22" height="21" viewBox="0 0 22 21" fill="none" xmlns="http://www.w3.org/2000/svg">
    <path
        d="M12.7031 10.5C13.3244 10.5 13.8281 9.99632 13.8281 9.375C13.8281 8.75368 13.3244 8.25 12.7031 8.25C12.0818 8.25 11.5781 8.75368 11.5781 9.375C11.5781 9.99632 12.0818 10.5 12.7031 10.5Z"
        fill="#FFFFFF" />
    <path
        d="M16.4531 10.5C17.0744 10.5 17.5781 9.99632 17.5781 9.375C17.5781 8.75368 17.0744 8.25 16.4531 8.25C15.8318 8.25 15.3281 8.75368 15.3281 9.375C15.3281 9.99632 15.8318 10.5 16.4531 10.5Z"
        fill="#FFFFFF" />
    <path
        d="M12.7031 14.25C13.3244 14.25 13.8281 13.7463 13.8281 13.125C13.8281 12.5037 13.3244 12 12.7031 12C12.0818 12 11.5781 12.5037 11.5781 13.125C11.5781 13.7463 12.0818 14.25 12.7031 14.25Z"
        fill="#FFFFFF" />
    <path
        d="M16.4531 14.25C17.0744 14.25 17.5781 13.7463 17.5781 13.125C17.5781 12.5037 17.0744 12 16.4531 12C15.8318 12 15.3281 12.5037 15.3281 13.125C15.3281 13.7463 15.8318 14.25 16.4531 14.25Z"
        fill="#FFFFFF" />
    <path
        d="M5.20312 14.25C5.82445 14.25 6.32812 13.7463 6.32812 13.125C6.32812 12.5037 5.82445 12 5.20312 12C4.5818 12 4.07812 12.5037 4.07812 13.125C4.07812 13.7463 4.5818 14.25 5.20312 14.25Z"
        fill="#FFFFFF" />
    <path
        d="M8.95312 14.25C9.57445 14.25 10.0781 13.7463 10.0781 13.125C10.0781 12.5037 9.57445 12 8.95312 12C8.3318 12 7.82812 12.5037 7.82812 13.125C7.82812 13.7463 8.3318 14.25 8.95312 14.25Z"
        fill="#FFFFFF" />
    <path
        d="M5.20312 18C5.82445 18 6.32812 17.4963 6.32812 16.875C6.32812 16.2537 5.82445 15.75 5.20312 15.75C4.5818 15.75 4.07812 16.2537 4.07812 16.875C4.07812 17.4963 4.5818 18 5.20312 18Z"
        fill="#FFFFFF" />
    <path
        d="M8.95312 18C9.57445 18 10.0781 17.4963 10.0781 16.875C10.0781 16.2537 9.57445 15.75 8.95312 15.75C8.3318 15.75 7.82812 16.2537 7.82812 16.875C7.82812 17.4963 8.3318 18 8.95312 18Z"
        fill="#FFFFFF" />
    <path
        d="M12.7031 18C13.3244 18 13.8281 17.4963 13.8281 16.875C13.8281 16.2537 13.3244 15.75 12.7031 15.75C12.0818 15.75 11.5781 16.2537 11.5781 16.875C11.5781 17.4963 12.0818 18 12.7031 18Z"
        fill="#FFFFFF" />
    <path fill-rule="evenodd" clip-rule="evenodd"
        d="M5.57812 0.75C5.57812 0.335786 5.24234 0 4.82812 0C4.41391 0 4.07812 0.335786 4.07812 0.75V1.5H3.32812C1.67127 1.5 0.328125 2.84315 0.328125 4.5V18C0.328125 19.6569 1.67127 21 3.32812 21H18.3281C19.985 21 21.3281 19.6569 21.3281 18V4.5C21.3281 2.84315 19.985 1.5 18.3281 1.5H17.5781V0.75C17.5781 0.335786 17.2423 0 16.8281 0C16.4139 0 16.0781 0.335786 16.0781 0.75V1.5H5.57812V0.75ZM18.3281 3C19.1566 3 19.8281 3.67157 19.8281 4.5V5.25H1.82812V4.5C1.82812 3.67157 2.4997 3 3.32812 3H18.3281ZM1.82812 6.75V18C1.82812 18.8284 2.4997 19.5 3.32812 19.5H18.3281C19.1566 19.5 19.8281 18.8284 19.8281 18V6.75H1.82812Z"
        fill="#FFFFFF" />
</svg>