<svg width="19" height="18" viewBox="0 0 19 18" fill="none" xmlns="http://www.w3.org/2000/svg">
<path d="M14.0747 16.8746C13.3884 16.8746 12.4244 16.6264 10.9809 15.82C9.22557 14.8356 7.86784 13.9268 6.12198 12.1855C4.4387 10.5033 3.61956 9.41414 2.47311 7.32797C1.17795 4.9725 1.39874 3.73781 1.64553 3.21012C1.93944 2.57942 2.37327 2.20219 2.93401 1.82778C3.25251 1.6191 3.58956 1.44022 3.94088 1.2934C3.97604 1.27828 4.00873 1.26387 4.03791 1.25086C4.21194 1.17246 4.47561 1.05399 4.80959 1.18055C5.03248 1.26422 5.23147 1.43543 5.54295 1.74305C6.18174 2.37305 7.05467 3.77613 7.3767 4.4652C7.59291 4.92961 7.736 5.23617 7.73635 5.58C7.73635 5.98254 7.53385 6.29297 7.28811 6.62801C7.24205 6.69094 7.19635 6.75106 7.15205 6.80942C6.88452 7.16098 6.8258 7.26258 6.86448 7.44399C6.94287 7.80856 7.52752 8.89383 8.48834 9.85254C9.44916 10.8113 10.5031 11.359 10.8691 11.437C11.0583 11.4775 11.162 11.4163 11.5248 11.1393C11.5768 11.0995 11.6303 11.0584 11.6862 11.0173C12.0609 10.7385 12.3569 10.5413 12.75 10.5413H12.7521C13.0942 10.5413 13.387 10.6896 13.8722 10.9343C14.505 11.2535 15.9503 12.1152 16.5841 12.7547C16.8924 13.0655 17.0644 13.2638 17.1484 13.4863C17.2749 13.8213 17.1558 14.0839 17.0781 14.2597C17.0651 14.2889 17.0506 14.3209 17.0355 14.3564C16.8875 14.7071 16.7076 15.0434 16.498 15.3612C16.1243 15.9202 15.7456 16.3529 15.1135 16.6472C14.7889 16.8007 14.4337 16.8785 14.0747 16.8746Z" fill="#9CA3AF"/>
</svg>
