<svg width="31" height="26" viewBox="0 0 31 26" fill="none" xmlns="http://www.w3.org/2000/svg">
<path fill-rule="evenodd" clip-rule="evenodd" d="M21.22 1.16354L30.564 18.0938C31.6891 19.9193 30.5208 21.7921 28.3881 21.4619C27.714 21.3581 23.3791 20.7755 17.8975 20.0467L19.4616 17.9711L26.884 18.7707C27.4981 18.8414 27.7836 18.6669 27.4309 18.0136C27.4309 18.0136 20.4428 4.1755 20.3756 4.01747C20.1357 3.58584 19.879 3.725 19.6559 4.10946L12.6989 16.5229C12.4423 16.9946 12.5454 17.2305 13.2747 17.3107L15.9927 17.6079L14.4382 19.4948L10.9165 18.9476C10.0361 18.8391 9.75062 18.2895 10.2328 17.398C10.5951 16.7234 18.7923 2.01972 18.7923 2.01972C18.9554 1.73668 19.0922 1.52441 19.2721 1.23194C19.7471 0.385189 20.6323 0.161121 21.22 1.16354Z" fill="#00AEEF"/>
<path fill-rule="evenodd" clip-rule="evenodd" d="M0.782682 14.2149L13.0303 12.0504L11.9833 13.9575L3.53072 15.3837C3.09947 15.4775 3.1402 15.6723 3.41093 15.8527C3.41093 15.8527 10.7854 20.9705 11.4993 21.4419C12.0767 21.8315 12.381 21.9902 12.865 21.3697C12.865 21.3697 18.8546 13.996 19.1684 13.4982C19.6236 12.8825 19.8297 12.6372 19.0966 12.7767L14.9374 13.4741L16.0035 11.5501L21.581 10.5328C22.8532 10.3164 23.3564 11.2062 22.7335 12.1466C22.1992 12.9138 13.3633 24.8546 13.3633 24.8546C12.7907 25.6939 12.3618 25.6603 11.6862 25.0662L0.406539 15.6867C-0.278674 15.0903 -0.0606571 14.3736 0.782682 14.2149Z" fill="#FFD400"/>
</svg>
