<svg width="26" height="26" viewBox="0 0 26 26" fill="none" xmlns="http://www.w3.org/2000/svg">
<path d="M0 25.8341H25.4781V0.165527H0V25.8341Z" fill="#176FC1"/>
<path d="M2.37402 23.4442H23.1105V2.55469H2.37402V23.4442Z" fill="white"/>
<path d="M19.608 12.8636L15.501 8.83878H14.5153H12.88V8.35714H14.5153H15.5234L19.9216 12.8375L19.608 12.8636ZM18.2639 12.8897L15.5047 10.209H14.5191H12.8875V9.7199H14.5228H15.5309L18.585 12.8561L18.2639 12.8897ZM14.5303 18.8112L13.0181 20.3047L12.9696 19.9836L14.5303 18.3781L16.972 15.8579V13.2295H17.4425L17.4686 15.8953L14.5303 18.8112ZM14.5303 17.0004L15.613 15.8804V13.2295H16.0872L16.1096 15.8953L14.5303 17.4522L12.992 18.9643L12.9509 18.647L14.5303 17.0004ZM11.1215 13.8866L10.2515 12.9681L11.1215 12.1094L12.9099 10.3546L14.5303 12.0721L15.4674 13.0615L14.5303 13.9874L12.7979 15.6937L11.1215 13.8866ZM11.1215 17.8069H10.1134L5.71895 13.3266L6.03258 13.2818L10.1395 17.3029H12.7531V17.7808L11.1215 17.8069ZM7.3692 13.2743L10.1358 15.9476H12.7493V16.4404H11.114H10.1022L7.04812 13.3004L7.3692 13.2743ZM12.7008 7.51334L11.1215 9.15986L10.0387 10.2799V12.9196H9.55336L9.53096 10.2613L11.1103 8.70062L12.6485 7.18478L12.7008 7.51334ZM11.1215 7.34534L12.6373 5.85189L12.6784 6.16924L11.1215 7.77842L8.68344 10.2949V12.9345H8.20554L8.18686 10.2762L11.1215 7.34534ZM15.6242 7.52828V4.62354H12.7083L11.1215 6.29992L7.41028 10.2351H4.625V13.0801L10.0126 18.6806V21.436H12.7568L14.5303 19.6476L18.1855 15.9662H20.8774V12.8375L15.6242 7.52828Z" fill="#CE0F3E"/>
</svg>
