<svg width="21" height="21" viewBox="0 0 21 21" fill="none" xmlns="http://www.w3.org/2000/svg">
<path fill-rule="evenodd" clip-rule="evenodd" d="M15.3105 6.23212C15.6277 6.49854 15.6688 6.97163 15.4024 7.28879L9.1024 14.7888C8.96278 14.955 8.75798 15.0526 8.54093 15.0563C8.32388 15.06 8.11587 14.9695 7.97065 14.8081L5.27065 11.8081C4.99356 11.5002 5.01852 11.026 5.3264 10.7489C5.63428 10.4718 6.1085 10.4968 6.3856 10.8047L8.50861 13.1636L14.2538 6.324C14.5203 6.00684 14.9934 5.9657 15.3105 6.23212Z" fill="#71717A"/>
<path fill-rule="evenodd" clip-rule="evenodd" d="M3.57812 2.3064C2.7497 2.3064 2.07812 2.97797 2.07812 3.8064V17.3064C2.07812 18.1348 2.7497 18.8064 3.57812 18.8064H17.0781C17.9066 18.8064 18.5781 18.1348 18.5781 17.3064V3.8064C18.5781 2.97797 17.9066 2.3064 17.0781 2.3064H3.57812ZM0.578125 3.8064C0.578125 2.14954 1.92127 0.806396 3.57812 0.806396H17.0781C18.735 0.806396 20.0781 2.14954 20.0781 3.8064V17.3064C20.0781 18.9633 18.735 20.3064 17.0781 20.3064H3.57812C1.92127 20.3064 0.578125 18.9633 0.578125 17.3064V3.8064Z" fill="#71717A"/>
</svg>
