<svg width="19" height="22" viewBox="0 0 19 22" fill="none" xmlns="http://www.w3.org/2000/svg">
<path fill-rule="evenodd" clip-rule="evenodd" d="M16.304 15.9446H13.8124V15.2437H16.413C16.849 15.2437 16.849 15.9446 16.304 15.9446ZM16.304 14.2934H13.8124V13.5924H16.3351C16.7556 13.5924 16.7089 14.2934 16.3351 14.2934H16.304ZM12.4575 17.0507H16.4598C17.6433 17.0507 18.1105 16.8638 18.1105 15.6954C18.1174 15.4657 18.046 15.2404 17.908 15.0567C17.819 14.9399 17.6926 14.8575 17.5499 14.8231C17.5499 14.8231 17.4408 14.8231 17.4097 14.8231C17.507 14.8082 17.5956 14.7583 17.6589 14.6828C17.8743 14.3916 17.9742 14.0309 17.9392 13.6703C17.9392 12.8914 17.3318 12.6577 16.5688 12.6577H12.4575V17.0507Z" fill="#EB2967"/>
<path fill-rule="evenodd" clip-rule="evenodd" d="M0 13.6861V15.7891C0.00807216 16.1248 0.147933 16.4438 0.389321 16.677H0.482755C0.566583 16.7602 0.667573 16.824 0.778643 16.864C0.951349 16.936 1.1366 16.973 1.3237 16.973H4.34484C4.52761 16.9737 4.70836 16.935 4.87493 16.8598C5.0415 16.7845 5.18999 16.6744 5.31035 16.5368C5.44921 16.3572 5.55099 16.1519 5.6098 15.9326C5.66862 15.7133 5.68329 15.4844 5.65295 15.2594H4.34484C4.34484 15.5554 4.34485 15.6177 4.20469 15.7891C4.15809 15.8298 4.10361 15.8605 4.04467 15.8792C3.98574 15.898 3.92361 15.9044 3.86209 15.8982H1.89989C1.83939 15.9028 1.77859 15.8943 1.72167 15.8732C1.66476 15.8522 1.61307 15.8191 1.57016 15.7762C1.52726 15.7332 1.49416 15.6815 1.47312 15.6246C1.45208 15.5677 1.44359 15.5069 1.44826 15.4463V14.0132C1.44826 13.9058 1.49095 13.8028 1.56689 13.7268C1.64282 13.6509 1.74579 13.6082 1.85317 13.6082H3.97106C4.06895 13.612 4.16184 13.6527 4.23111 13.722C4.30039 13.7913 4.341 13.8842 4.34484 13.9821C4.34484 14.0756 4.34484 14.1845 4.34484 14.1845H5.59065C5.66851 14.1845 5.59065 14.1846 5.59065 13.9665C5.62351 13.582 5.51255 13.199 5.27922 12.8916V12.7982L4.98333 12.5801C4.81137 12.4846 4.61923 12.4313 4.42269 12.4243H1.19909C0.883215 12.4469 0.586646 12.5846 0.365607 12.8115C0.144567 13.0383 0.014457 13.3385 0 13.6549V13.6861Z" fill="#EB2967"/>
<path fill-rule="evenodd" clip-rule="evenodd" d="M6.10393 15.7422C6.1055 15.9278 6.15369 16.1099 6.24408 16.2719C6.28783 16.3812 6.35115 16.4815 6.43095 16.5679C6.55721 16.6947 6.70788 16.7947 6.87383 16.8616C7.03978 16.9286 7.21756 16.9611 7.39646 16.9574H10.511C10.6968 16.959 10.8814 16.9273 11.056 16.8639C11.2915 16.7766 11.4965 16.6225 11.6458 16.4205C11.7952 16.2186 11.8824 15.9775 11.897 15.7267V12.5332H10.511V15.493C10.5091 15.5497 10.4958 15.6053 10.4718 15.6567C10.4478 15.708 10.4137 15.754 10.3715 15.7918C10.3293 15.8296 10.2799 15.8585 10.2263 15.8768C10.1726 15.895 10.1159 15.9023 10.0594 15.8981H7.92598C7.86804 15.8982 7.81066 15.8864 7.7575 15.8634C7.70435 15.8403 7.6565 15.8065 7.61702 15.7641C7.57754 15.7217 7.54725 15.6715 7.52805 15.6168C7.50885 15.5622 7.50119 15.5041 7.50548 15.4463V12.5332H6.07275V15.7422H6.10393Z" fill="#EB2967"/>
<path fill-rule="evenodd" clip-rule="evenodd" d="M6.50856 7.43911V5.99038C6.69429 5.94347 6.85988 5.83769 6.98057 5.68888C7.10126 5.54007 7.17057 5.35618 7.17818 5.16471C7.26483 5.2775 7.37691 5.36821 7.50524 5.4295C7.59261 5.44713 7.68259 5.44713 7.76996 5.4295C8.03469 5.4295 8.2839 5.19589 8.29947 5.19589C8.31505 5.19589 8.29944 5.33602 8.45516 5.70989C8.61372 6.1187 8.89018 6.47118 9.2494 6.72249L9.43626 6.84714H9.5297H9.63872C9.63872 7.04966 9.63869 7.68832 9.51411 7.68832H6.6643C6.57086 7.68832 6.50856 7.42349 6.50856 7.29887V7.43911ZM11.1804 6.84714C11.1804 6.52001 11.1804 6.23962 10.8067 6.08384C10.7178 6.02759 10.6158 5.99538 10.5108 5.99038V5.41401H10.3551V5.95919C10.1414 5.96252 9.93427 6.03341 9.76333 6.16171C9.69198 6.2383 9.63821 6.32959 9.60593 6.42917C9.57364 6.52875 9.56363 6.63419 9.57646 6.73809C9.28093 6.60731 9.02749 6.39696 8.84449 6.13053C8.6735 5.89249 8.55579 5.62044 8.49936 5.33281C8.44293 5.04518 8.44907 4.74871 8.51742 4.46368C8.53193 4.37039 8.5637 4.28062 8.61095 4.19888C8.62809 4.1134 8.66539 4.03323 8.71988 3.96518C8.71988 3.88729 8.79778 3.82505 8.86007 3.74716C8.92237 3.66927 8.86007 3.74708 8.86007 3.66919L8.98468 3.51345H9.07812C9.20953 3.39599 9.36304 3.30598 9.5297 3.24866C9.59926 3.36026 9.69546 3.45286 9.80962 3.51811C9.92377 3.58337 10.0523 3.61922 10.1837 3.62251C10.3792 3.64426 10.5765 3.6004 10.7444 3.49786C10.7977 3.46302 10.8406 3.41468 10.8689 3.35771C10.9225 3.31361 10.9607 3.25353 10.978 3.18628C11.3533 3.286 11.6831 3.51148 11.9124 3.82503C12.106 4.05349 12.2398 4.32651 12.3017 4.61952C12.3262 4.78478 12.3262 4.95276 12.3017 5.11802C12.301 5.37327 12.2497 5.62577 12.1508 5.86107C12.0519 6.09637 11.9073 6.3097 11.7255 6.48879C11.5379 6.64813 11.328 6.77932 11.1026 6.87824L11.1804 6.84714ZM6.36841 5.78786C6.2018 5.77977 6.04497 5.70676 5.93147 5.58448C5.81796 5.46221 5.75683 5.30032 5.76109 5.13352C5.71048 4.61549 5.71048 4.09376 5.76109 3.57573C5.79433 3.4705 5.85786 3.37745 5.94373 3.30818C6.0296 3.2389 6.134 3.19648 6.24385 3.18628C6.36058 3.17672 6.4768 3.20994 6.57086 3.27975L6.7266 3.46677C6.87002 3.9728 6.91234 4.50215 6.85116 5.02456C6.86725 5.1121 6.86725 5.20181 6.85116 5.28936C6.85116 5.28936 6.85116 5.28938 6.85116 5.41401L6.75773 5.52297C6.69373 5.58135 6.61075 5.61455 6.52415 5.61643L6.36841 5.78786ZM7.13146 4.54155V3.43558C7.1332 3.26483 7.18172 3.09781 7.27166 2.95267L7.41181 2.79684C7.49086 2.75456 7.57909 2.73247 7.66873 2.73247C7.75837 2.73247 7.84669 2.75456 7.92574 2.79684C8.37735 3.01493 8.25271 3.62253 8.25271 4.02755C8.25271 4.43258 8.34614 4.83754 8.05026 5.13352C8.03743 5.15714 8.01967 5.17777 7.99817 5.1939C7.97667 5.21003 7.952 5.22128 7.92574 5.22698C7.42741 5.46065 7.13146 4.94661 7.13146 4.57274V4.54155ZM8.47075 3.93409C8.44662 3.6126 8.44662 3.28976 8.47075 2.96827C8.49527 2.84503 8.55471 2.73142 8.64203 2.6411C8.69395 2.56859 8.7656 2.51249 8.84838 2.47937C8.93117 2.44624 9.02161 2.43749 9.1092 2.45417C9.29607 2.45417 9.48299 2.68782 9.54528 2.92149C9.13808 3.09853 8.79158 3.39092 8.5486 3.76266C8.5486 3.76266 8.54859 3.90293 8.43958 3.93409H8.47075ZM9.79441 2.84362V2.09591C9.81755 1.97819 9.87595 1.87022 9.96179 1.78642C10.0476 1.70263 10.1569 1.64696 10.2751 1.62669C10.3933 1.60642 10.5149 1.62249 10.6237 1.6729C10.7325 1.72331 10.8235 1.80569 10.8845 1.90898C10.9336 2.20815 10.9336 2.51326 10.8845 2.81243C10.8818 2.94771 10.8259 3.07651 10.7288 3.17079C10.433 3.42003 9.74774 3.2798 9.74774 2.84362H9.79441ZM9.57646 2.45417H9.48303C9.38348 2.38094 9.26698 2.33407 9.14446 2.31801C9.02195 2.30196 8.89737 2.31722 8.78232 2.36232C8.66728 2.40742 8.56552 2.48092 8.48653 2.57597C8.40754 2.67102 8.35386 2.78451 8.33056 2.90589C8.23049 2.74619 8.07391 2.6302 7.892 2.5811C7.71008 2.532 7.5163 2.55342 7.34951 2.6411C7.28219 2.68053 7.22382 2.73355 7.17818 2.79684C7.11695 2.86504 7.06938 2.9444 7.03803 3.03054L6.9446 3.34212C6.83286 3.19499 6.66965 3.09551 6.48769 3.06373C6.30574 3.03195 6.11847 3.07024 5.9635 3.17079C5.49631 3.48234 5.55864 4.18335 5.55864 4.72857C5.55864 4.8532 5.55864 4.88433 5.55864 4.99337C5.53189 5.15846 5.53189 5.32679 5.55864 5.49188C5.60654 5.62612 5.68717 5.74628 5.79322 5.84148C5.89927 5.93669 6.02737 6.00389 6.16595 6.03706C6.16595 6.224 6.16595 6.39535 6.16595 6.61344C6.16595 6.83153 6.07255 8.17123 6.53973 8.17123H9.43626C9.62314 8.17123 9.70099 7.89081 9.71656 7.76619C9.68153 7.33213 9.71837 6.89534 9.82558 6.47329C9.82558 6.47329 9.82556 6.47329 9.90343 6.47329C10.0373 6.42541 10.1823 6.41756 10.3206 6.45076C10.4589 6.48395 10.5845 6.55676 10.6821 6.66022C10.7323 6.87015 10.7323 7.08894 10.6821 7.29887C10.6821 7.54812 10.6821 7.73504 10.6821 7.96871V9.5265H10.9001V7.31446C11.3164 7.17826 11.6806 6.91722 11.9435 6.56675C12.147 6.30876 12.2905 6.00865 12.3636 5.68822C12.4366 5.36779 12.4375 5.03507 12.3659 4.71431C12.2943 4.39355 12.1521 4.09279 11.9497 3.83387C11.7474 3.57495 11.4899 3.36436 11.196 3.21747C11.0962 3.1666 10.9919 3.12486 10.8845 3.09282C10.8845 2.64106 10.8845 2.01801 10.5731 1.79992C10.4419 1.72765 10.2946 1.68973 10.1449 1.68973C9.9951 1.68973 9.84774 1.72765 9.71656 1.79992C9.26495 2.01801 9.29606 2.36071 9.29606 2.75015L9.57646 2.45417Z" fill="#284BA0"/>
<path fill-rule="evenodd" clip-rule="evenodd" d="M8.89124 0.491547C9.41615 0.465112 9.94191 0.522941 10.4485 0.662881C11.4003 0.917415 12.2663 1.42317 12.9557 2.12721C13.2988 2.45721 13.5925 2.83502 13.8278 3.24886C14.5313 4.47562 14.7322 5.92727 14.3884 7.29908C14.348 7.47372 14.296 7.64548 14.2327 7.81317C14.2327 8.00011 14.1081 8.12473 14.0459 8.29608C13.9807 8.44794 13.9025 8.59383 13.8122 8.73222L13.5475 9.15285C13.3619 9.40999 13.1533 9.64986 12.9246 9.86947L12.7689 10.0252C12.5326 10.2448 12.2773 10.443 12.0058 10.6172C11.7265 10.7984 11.429 10.9497 11.1181 11.0689L10.8689 11.1624C10.1234 11.4278 9.32913 11.5277 8.54117 11.455C7.75322 11.3824 6.99053 11.139 6.30609 10.7418C5.65976 10.3657 5.09618 9.86263 4.64924 9.26295C4.20231 8.66328 3.88129 7.97941 3.70545 7.25239C3.61629 6.85302 3.56415 6.44623 3.54971 6.03727V5.41421C3.61636 4.87784 3.75788 4.35346 3.97016 3.85642C4.18688 3.37294 4.46993 2.92196 4.81111 2.51665L4.98244 2.32973C5.05093 2.23833 5.12926 2.15479 5.21602 2.08052C5.43404 1.89359 5.46516 1.84687 5.77662 1.6132C6.04178 1.4182 6.32313 1.24619 6.61757 1.09911C7.29267 0.766897 8.03034 0.581042 8.78222 0.553825L8.89124 0.491547ZM3.37843 5.99059C3.38488 7.47732 3.9716 8.90272 5.01357 9.96293C5.12112 10.0889 5.24114 10.2037 5.37176 10.3056C5.74777 10.6476 6.17297 10.9312 6.63316 11.1469C7.33685 11.496 8.10636 11.6924 8.89124 11.7232C9.63375 11.7594 10.3757 11.6427 11.0714 11.3805C11.868 11.0966 12.5914 10.639 13.1893 10.0408C13.7795 9.4486 14.2363 8.73679 14.5286 7.95332C14.7898 7.23931 14.9065 6.48047 14.8717 5.72094C14.837 4.96141 14.6515 4.21641 14.3262 3.52925C14.0805 3.02963 13.7717 2.56365 13.4073 2.1428L13.1426 1.878C12.7819 1.52826 12.3791 1.22473 11.9435 0.974458L11.7099 0.849808L11.4607 0.725254C10.5218 0.311805 9.48982 0.155817 8.47074 0.273434C7.97963 0.330034 7.49798 0.450545 7.03802 0.63179L6.78885 0.740847C6.26843 0.974577 5.78562 1.28427 5.35617 1.65989L5.07587 1.92469C4.95886 2.03655 4.84956 2.15633 4.74881 2.28304C4.63127 2.4164 4.52207 2.5568 4.42179 2.70358C3.74034 3.66382 3.37561 4.81299 3.37843 5.99059Z" fill="#234BA0"/>
<path fill-rule="evenodd" clip-rule="evenodd" d="M10.371 9.35533H9.90386V9.02816C10.0904 9.01284 10.2779 9.01284 10.4645 9.02816C10.4645 9.02816 10.4645 9.33974 10.371 9.33974V9.35533ZM9.90386 8.46738H10.3555C10.4334 8.46738 10.4334 8.56091 10.4334 8.62322V8.74777H9.90386V8.46738ZM9.39003 8.26486V9.58904H10.48C10.9317 9.58904 10.8538 9.3553 10.8538 9.02816C10.8538 8.70103 10.7604 8.90361 10.7449 8.81015C10.7293 8.71668 10.8539 8.28048 10.7449 8.20259C10.6358 8.1247 10.6203 8.20259 10.5268 8.20259H9.34326L9.39003 8.26486Z" fill="#234BA0"/>
<path fill-rule="evenodd" clip-rule="evenodd" d="M7.41357 9.38626C7.41357 9.5732 7.53816 9.65106 7.70946 9.65106H8.73723C8.76587 9.65318 8.79465 9.64965 8.82192 9.6406C8.84918 9.63156 8.87444 9.61721 8.89615 9.59839C8.91786 9.57957 8.93561 9.55659 8.94843 9.53088C8.96125 9.50517 8.96889 9.47721 8.97086 9.44854V8.56059C8.97086 8.15557 9.17333 8.20233 8.50369 8.20233V9.35508H7.91192C7.91192 9.15257 7.91192 9.0124 7.91192 8.80989V8.20233H7.42911V9.38626H7.41357Z" fill="#284BA0"/>
<path fill-rule="evenodd" clip-rule="evenodd" d="M5.51221 8.60752V9.26176C5.51221 9.47985 5.5122 9.63562 5.79251 9.63562C6.15518 9.66748 6.51996 9.66748 6.88263 9.63562C6.97606 9.63562 6.99161 9.63561 7.00719 9.52656C7.02494 9.37129 7.02494 9.21452 7.00719 9.05924H6.52443V9.37082H5.96379V8.49846H6.52443V8.74767H7.00719C7.02586 8.58724 7.02586 8.42518 7.00719 8.26476C6.60851 8.22425 6.20677 8.22425 5.8081 8.26476C5.55893 8.26476 5.54334 8.43613 5.54334 8.6698L5.51221 8.60752Z" fill="#234BA0"/>
<path fill-rule="evenodd" clip-rule="evenodd" d="M10.0137 4.49494L10.5276 5.22705L10.9792 4.49494V4.41707C10.8523 4.19213 10.7065 3.9784 10.5432 3.77832C10.4798 3.90314 10.4069 4.02299 10.3251 4.13668L10.0759 4.49494H10.0137Z" fill="#234BA0"/>
<path fill-rule="evenodd" clip-rule="evenodd" d="M10.574 5.38312H11.3994C11.476 5.26909 11.5437 5.14933 11.6018 5.02486C11.681 4.91239 11.7488 4.79231 11.8043 4.6665H10.901C10.901 4.75997 10.5429 5.24292 10.5117 5.38312H10.574Z" fill="#254A9F"/>
<path fill-rule="evenodd" clip-rule="evenodd" d="M9.59245 5.38312H10.4179C10.4179 5.2585 10.0753 4.79113 10.0441 4.6665H9.20312C9.29008 4.85434 9.38892 5.03651 9.49901 5.21179L9.59245 5.38312Z" fill="#254A9F"/>
<path d="M1.77529 18.1415H1.38596V19.3409H1.24577V18.1415H0.856445V18.0168H1.77529V18.1415ZM2.28917 18.5465C2.27219 18.5383 2.25354 18.534 2.23466 18.534C2.21577 18.534 2.19713 18.5383 2.18015 18.5465C2.14603 18.5464 2.11243 18.5549 2.08248 18.5712C2.05254 18.5876 2.02724 18.6112 2.00887 18.64C1.98157 18.7208 1.98157 18.8084 2.00887 18.8892V19.3721H1.86872V18.4219H2.00887V18.6088C2.03233 18.549 2.06966 18.4956 2.11784 18.4531C2.13988 18.4432 2.16379 18.438 2.18794 18.438C2.2121 18.438 2.236 18.4432 2.25804 18.4531H2.35147V18.6088L2.28917 18.5465ZM3.22355 19.3409H3.11453V19.2008C3.08729 19.2551 3.04477 19.3002 2.9922 19.3306C2.93963 19.3611 2.87929 19.3755 2.81864 19.3721C2.60062 19.3721 2.47604 19.2319 2.47604 18.9671V18.3907H2.63177V18.936C2.63177 19.1385 2.63176 19.2475 2.86536 19.2475C2.90184 19.2488 2.93807 19.241 2.97072 19.2246C3.00337 19.2083 3.03139 19.184 3.05222 19.154C3.07849 19.0837 3.07849 19.0063 3.05222 18.936V18.3907H3.20796V19.3409H3.22355ZM3.47272 19.154C3.54766 19.2146 3.64109 19.2476 3.73743 19.2475C3.87759 19.2475 3.93989 19.2475 3.93989 19.1073C3.94809 19.0931 3.95239 19.0769 3.95239 19.0605C3.95239 19.0441 3.94809 19.0281 3.93989 19.0138C3.93989 19.0138 3.86205 19.0138 3.76861 18.9204C3.69018 18.9 3.61965 18.8566 3.56615 18.7957C3.54834 18.7453 3.54834 18.6904 3.56615 18.64C3.56479 18.6017 3.57428 18.5638 3.59358 18.5307C3.61287 18.4977 3.64114 18.4707 3.67513 18.4531C3.75493 18.4202 3.8445 18.4202 3.9243 18.4531C3.99608 18.437 4.07056 18.437 4.14234 18.4531V18.6088C4.06617 18.5858 3.98493 18.5858 3.90876 18.6088H3.76861C3.76035 18.6258 3.75602 18.6444 3.75602 18.6633C3.75602 18.6822 3.76035 18.7009 3.76861 18.7179C3.75792 18.7481 3.75792 18.7811 3.76861 18.8113H3.9243C4.00591 18.8348 4.08071 18.8775 4.14234 18.936C4.15262 18.9607 4.15793 18.9871 4.15793 19.0138C4.15793 19.0406 4.15262 19.067 4.14234 19.0917C4.14484 19.1323 4.13594 19.1727 4.11668 19.2085C4.09742 19.2443 4.06855 19.274 4.03332 19.2942C3.94706 19.3207 3.85487 19.3207 3.76861 19.2942C3.68746 19.3194 3.60059 19.3194 3.51944 19.2942V19.1385L3.47272 19.154ZM4.76525 19.3409H4.6251C4.46937 19.3409 4.37593 19.2475 4.37593 19.0605V18.4842H4.22019V18.3596H4.37593V18.1259H4.51608V18.4063H4.76525V18.5309H4.51608V19.0761C4.49789 19.1211 4.49789 19.1714 4.51608 19.2164C4.51608 19.2164 4.51609 19.2164 4.6251 19.2164H4.71853V19.3409H4.76525ZM5.43487 18.4686C5.53199 18.4052 5.646 18.3726 5.76193 18.3751C5.97995 18.3751 6.08895 18.4842 6.08895 18.7179V19.3409H5.9488V19.2008C5.92156 19.2551 5.87904 19.3002 5.82647 19.3306C5.7739 19.3611 5.71356 19.3755 5.65291 19.3721C5.58218 19.3959 5.5056 19.3959 5.43487 19.3721C5.38422 19.3169 5.35642 19.2445 5.35702 19.1696C5.35702 18.9982 5.46605 18.8892 5.6685 18.858H5.9488C5.9488 18.6867 5.94881 18.6088 5.76193 18.6088C5.64808 18.6046 5.53681 18.6435 5.45046 18.7179V18.5776L5.43487 18.4686ZM5.71522 18.8892C5.65937 18.8723 5.59974 18.8723 5.54389 18.8892C5.52571 18.9342 5.52571 18.9845 5.54389 19.0294C5.53661 19.0467 5.53286 19.0652 5.53286 19.0839C5.53286 19.1026 5.53661 19.1212 5.54389 19.1385C5.58395 19.1541 5.62844 19.1541 5.6685 19.1385C5.73428 19.1599 5.80512 19.1599 5.87091 19.1385C5.89345 19.0729 5.89345 19.0016 5.87091 18.936V18.8269H5.65291L5.71522 18.8892ZM7.16348 19.3409H7.00774V18.7957C7.00774 18.5932 7.00772 18.4997 6.7897 18.4997C6.71532 18.5019 6.64395 18.5294 6.58729 18.5776C6.56464 18.6485 6.56464 18.7248 6.58729 18.7957V19.3409H6.43155V18.3907H6.58729V18.5465C6.61857 18.4922 6.66411 18.4474 6.71903 18.4172C6.77395 18.387 6.8361 18.3724 6.89872 18.3751C6.94225 18.3714 6.98605 18.378 7.02661 18.3942C7.06717 18.4104 7.10334 18.4359 7.1323 18.4686C7.19742 18.5531 7.23056 18.6579 7.22579 18.7645V19.3409H7.16348ZM8.25355 19.3409H8.11345V19.1852C8.08485 19.2463 8.03807 19.297 7.97953 19.3305C7.92098 19.3639 7.85351 19.3785 7.78639 19.3721C7.73335 19.3734 7.68069 19.3629 7.63222 19.3413C7.58374 19.3197 7.54067 19.2877 7.50609 19.2475C7.426 19.146 7.38707 19.0181 7.39706 18.8892C7.39201 18.7536 7.43625 18.6208 7.52163 18.5153C7.55947 18.4698 7.60724 18.4335 7.66121 18.4092C7.71518 18.3849 7.774 18.3732 7.83315 18.3751C7.89019 18.3693 7.94756 18.3811 7.99768 18.4089C8.0478 18.4368 8.08826 18.4794 8.11345 18.5309V17.939H8.25355V19.3409ZM8.11345 18.7801C8.1155 18.7428 8.10957 18.7055 8.09615 18.6706C8.08273 18.6357 8.06205 18.604 8.03551 18.5776C8.00918 18.5511 7.97754 18.5305 7.94265 18.5171C7.90775 18.5036 7.87048 18.4977 7.83315 18.4997C7.79205 18.4973 7.7509 18.5044 7.71306 18.5207C7.67521 18.5369 7.64168 18.5617 7.61511 18.5932C7.54999 18.6777 7.51685 18.7826 7.52163 18.8892C7.52127 18.9832 7.54836 19.0752 7.59952 19.154C7.62682 19.1846 7.66046 19.2088 7.69813 19.2249C7.7358 19.2411 7.7766 19.2488 7.81756 19.2475C7.85624 19.2487 7.89467 19.2409 7.92981 19.2246C7.96495 19.2084 7.99585 19.1842 8.02002 19.154C8.05098 19.1237 8.07521 19.0873 8.0913 19.047C8.10739 19.0068 8.11498 18.9637 8.11345 18.9204V18.7801ZM9.67074 19.3409H8.98553V18.0168H9.65515V18.1415H9.12563V18.6088H9.60838V18.749H9.12563V19.232H9.67074V19.3565V19.3409ZM10.6051 18.3907L10.278 18.8736L10.5895 19.3409H10.4182L10.2313 19.0294L10.0445 19.3409H9.87319L10.2002 18.8736L9.88868 18.3907H10.0601L10.2936 18.7957L10.5116 18.4219L10.6051 18.3907ZM11.4149 19.2942C11.3281 19.3167 11.2369 19.3167 11.1501 19.2942C11.0885 19.2973 11.027 19.2863 10.9703 19.262C10.9137 19.2377 10.8634 19.2007 10.8231 19.154C10.7384 19.0604 10.6937 18.9375 10.6985 18.8113C10.6948 18.7427 10.7054 18.6741 10.7295 18.6098C10.7536 18.5454 10.7908 18.4868 10.8387 18.4375C10.8844 18.3892 10.9402 18.3515 11.0021 18.3273C11.064 18.303 11.1305 18.2928 11.1968 18.2972C11.2686 18.2811 11.3431 18.2811 11.4149 18.2972V18.6088C11.3385 18.5876 11.2577 18.5876 11.1813 18.6088C11.138 18.6073 11.0949 18.6148 11.0547 18.6309C11.0144 18.647 10.978 18.6713 10.9477 18.7023C10.8804 18.7805 10.8419 18.8795 10.8387 18.9827C10.8334 19.0846 10.8668 19.1847 10.9321 19.263C10.9624 19.294 10.9988 19.3184 11.0391 19.3345C11.0793 19.3505 11.1224 19.358 11.1657 19.3565C11.2472 19.3791 11.3334 19.3791 11.4149 19.3565V19.4812V19.2942ZM12.396 18.9048H11.7264C11.7229 18.9944 11.7504 19.0823 11.8042 19.154C11.8345 19.185 11.8709 19.2093 11.9111 19.2254C11.9514 19.2415 11.9945 19.249 12.0377 19.2475C12.1465 19.2493 12.2521 19.2105 12.3336 19.1385V19.2786C12.2384 19.346 12.1231 19.379 12.0067 19.3721C11.9473 19.3752 11.8881 19.3641 11.834 19.3397C11.7798 19.3153 11.7322 19.2784 11.6952 19.232C11.6081 19.1336 11.5633 19.0048 11.5706 18.8736C11.5692 18.7433 11.6133 18.6167 11.6952 18.5153C11.7344 18.4715 11.7824 18.4363 11.8361 18.4122C11.8897 18.388 11.9478 18.3754 12.0067 18.3751C12.0624 18.3701 12.1185 18.3789 12.1701 18.4007C12.2216 18.4224 12.2672 18.4564 12.3026 18.4997C12.3699 18.595 12.4029 18.7104 12.396 18.8269V18.9048ZM12.2558 18.7801C12.2762 18.7142 12.2762 18.6436 12.2558 18.5776C12.2342 18.5494 12.2056 18.5273 12.1728 18.5136C12.14 18.5 12.1042 18.4952 12.0689 18.4997C12.0341 18.4989 11.9994 18.5054 11.9672 18.5189C11.935 18.5323 11.906 18.5523 11.8821 18.5776C11.8302 18.6335 11.7974 18.7044 11.7886 18.7801H12.2558ZM12.6295 19.3409V17.939H12.7697V19.3409H12.6295ZM13.0967 19.3409V17.939H13.2369V19.3409H13.0967ZM14.3114 18.9048H13.6262C13.6284 18.996 13.6613 19.0838 13.7196 19.154C13.7462 19.1855 13.7798 19.2103 13.8176 19.2265C13.8555 19.2428 13.8966 19.2499 13.9377 19.2475C14.0511 19.2488 14.1614 19.2103 14.2492 19.1385V19.2786C14.1472 19.3441 14.0276 19.3768 13.9065 19.3721C13.8474 19.374 13.7885 19.3623 13.7346 19.338C13.6806 19.3137 13.6329 19.2775 13.595 19.232C13.5135 19.1312 13.4744 19.0027 13.486 18.8736C13.4815 18.8086 13.4903 18.7433 13.5117 18.6817C13.5331 18.6202 13.5668 18.5636 13.6106 18.5153C13.6485 18.4698 13.6962 18.4335 13.7502 18.4092C13.8041 18.3849 13.8629 18.3732 13.9221 18.3751C13.9757 18.3683 14.0303 18.3763 14.0797 18.3983C14.1291 18.4203 14.1715 18.4553 14.2024 18.4997C14.2753 18.593 14.3138 18.7086 14.3114 18.8269V18.9048ZM14.1557 18.7801C14.1825 18.7153 14.1825 18.6425 14.1557 18.5776C14.1366 18.5506 14.1106 18.5292 14.0805 18.5155C14.0504 18.5018 14.0172 18.4964 13.9844 18.4997C13.9491 18.4952 13.9134 18.5 13.8806 18.5136C13.8478 18.5273 13.8191 18.5494 13.7975 18.5776C13.7399 18.6313 13.7016 18.7025 13.6885 18.7801H14.1557ZM15.3237 19.3409H15.1835V18.7957C15.1835 18.5932 15.1835 18.4997 14.9499 18.4997C14.8797 18.4999 14.8125 18.5279 14.763 18.5776C14.7413 18.6487 14.7413 18.7246 14.763 18.7957V19.3409H14.6229V18.3907H14.763V18.5465C14.7955 18.4933 14.8413 18.4495 14.896 18.4194C14.9506 18.3894 15.0121 18.3741 15.0745 18.3751C15.1202 18.3723 15.166 18.3792 15.209 18.3953C15.2519 18.4115 15.291 18.4364 15.3237 18.4686C15.3502 18.5654 15.3502 18.6677 15.3237 18.7645V19.3409ZM16.258 19.3409C16.1715 19.3656 16.0798 19.3656 15.9933 19.3409C15.9322 19.3409 15.8716 19.3285 15.8154 19.3044C15.7592 19.2803 15.7084 19.2451 15.6662 19.2008C15.5815 19.1072 15.5368 18.9841 15.5416 18.858C15.538 18.7894 15.5486 18.7208 15.5727 18.6564C15.5968 18.5921 15.634 18.5334 15.6818 18.4842C15.7282 18.4367 15.784 18.3997 15.8458 18.3755C15.9076 18.3513 15.9738 18.3406 16.04 18.344C16.1118 18.3279 16.1862 18.3279 16.258 18.344V18.6088C16.1819 18.5858 16.1006 18.5858 16.0244 18.6088C15.9811 18.6073 15.938 18.6148 15.8978 18.6309C15.8576 18.647 15.8212 18.6713 15.7909 18.7023C15.728 18.782 15.695 18.8812 15.6974 18.9827C15.6706 19.0742 15.6706 19.1715 15.6974 19.263C15.7301 19.2952 15.7691 19.3202 15.8121 19.3363C15.855 19.3524 15.9008 19.3593 15.9465 19.3565C16.0232 19.3763 16.1036 19.3763 16.1802 19.3565V19.4812L16.258 19.3409ZM17.2547 18.9515H16.5695C16.5667 18.9972 16.5736 19.0432 16.5897 19.0861C16.6058 19.129 16.6308 19.1681 16.6629 19.2008C16.6895 19.2322 16.723 19.2571 16.7608 19.2733C16.7987 19.2895 16.8399 19.2967 16.881 19.2942C16.9351 19.2968 16.9891 19.2884 17.0399 19.2697C17.0907 19.251 17.1373 19.2222 17.1769 19.1852V19.3254C17.0816 19.3928 16.9663 19.4258 16.8498 19.4189C16.7906 19.4207 16.7318 19.409 16.6779 19.3847C16.6239 19.3605 16.5762 19.3242 16.5383 19.2786C16.4568 19.1779 16.4177 19.0494 16.4293 18.9204C16.4248 18.8553 16.4336 18.7901 16.455 18.7285C16.4764 18.6669 16.51 18.6102 16.5539 18.562C16.5918 18.5165 16.6395 18.4803 16.6934 18.456C16.7474 18.4317 16.8062 18.42 16.8654 18.4219C16.9187 18.4181 16.9721 18.4275 17.021 18.4493C17.0699 18.471 17.1127 18.5044 17.1457 18.5465C17.2186 18.6398 17.2571 18.7553 17.2547 18.8736V18.9515ZM17.0989 18.8269C17.1257 18.7621 17.1257 18.6892 17.0989 18.6244C17.0773 18.5961 17.0487 18.5741 17.0159 18.5604C16.9831 18.5467 16.9473 18.542 16.9121 18.5465C16.8793 18.5447 16.8467 18.5507 16.8168 18.5643C16.787 18.5779 16.7609 18.5985 16.7408 18.6244C16.71 18.6492 16.6845 18.6798 16.6658 18.7146C16.6471 18.7494 16.6355 18.7876 16.6318 18.8269H17.0989ZM4.37593 21.5063C4.4269 21.5202 4.48069 21.5202 4.53166 21.5063H4.71853C4.92098 21.5063 5.01442 21.5062 5.01442 21.2882C5.02365 21.2524 5.02365 21.215 5.01442 21.1792C5.01442 21.1792 5.01444 21.1791 4.93657 21.1012L4.73412 20.9923C4.62871 20.9431 4.53355 20.8744 4.45377 20.7897C4.4356 20.7288 4.4356 20.6638 4.45377 20.6028C4.45491 20.5547 4.46669 20.5073 4.48823 20.4642C4.50976 20.4211 4.54055 20.3833 4.57838 20.3535C4.67551 20.2902 4.78947 20.2576 4.9054 20.2601C4.99733 20.2363 5.09377 20.2363 5.1857 20.2601V20.4314C5.08987 20.3982 4.98569 20.3982 4.88986 20.4314C4.82356 20.4135 4.7537 20.4135 4.6874 20.4314C4.6874 20.4314 4.60951 20.4314 4.60951 20.5872C4.60222 20.618 4.60222 20.65 4.60951 20.6807L4.6874 20.7586L4.87427 20.8676C4.98123 20.9067 5.07732 20.9708 5.15457 21.0545C5.2028 21.1112 5.23025 21.1827 5.23241 21.2571C5.23492 21.308 5.22491 21.3588 5.20319 21.405C5.18146 21.4512 5.14871 21.4913 5.10785 21.5219C5.00679 21.5893 4.88656 21.6221 4.76525 21.6153H4.57838C4.57838 21.6153 4.4538 21.6153 4.43823 21.6153V21.444L4.37593 21.5063ZM5.71522 20.5249H5.59061V21.6153H5.71522V21.7244H5.31031V21.5997H5.43487V20.5093H5.31031V20.3847H5.71522V20.5093V20.5249ZM7.00774 21.74H6.82088L6.12008 20.6651C6.1328 20.7215 6.1328 20.78 6.12008 20.8364V21.7244H5.96434V20.3847H6.2291L6.89872 21.4596V21.5375C6.89872 21.5375 6.89872 21.4284 6.89872 21.3505V20.3847H7.05446V21.7244L7.00774 21.74ZM8.26914 21.74C8.14666 21.7723 8.01789 21.7723 7.89541 21.74C7.81104 21.7438 7.72684 21.7291 7.6488 21.6968C7.57076 21.6645 7.50076 21.6154 7.44378 21.553C7.33015 21.4242 7.26904 21.2575 7.2725 21.0857C7.26439 20.8964 7.33157 20.7115 7.45937 20.5716C7.52033 20.5049 7.59509 20.4521 7.67846 20.4171C7.76182 20.3822 7.85174 20.3658 7.94208 20.3691C8.05029 20.3505 8.16092 20.3505 8.26914 20.3691V20.5249C8.16136 20.5017 8.04986 20.5017 7.94208 20.5249C7.87084 20.523 7.80017 20.5376 7.73539 20.5673C7.67061 20.597 7.61345 20.6411 7.56834 20.6963C7.47131 20.8082 7.42113 20.9532 7.42819 21.1012C7.42349 21.2415 7.46754 21.3792 7.5528 21.4907C7.59704 21.5418 7.6522 21.5824 7.7142 21.6093C7.77619 21.6363 7.84344 21.649 7.911 21.6465C8.0367 21.6488 8.16058 21.6165 8.26914 21.553V21.6932V21.74ZM9.23465 21.74H8.53385V20.4003H9.20347V20.5404H8.67405V20.9923H9.17239V21.1324H8.67405V21.5997H9.34367V21.7244L9.23465 21.74ZM10.6673 21.74H9.91986V21.6153H10.2313V20.556L9.91986 20.6495V20.5093L10.3714 20.3691V21.6153H10.6673V21.7244V21.74ZM10.9477 21.5686C11.0236 21.5936 11.1054 21.5936 11.1813 21.5686C11.236 21.5706 11.2903 21.5588 11.3393 21.5343C11.3883 21.5098 11.4303 21.4734 11.4616 21.4284C11.5308 21.2995 11.5632 21.1539 11.555 21.0078C11.5295 21.0634 11.4873 21.1099 11.4343 21.1406C11.3813 21.1713 11.3201 21.1848 11.2591 21.1792C11.2059 21.1772 11.1537 21.1646 11.1053 21.1424C11.057 21.1202 11.0134 21.0887 10.9773 21.0496C10.9411 21.0105 10.913 20.9647 10.8946 20.9148C10.8761 20.8648 10.8677 20.8118 10.8698 20.7586C10.866 20.702 10.8738 20.6451 10.8925 20.5916C10.9112 20.5381 10.9406 20.4889 10.9788 20.447C11.0199 20.4067 11.0687 20.3749 11.1221 20.3535C11.1756 20.3321 11.2327 20.3215 11.2903 20.3223C11.3514 20.3181 11.4125 20.3303 11.4673 20.3577C11.522 20.3851 11.5685 20.4267 11.6018 20.4782C11.6851 20.6133 11.7233 20.7715 11.7108 20.9299C11.7204 21.1266 11.6716 21.3217 11.5706 21.4907C11.5269 21.5571 11.4664 21.6109 11.3953 21.6464C11.3242 21.682 11.245 21.6981 11.1657 21.6932C11.0939 21.7093 11.0195 21.7093 10.9477 21.6932V21.553V21.5686ZM10.9477 20.8052C10.9215 20.8756 10.9215 20.953 10.9477 21.0234C10.9719 21.0536 11.0027 21.0778 11.0378 21.094C11.073 21.1102 11.1114 21.118 11.1501 21.1168C11.2203 21.1168 11.2877 21.0889 11.3373 21.0392C11.387 20.9896 11.4149 20.9223 11.4149 20.852C11.415 20.7629 11.3878 20.676 11.337 20.6028C11.3138 20.5716 11.283 20.5466 11.2476 20.5303C11.2122 20.5139 11.1734 20.5067 11.1346 20.5093C11.0744 20.4865 11.0079 20.4865 10.9477 20.5093C10.9261 20.5803 10.9261 20.6563 10.9477 20.7274V20.8052ZM11.8198 21.1012C11.807 20.913 11.8445 20.7248 11.9287 20.556C11.9662 20.5004 12.0175 20.4553 12.0776 20.4253C12.1376 20.3953 12.2043 20.3813 12.2714 20.3847C12.5361 20.3847 12.6763 20.6028 12.6763 21.0701C12.6881 21.2483 12.6504 21.4262 12.5673 21.5841C12.5312 21.6375 12.4824 21.6812 12.4254 21.7111C12.3683 21.741 12.3046 21.7563 12.2402 21.7556C12.177 21.7622 12.1133 21.7493 12.0576 21.7187C12.0019 21.688 11.957 21.6411 11.9287 21.5841C11.8457 21.4374 11.8078 21.2694 11.8198 21.1012ZM11.9599 21.1012C11.9599 21.4751 12.0689 21.6465 12.2558 21.6465C12.4427 21.6465 12.5361 21.4751 12.5361 21.1012C12.5361 20.7274 12.4427 20.5249 12.2558 20.5249C12.0689 20.5249 11.9599 20.7118 11.9599 21.1012ZM13.7196 21.3972H13.5484V21.7244H13.4082V21.3661H12.7697V21.2727L13.3615 20.3847H13.5484V21.2415H13.7196V21.3661V21.3972ZM13.4082 21.2727V20.556C13.4082 20.556 13.4082 20.556 13.4082 20.6495L12.9878 21.2727H13.4082Z" fill="#2E3192"/>
</svg>
