<svg width="16" height="17" viewBox="0 0 16 17" fill="none" xmlns="http://www.w3.org/2000/svg">
<rect y="0.5" width="16" height="16" rx="4" fill="#16B364"/>
<path fill-rule="evenodd" clip-rule="evenodd" d="M3.75 7.65888C3.75 5.35895 5.67194 3.5 7.99672 3.5C10.3281 3.5 12.25 5.35895 12.25 7.65888C12.25 8.81785 11.8285 9.89381 11.1347 10.8058C10.3694 11.8118 9.42608 12.6882 8.36427 13.3762C8.12126 13.5352 7.90194 13.5472 7.63522 13.3762C6.56737 12.6882 5.62404 11.8118 4.86525 10.8058C4.17099 9.89381 3.75 8.81785 3.75 7.65888ZM6.59711 7.78838C6.59711 8.55885 7.22583 9.16483 7.99672 9.16483C8.76812 9.16483 9.40289 8.55885 9.40289 7.78838C9.40289 7.0239 8.76812 6.38842 7.99672 6.38842C7.22583 6.38842 6.59711 7.0239 6.59711 7.78838Z" fill="white"/>
</svg>
