<svg width="20" height="21" viewBox="0 0 20 21" fill="none" xmlns="http://www.w3.org/2000/svg">
<path fill-rule="evenodd" clip-rule="evenodd" d="M2.625 5.25001C2.32663 5.25001 2.04048 5.36854 1.8295 5.57952C1.61853 5.7905 1.5 6.07665 1.5 6.37501V17.625C1.5 17.9234 1.61853 18.2095 1.8295 18.4205C2.04048 18.6315 2.32663 18.75 2.625 18.75H13.875C14.0227 18.75 14.169 18.7209 14.3055 18.6644C14.442 18.6078 14.566 18.525 14.6705 18.4205C14.775 18.316 14.8578 18.192 14.9144 18.0555C14.9709 17.919 15 17.7728 15 17.625V9.00001C15 8.5858 15.3358 8.25001 15.75 8.25001C16.1642 8.25001 16.5 8.5858 16.5 9.00001V17.625C16.5 17.9697 16.4321 18.3111 16.3002 18.6296C16.1683 18.948 15.9749 19.2374 15.7312 19.4812C15.4874 19.7249 15.198 19.9183 14.8795 20.0502C14.5611 20.1821 14.2197 20.25 13.875 20.25H2.625C1.92881 20.25 1.26113 19.9735 0.768845 19.4812C0.276562 18.9889 0 18.3212 0 17.625V6.37501C0 5.67882 0.276562 5.01114 0.768845 4.51886C1.26113 4.02658 1.92881 3.75001 2.625 3.75001H10.4756C10.8898 3.75001 11.2256 4.0858 11.2256 4.50001C11.2256 4.91423 10.8898 5.25001 10.4756 5.25001H2.625Z" fill="#373737"/>
<path d="M19.3097 0.996108C19.2412 0.920846 19.1581 0.860252 19.0656 0.81799C18.973 0.775727 18.8728 0.752672 18.7711 0.750219C18.6693 0.747765 18.5682 0.765964 18.4737 0.803715C18.3792 0.841466 18.2933 0.897985 18.2213 0.969857L17.6414 1.54689C17.5711 1.61721 17.5317 1.71255 17.5317 1.81197C17.5317 1.91138 17.5711 2.00673 17.6414 2.07704L18.173 2.60767C18.2078 2.64268 18.2492 2.67046 18.2948 2.68941C18.3405 2.70837 18.3894 2.71812 18.4387 2.71812C18.4881 2.71812 18.537 2.70837 18.5827 2.68941C18.6283 2.67046 18.6697 2.64268 18.7045 2.60767L19.2698 2.04517C19.5558 1.7597 19.5825 1.2947 19.3097 0.996108Z" fill="#373737"/>
<path d="M16.4691 2.71876L8.00719 11.1656C7.95588 11.2167 7.91859 11.2802 7.89891 11.3499L7.5075 12.5156C7.49812 12.5473 7.49746 12.5808 7.50558 12.6128C7.5137 12.6448 7.53029 12.674 7.55362 12.6973C7.57695 12.7207 7.60615 12.7373 7.63813 12.7454C7.6701 12.7535 7.70368 12.7528 7.73531 12.7435L8.90016 12.352C8.96984 12.3324 9.03328 12.2951 9.08438 12.2438L17.5312 3.78095C17.6094 3.70197 17.6532 3.59534 17.6532 3.48423C17.6532 3.37312 17.6094 3.2665 17.5312 3.18751L17.0648 2.71876C16.9858 2.6399 16.8786 2.59562 16.767 2.59562C16.6553 2.59562 16.5481 2.6399 16.4691 2.71876Z" fill="#373737"/>
</svg>
