<svg width="18" height="14" viewBox="0 0 18 14" fill="none" xmlns="http://www.w3.org/2000/svg">
<path d="M15.1872 13.7497C15.1133 13.7498 15.0402 13.7353 14.9719 13.707C14.9037 13.6787 14.8417 13.6372 14.7896 13.5848L2.41461 1.20984C2.31357 1.1035 2.25808 0.961888 2.25995 0.815209C2.26183 0.668531 2.32093 0.528389 2.42466 0.424663C2.52839 0.320937 2.66853 0.261835 2.81521 0.259957C2.96188 0.258079 3.10349 0.313574 3.20984 0.41461L15.5848 12.7896C15.6635 12.8683 15.717 12.9685 15.7387 13.0776C15.7604 13.1866 15.7492 13.2997 15.7067 13.4025C15.6641 13.5052 15.5921 13.593 15.4996 13.6548C15.4071 13.7167 15.2984 13.7497 15.1872 13.7497Z" fill="#A1A1AA"/>
<path d="M8.98777 11.4997C7.52914 11.4997 6.12254 11.068 4.80699 10.2165C3.60922 9.44308 2.53097 8.33531 1.68863 7.0173V7.01449C2.38965 6.01008 3.15746 5.1607 3.98222 4.47586C3.98969 4.46962 3.99577 4.46191 4.0001 4.4532C4.00442 4.44449 4.0069 4.43497 4.00736 4.42526C4.00782 4.41555 4.00626 4.40584 4.00279 4.39676C3.99931 4.38768 3.99398 4.37942 3.98715 4.3725L3.28683 3.67324C3.27439 3.6607 3.25768 3.65329 3.24002 3.65251C3.22237 3.65173 3.20507 3.65763 3.19156 3.66902C2.31547 4.40731 1.5023 5.31293 0.762967 6.37324C0.635766 6.55581 0.565712 6.77207 0.561705 6.99455C0.557699 7.21702 0.619922 7.43567 0.740467 7.6227C1.66894 9.0757 2.8639 10.2995 4.19562 11.1612C5.69504 12.1325 7.30871 12.6247 8.98777 12.6247C9.89408 12.6219 10.794 12.4726 11.6526 12.1825C11.6639 12.1786 11.6741 12.1719 11.6821 12.1631C11.6902 12.1542 11.6958 12.1435 11.6985 12.1318C11.7012 12.1202 11.7009 12.108 11.6976 12.0965C11.6943 12.085 11.6882 12.0745 11.6797 12.0661L10.921 11.3074C10.9035 11.2904 10.882 11.2782 10.8583 11.272C10.8347 11.2659 10.8099 11.2659 10.7864 11.2723C10.1988 11.4236 9.59449 11.5 8.98777 11.4997Z" fill="#A1A1AA"/>
<path d="M17.2558 6.38801C16.3256 4.94941 15.1187 3.72738 13.7659 2.85375C12.2693 1.88625 10.6169 1.37473 8.98777 1.37473C8.09107 1.37632 7.20102 1.5288 6.35492 1.82578C6.34365 1.8297 6.33356 1.83643 6.3256 1.84533C6.31765 1.85423 6.31209 1.86501 6.30945 1.87665C6.30682 1.88829 6.30719 1.90041 6.31053 1.91187C6.31387 1.92333 6.32007 1.93375 6.32855 1.94215L7.08617 2.69977C7.10381 2.7171 7.1257 2.72948 7.14965 2.73566C7.1736 2.74183 7.19876 2.74157 7.22258 2.73492C7.79807 2.57924 8.39159 2.50016 8.98777 2.49973C10.4183 2.49973 11.8207 2.93672 13.1555 3.80051C14.3758 4.58801 15.4667 5.69473 16.3112 6.99973C16.3118 7.00053 16.3121 7.00152 16.3121 7.00254C16.3121 7.00356 16.3118 7.00455 16.3112 7.00535C15.6982 7.97036 14.9375 8.83317 14.057 9.56227C14.0494 9.56848 14.0432 9.5762 14.0389 9.58492C14.0345 9.59365 14.0319 9.6032 14.0314 9.61296C14.0309 9.62271 14.0325 9.63247 14.036 9.6416C14.0395 9.65073 14.0448 9.65903 14.0517 9.66598L14.7513 10.3652C14.7637 10.3777 14.7803 10.3851 14.7979 10.386C14.8154 10.3868 14.8327 10.3811 14.8462 10.3698C15.7863 9.57826 16.6 8.64786 17.2593 7.61074C17.3759 7.42798 17.4375 7.21561 17.4369 6.99886C17.4362 6.78211 17.3734 6.57009 17.2558 6.38801Z" fill="#A1A1AA"/>
<path d="M8.99972 3.62473C8.74692 3.62459 8.49491 3.65289 8.24844 3.7091C8.23599 3.71169 8.22447 3.7176 8.21512 3.72621C8.20576 3.73482 8.19891 3.74581 8.19531 3.758C8.1917 3.77019 8.19147 3.78313 8.19463 3.79545C8.1978 3.80776 8.20424 3.81899 8.21328 3.82793L12.1715 7.78512C12.1805 7.79416 12.1917 7.8006 12.204 7.80377C12.2163 7.80693 12.2293 7.8067 12.2415 7.80309C12.2536 7.79948 12.2646 7.79264 12.2732 7.78328C12.2819 7.77393 12.2878 7.76241 12.2903 7.74996C12.403 7.25568 12.4029 6.74236 12.29 6.24812C12.1771 5.75389 11.9543 5.29143 11.6382 4.89511C11.3221 4.49879 10.9207 4.17878 10.4639 3.95885C10.0071 3.73892 9.50669 3.62472 8.99972 3.62473Z" fill="#A1A1AA"/>
<path d="M5.82793 6.21434C5.81899 6.2053 5.80776 6.19885 5.79544 6.19569C5.78313 6.19252 5.77019 6.19276 5.758 6.19636C5.7458 6.19997 5.73482 6.20682 5.72621 6.21617C5.7176 6.22553 5.71168 6.23704 5.7091 6.24949C5.5816 6.80649 5.59761 7.38674 5.75563 7.93586C5.91364 8.48498 6.20849 8.98499 6.61253 9.38903C7.01657 9.79307 7.51658 10.0879 8.0657 10.2459C8.61482 10.4039 9.19507 10.42 9.75207 10.2925C9.76452 10.2899 9.77603 10.284 9.78539 10.2754C9.79474 10.2667 9.80159 10.2558 9.8052 10.2436C9.8088 10.2314 9.80904 10.2184 9.80587 10.2061C9.80271 10.1938 9.79626 10.1826 9.78722 10.1736L5.82793 6.21434Z" fill="#A1A1AA"/>
</svg>
