<svg width="20" height="17" viewBox="0 0 20 17" fill="none" xmlns="http://www.w3.org/2000/svg">
<path fill-rule="evenodd" clip-rule="evenodd" d="M13.5 1.5C13.0858 1.5 12.75 1.83579 12.75 2.25C12.75 2.66421 13.0858 3 13.5 3C13.9142 3 14.25 2.66421 14.25 2.25C14.25 1.83579 13.9142 1.5 13.5 1.5ZM11.378 1.5C11.6869 0.626106 12.5203 0 13.5 0C14.4797 0 15.3131 0.626106 15.622 1.5H18.75C19.1642 1.5 19.5 1.83579 19.5 2.25C19.5 2.66421 19.1642 3 18.75 3H15.622C15.3131 3.87389 14.4797 4.5 13.5 4.5C12.5203 4.5 11.6869 3.87389 11.378 3H0.75C0.335786 3 0 2.66421 0 2.25C0 1.83579 0.335786 1.5 0.75 1.5H11.378ZM6 7.5C5.58579 7.5 5.25 7.83579 5.25 8.25C5.25 8.66421 5.58579 9 6 9C6.41421 9 6.75 8.66421 6.75 8.25C6.75 7.83579 6.41421 7.5 6 7.5ZM3.87803 7.5C4.18691 6.62611 5.02034 6 6 6C6.97966 6 7.81309 6.62611 8.12197 7.5H18.75C19.1642 7.5 19.5 7.83579 19.5 8.25C19.5 8.66421 19.1642 9 18.75 9H8.12197C7.81309 9.87389 6.97966 10.5 6 10.5C5.02034 10.5 4.18691 9.87389 3.87803 9H0.75C0.335786 9 0 8.66421 0 8.25C0 7.83579 0.335786 7.5 0.75 7.5H3.87803ZM13.5 13.5C13.0858 13.5 12.75 13.8358 12.75 14.25C12.75 14.6642 13.0858 15 13.5 15C13.9142 15 14.25 14.6642 14.25 14.25C14.25 13.8358 13.9142 13.5 13.5 13.5ZM11.378 13.5C11.6869 12.6261 12.5203 12 13.5 12C14.4797 12 15.3131 12.6261 15.622 13.5H18.75C19.1642 13.5 19.5 13.8358 19.5 14.25C19.5 14.6642 19.1642 15 18.75 15H15.622C15.3131 15.8739 14.4797 16.5 13.5 16.5C12.5203 16.5 11.6869 15.8739 11.378 15H0.75C0.335786 15 0 14.6642 0 14.25C0 13.8358 0.335786 13.5 0.75 13.5H11.378Z" fill="#373737"/>
</svg>
