<svg width="25" height="24" viewBox="0 0 25 24" fill="none" xmlns="http://www.w3.org/2000/svg">
<path d="M9.63126 23.25C9.5797 23.25 9.52814 23.2453 9.48126 23.2359C9.25626 23.1984 9.05939 23.0719 8.92814 22.8844C8.79689 22.6969 8.74532 22.4672 8.78751 22.2422L10.1 15H5.00001C4.70939 15 4.44689 14.8359 4.32501 14.5734C4.19845 14.3109 4.23595 14.0016 4.41876 13.7766L14.6891 1.08281C14.8531 0.876563 15.1016 0.75 15.3688 0.75C15.4016 0.75 15.4438 0.75 15.4766 0.754688C15.7063 0.782813 15.9078 0.9 16.0531 1.08281C16.1938 1.26562 16.2594 1.49063 16.2313 1.72031C16.2313 1.73438 16.2266 1.74844 16.2266 1.7625L14.9 9H20C20.2906 9 20.5531 9.16406 20.675 9.42656C20.8016 9.68906 20.7641 9.99844 20.5813 10.2234L10.3109 22.9219C10.1469 23.1281 9.89376 23.25 9.63126 23.25ZM6.57032 13.5H11C11.2203 13.5 11.4313 13.5984 11.5766 13.7672C11.7172 13.9359 11.7781 14.1609 11.7406 14.3812L10.7094 20.0391L18.4297 10.5H14C13.7797 10.5 13.5688 10.4016 13.4234 10.2281C13.2828 10.0594 13.2219 9.82969 13.2594 9.61406L14.2953 3.95156L6.57032 13.5Z" fill="#EF6820"/>
</svg>
