<svg width="16" height="16" viewBox="0 0 16 16" fill="none" xmlns="http://www.w3.org/2000/svg">
<path d="M12.5437 14.0844C11.2198 15.2562 9.50244 16 7.63291 16C4.85103 16 2.40903 14.3937 1.08521 12.05L1.58082 9.65556L3.77764 9.22812C4.2875 10.9531 5.826 12.2187 7.63291 12.2187C8.50949 12.2187 9.32351 11.9281 9.99438 11.4125L12.1054 11.75L12.5437 14.0844Z" fill="#59C36A"/>
<path d="M12.5438 14.0844L12.1055 11.75L9.99453 11.4125C9.32365 11.9281 8.50963 12.2188 7.63306 12.2188V16C9.50258 16 11.22 15.2563 12.5438 14.0844Z" fill="#00A66C"/>
<path d="M3.6078 7.99998C3.6078 8.4312 3.67041 8.8437 3.77775 9.22811L1.08532 12.05C0.41445 10.8687 0 9.4812 0 7.99998C0 6.5187 0.41445 5.13123 1.08532 3.94998L3.24621 4.33976L3.77775 6.77186C3.67041 7.1562 3.6078 7.5687 3.6078 7.99998Z" fill="#FFDA2D"/>
<path d="M15.2661 8C15.2661 10.4375 14.1897 12.6219 12.5438 14.0844L9.99451 11.4125C10.5133 11.0187 10.9516 10.4937 11.2379 9.875H7.63304C7.38255 9.875 7.18579 9.66872 7.18579 9.40625V6.59375C7.18579 6.33122 7.38255 6.125 7.63304 6.125H14.6936C14.9083 6.125 15.0961 6.28434 15.1319 6.50934C15.2213 6.99687 15.2661 7.50309 15.2661 8Z" fill="#4086F4"/>
<path d="M11.2379 9.875C10.9517 10.4937 10.5133 11.0187 9.99455 11.4125L12.5438 14.0844C14.1897 12.6219 15.2661 10.4375 15.2661 8C15.2661 7.50309 15.2214 6.99687 15.1319 6.50934C15.0961 6.28434 14.9083 6.125 14.6936 6.125H7.63306V9.875H11.2379Z" fill="#376AED"/>
<path d="M12.6689 2.23434C12.6779 2.36559 12.6242 2.4875 12.5437 2.58122L10.6295 4.57809C10.4774 4.74684 10.227 4.76559 10.0481 4.62497C9.34137 4.07187 8.50949 3.78125 7.63291 3.78125C5.826 3.78125 4.2875 5.04684 3.77764 6.77187L1.08521 3.95C2.40903 1.60625 4.85103 0 7.63291 0C9.41296 0 11.1483 0.6875 12.5079 1.88747C12.6063 1.97187 12.66 2.10309 12.6689 2.23434Z" fill="#FF7F23"/>
<path d="M10.0482 4.62497C10.2271 4.76563 10.4775 4.74684 10.6296 4.57809L12.5438 2.58122C12.6243 2.4875 12.678 2.36563 12.669 2.23434C12.6601 2.10306 12.6064 1.97188 12.508 1.88747C11.1484 0.6875 9.4131 0 7.63306 0V3.78125C8.50963 3.78125 9.34152 4.07188 10.0482 4.62497Z" fill="#F03800"/>
</svg>
