<svg width="24" height="24" viewBox="0 0 24 24" fill="none" xmlns="http://www.w3.org/2000/svg">
<path fill-rule="evenodd" clip-rule="evenodd" d="M13.0393 1.90516L15.75 4.49998V2.99967C15.75 2.58546 16.0858 2.24967 16.5 2.24967H18.75C19.1642 2.24967 19.5 2.58546 19.5 2.99967V8.08968L23.0186 11.4579C23.3178 11.7443 23.3282 12.2191 23.0418 12.5183C22.7554 12.8175 22.2806 12.8279 21.9814 12.5415L21 11.602V20.9997C21 21.3975 20.842 21.779 20.5607 22.0603C20.2794 22.3416 19.8978 22.4997 19.5 22.4997H15C14.5858 22.4997 14.25 22.1639 14.25 21.7497V15.3747C14.25 15.2752 14.2105 15.1798 14.1402 15.1095C14.0698 15.0392 13.9745 14.9997 13.875 14.9997H10.125C10.0255 14.9997 9.93016 15.0392 9.85984 15.1095C9.78951 15.1798 9.75 15.2752 9.75 15.3747V21.7497C9.75 22.1639 9.41422 22.4997 9 22.4997H4.5C4.10218 22.4997 3.72065 22.3416 3.43934 22.0603C3.15804 21.779 3 21.3975 3 20.9997V11.602L2.01862 12.5415C1.71941 12.8279 1.24465 12.8175 0.958217 12.5183C0.67179 12.2191 0.682159 11.7443 0.981378 11.4579L10.9613 1.90454C11.2673 1.59437 11.6842 1.49992 12.0029 1.50049C12.3203 1.50106 12.7358 1.59629 13.0393 1.90516ZM4.5 10.1662V20.9997H8.25V15.3747C8.25 14.8774 8.44755 14.4005 8.79918 14.0488C9.1508 13.6972 9.62772 13.4997 10.125 13.4997H13.875C14.3723 13.4997 14.8492 13.6972 15.2008 14.0488C15.5525 14.4005 15.75 14.8774 15.75 15.3747V20.9997H19.5V10.1662L12.015 3.00114C12.0105 3.00074 12.0055 3.0005 12.0002 3.00049C11.9948 3.00048 11.9897 3.00072 11.985 3.00113L4.5 10.1662ZM18 6.6538V3.74967H17.25V5.93586L18 6.6538Z" fill="#ABABAB"/>
</svg>
