<svg width="19" height="20" viewBox="0 0 19 20" fill="none" xmlns="http://www.w3.org/2000/svg">
<path fill-rule="evenodd" clip-rule="evenodd" d="M5.17599 4.3407C9.71942 -0.202906 15.2127 -1.38127 17.4029 1.72826C19.5931 4.8378 17.6758 11.0712 13.1323 15.6166C8.58888 20.162 3.09387 21.3385 0.905439 18.229C-1.28299 15.1195 0.632549 8.89145 5.17599 4.3407Z" fill="#F99D27"/>
<path fill-rule="evenodd" clip-rule="evenodd" d="M8.18316 1.91759C7.65402 2.31517 7.15255 2.74891 6.68226 3.21577C2.70055 7.17287 1.04727 12.6123 3.00711 15.3285C5.02898 18.0482 9.92859 17.0594 13.9723 13.0415C16.1466 10.9082 17.6173 8.40488 18.2251 6.08748C18.4023 4.38698 18.1631 2.86887 17.3976 1.72805C15.6522 -0.682329 11.915 -0.496365 8.18316 1.90686" fill="#B02A30"/>
<path fill-rule="evenodd" clip-rule="evenodd" d="M10.4349 17.8587C8.30853 19.468 6.10947 20.269 3.96533 19.9347C4.86551 19.9812 5.59204 18.9744 6.18743 17.6208C6.72167 16.3701 7.14276 15.0732 7.44556 13.746C7.86907 11.8416 7.90097 10.4791 7.68655 10.1876C7.33215 9.70306 6.49399 9.83001 5.56014 10.3664C5.1136 10.6168 4.5182 10.4505 5.22169 9.59041C5.92518 8.73032 8.76571 6.63286 9.78284 6.30742C10.8992 5.98199 12.1751 6.42544 11.7445 7.66103C11.4379 8.55509 7.52176 18.9262 10.4367 17.8533L10.4349 17.8587ZM13.6387 1.77097C14.1703 2.30741 13.8461 3.47326 12.9441 4.39414C12.0422 5.31502 10.8496 5.62973 10.3375 5.10939C9.78993 4.57295 10.1142 3.39637 11.0233 2.46834C11.9323 1.5403 13.1249 1.25778 13.637 1.77634L13.6387 1.77097Z" fill="white"/>
</svg>
