<svg width="24" height="24" viewBox="0 0 24 24" fill="none" xmlns="http://www.w3.org/2000/svg">
<g clip-path="url(#clip0_6111_2550)">
<path fill-rule="evenodd" clip-rule="evenodd" d="M2.99782 1.5L3 1.5H18L18.0022 1.5C18.7965 1.50231 19.5577 1.81889 20.1194 2.38059C20.6811 2.94229 20.9977 3.70346 21 4.49782L21 4.5V5.25H21.0942C22.699 5.25 24 6.55096 24 8.15578V18.8788C24.0001 18.8841 24.0001 18.8895 24 18.8948V19.5942C24 21.199 22.699 22.5 21.0942 22.5H6.65578C5.05096 22.5 3.75 21.199 3.75 19.5942V19.5H3L2.99782 19.5C2.20346 19.4977 1.44229 19.1811 0.880592 18.6194C0.318891 18.0577 0.00230996 17.2965 3.17395e-06 16.5022L0 16.5V4.5L3.17395e-06 4.49782C0.00230996 3.70346 0.318891 2.94229 0.880592 2.38059C1.44229 1.81889 2.20346 1.50231 2.99782 1.5ZM22.5 17.2925V8.15578C22.5 7.37939 21.8706 6.75 21.0942 6.75H6.65578C5.87939 6.75 5.25 7.37939 5.25 8.15578V16.5087L9.47974 12.7768L9.48027 12.7764C9.8983 12.4082 10.4404 12.2124 10.9972 12.2284C11.554 12.2443 12.084 12.4709 12.4802 12.8624L12.4811 12.8633L16.4033 16.7513L17.4632 15.6991L17.4649 15.6974C17.8528 15.3149 18.3685 15.0897 18.9127 15.0651C19.4568 15.0406 19.9908 15.2185 20.4114 15.5645L20.4131 15.5659L22.5 17.2925ZM15.3388 17.8081L11.426 13.9295L11.4257 13.9292C11.2997 13.8048 11.1312 13.7328 10.9542 13.7278C10.7771 13.7227 10.6047 13.7849 10.4718 13.9019L10.4716 13.9021L5.25 18.5091V19.5942C5.25 20.3706 5.87939 21 6.65578 21H12.1236L15.3388 17.8081ZM14.2527 21L18.5182 16.7654L18.5189 16.7647C18.6426 16.6431 18.8069 16.5714 18.9803 16.5636C19.1536 16.5558 19.3237 16.6124 19.4579 16.7224L19.4586 16.723L22.5 19.2393V19.5942C22.5 20.3706 21.8706 21 21.0942 21H14.2527ZM19.5 4.50128V5.25H6.65578C5.05096 5.25 3.75 6.55096 3.75 8.15578V18H3.00128C2.60356 17.9986 2.2225 17.84 1.94125 17.5587C1.66002 17.2775 1.50141 16.8965 1.5 16.4988V4.5012C1.50141 4.1035 1.66002 3.72248 1.94125 3.44125C2.22248 3.16002 2.6035 3.00141 3.0012 3H17.9988C18.3965 3.00141 18.7775 3.16002 19.0587 3.44125C19.34 3.72251 19.4986 4.10356 19.5 4.50128ZM16.7882 10.2956C16.7882 9.92401 17.0931 9.61359 17.4806 9.61359C17.868 9.61359 18.1729 9.92401 18.1729 10.2956C18.1729 10.6672 17.868 10.9776 17.4806 10.9776C17.0931 10.9776 16.7882 10.6672 16.7882 10.2956ZM17.4806 8.11359C16.2748 8.11359 15.2882 9.08545 15.2882 10.2956C15.2882 11.5058 16.2748 12.4776 17.4806 12.4776C18.6863 12.4776 19.6729 11.5058 19.6729 10.2956C19.6729 9.08545 18.6863 8.11359 17.4806 8.11359Z" fill="#EF6820"/>
</g>
<defs>
<clipPath id="clip0_6111_2550">
<rect width="24" height="24" fill="white"/>
</clipPath>
</defs>
</svg>
