<svg width="27" height="24" viewBox="0 0 27 24" fill="none" xmlns="http://www.w3.org/2000/svg">
<path fill-rule="evenodd" clip-rule="evenodd" d="M14.4623 13.2214C15.0729 13.893 15.5461 14.6776 15.8552 15.531L16.3673 14.9677L18.1853 16.7294C20.6485 14.4556 17.8575 10.9579 14.4418 13.2214H14.4623ZM10.222 12.4993L12.4855 13.8462L11.8198 14.4402L9.82258 14.3839C10.0018 17.3541 14.5749 17.4565 14.4316 13.2624C12.9923 13.3256 11.5573 13.0648 10.2323 12.4993H10.222ZM14.4213 13.1446L14.4674 13.2009C20.9456 3.78837 32.427 12.6376 23.0708 21.3127L24.8273 22.9566L24.2231 23.5506L16.1164 22.9002L15.932 18.532C14.3701 23.3355 5.17775 25.384 2.92448 15.7307L0.507324 16.2019L4.26107 9.85685L4.80392 9.26793L8.90079 11.7107C3.91285 7.85963 7.67685 -1.60414 18.2929 2.21619L18.5899 0.925682L19.1378 0.413574L23.2859 7.4397L22.6816 8.09007L14.8771 11.0245L15.7835 8.55609C12.4599 7.32703 11.0055 11.0808 14.3957 13.2572C14.3983 13.2197 14.3983 13.1821 14.3957 13.1446H14.4213Z" fill="white"/>
<path fill-rule="evenodd" clip-rule="evenodd" d="M13.9805 13.8666C20.7916 22.4393 5.50004 29.3015 2.4786 16.4271L0 16.8368L4.23513 9.84656L11.7939 14.4863L9.19233 14.9984C9.85295 18.2247 13.8372 17.7586 13.9703 13.841L13.9089 13.8769C1.93065 14.1124 4.4707 -1.92681 17.8419 2.83067L18.5076 1.0127L22.6045 8.06442L14.38 11.6492L15.3479 9.18594C11.9577 7.94664 10.5033 11.7106 13.8935 13.882C19.9415 4.01364 32.0426 13.2982 22.5993 21.9938L24.0537 23.5301L15.6449 23.5864L15.8549 15.6334L17.7343 17.4565C20.2539 15.1213 17.4065 11.6287 13.9908 13.8717L13.9805 13.8666Z" fill="#F4B035"/>
</svg>
