<svg width="22" height="20" viewBox="0 0 22 20" fill="none" xmlns="http://www.w3.org/2000/svg">
<path d="M10.6501 0.505859L15.6252 5.16156L15.1672 5.61902L10.6575 1.39863C9.19405 2.85584 7.71194 4.29462 6.24472 5.75183L5.76807 5.30913C7.03419 4.05851 8.30404 2.81896 9.56645 1.56834C9.93511 1.22525 10.2889 0.863707 10.6501 0.505859Z" fill="#013CC8"/>
<path d="M6.59521 6.02845C7.95816 4.68191 9.33228 3.35381 10.6915 2.01465C12.0818 3.30831 13.4708 4.60443 14.8585 5.90302L14.4005 6.36047C13.1679 5.20576 11.939 4.05474 10.699 2.90742L7.07187 6.47483L6.59521 6.02845Z" fill="#013CC8"/>
<path d="M7.38086 6.76994C8.47941 5.6927 9.58913 4.63024 10.684 3.54932C11.8011 4.57859 12.9183 5.61893 14.0355 6.6482C13.8791 6.79945 13.7264 6.95071 13.5737 7.10565C12.6167 6.21657 11.6522 5.33486 10.6989 4.44578C9.74554 5.36438 8.79967 6.29035 7.85007 7.21264C7.69367 7.06507 7.54099 6.91381 7.38086 6.76994Z" fill="#013CC8"/>
<path d="M14.1625 6.99866C14.736 6.46004 15.2797 5.89191 15.842 5.34961C17.4979 6.90643 19.1563 8.45955 20.8171 10.009L20.3628 10.4591C18.8583 9.05966 17.3576 7.65656 15.8606 6.24976C14.3711 7.68853 12.9113 9.14943 11.4329 10.5993C11.2765 10.448 11.1201 10.3004 10.96 10.1566C12.0287 9.10516 13.1012 8.05376 14.1625 6.99866Z" fill="#013CC8"/>
<path d="M3.09477 7.72912C3.83955 6.99129 4.58433 6.25346 5.32911 5.51562C6.98749 7.07245 8.64587 8.62558 10.3042 10.175L9.8462 10.6288L5.34028 6.41209C4.46144 7.27535 3.57516 8.13492 2.70004 8.99449C2.09677 9.56631 1.51957 10.1713 0.912574 10.7432C0.759894 10.5956 0.599763 10.4517 0.443359 10.3041C0.957257 9.79135 1.48233 9.28962 1.99623 8.77683C2.3649 8.44112 2.72238 8.0759 3.09477 7.72912Z" fill="#013CC8"/>
<path d="M11.7856 10.8687C13.1511 9.53319 14.5165 8.20018 15.8819 6.86963C16.0131 6.96962 16.1375 7.07807 16.2543 7.19428C17.5242 8.37849 18.7866 9.56639 20.0601 10.7469C19.9075 10.8982 19.7548 11.0531 19.5984 11.2044C18.3732 10.0497 17.1369 8.90603 15.908 7.75133C14.694 8.93678 13.48 10.1235 12.266 11.3114C12.0985 11.1675 11.942 11.0162 11.7856 10.8687Z" fill="#013CC8"/>
<path d="M5.38504 7.0249C6.77033 8.32717 8.16307 9.60731 9.55208 10.9206C9.39568 11.0682 9.24673 11.2232 9.09032 11.3707L5.3925 7.92137C4.18223 9.10928 2.96451 10.2898 1.75052 11.4777C1.60157 11.3265 1.42654 11.1973 1.29248 11.0313C2.27931 10.0353 3.29966 9.07608 4.29394 8.08C4.66261 7.7406 5.01265 7.37168 5.38504 7.0249Z" fill="#013CC8"/>
<path d="M13.9156 10.308L15.8818 8.39697C16.999 9.42993 18.1162 10.4703 19.2333 11.5032C19.0769 11.6508 18.9168 11.7984 18.7641 11.9496C17.8108 11.0605 16.8463 10.1788 15.893 9.28975C14.9397 10.2083 13.9975 11.1343 13.0479 12.0529C12.8841 11.909 12.7277 11.7578 12.5713 11.6065C13.0293 11.186 13.465 10.7359 13.9156 10.308Z" fill="#013CC8"/>
<path d="M2.0625 11.7836C3.16105 10.7064 4.27449 9.64391 5.3656 8.56299C6.48276 9.58857 7.59993 10.6326 8.7171 11.6619C8.56815 11.8168 8.41174 11.9681 8.25906 12.1193C7.29829 11.229 6.33629 10.3412 5.37304 9.45576C4.43834 10.3891 3.47758 11.3003 2.53916 12.2226L2.0625 11.7836Z" fill="#013CC8"/>
<path d="M0 10.7651C1.80237 12.3367 3.61218 13.9083 5.41082 15.4836C7.07168 13.9661 8.72882 12.4498 10.3822 10.9348C10.3636 11.2263 10.4083 11.5177 10.3822 11.8092L5.40709 16.3468C3.63824 14.8011 1.87685 13.2442 0.107996 11.6948C0.0670333 11.6505 0.00372344 11.6099 0.0111712 11.5435C0.0223429 11.2705 0.00744779 11.0234 0 10.7651Z" fill="#013CC8"/>
<path d="M10.8955 10.8389C12.6867 12.3957 14.5002 13.9341 16.3026 15.4798C17.9088 13.9402 19.5126 12.3994 21.1139 10.8573C21.1139 11.1488 21.1362 11.4402 21.1437 11.728C19.5461 13.2774 17.9299 14.8047 16.3249 16.3505C14.53 14.7899 12.7277 13.2405 10.929 11.6837C10.9178 11.4033 10.9141 11.1229 10.8955 10.8389Z" fill="#013CC8"/>
<path d="M16.3771 17.1733C17.9933 15.5796 19.5871 13.96 21.1847 12.3516C21.1847 12.6282 21.1847 12.9049 21.2107 13.1853C19.6095 14.8036 18.0094 16.4219 16.4106 18.0402L11.0073 13.355C11.0073 13.0525 10.9738 12.7463 10.9663 12.4438L16.3771 17.1733Z" fill="#013CC8"/>
<path d="M0.0522461 12.3442C1.85461 13.9478 3.65946 15.5464 5.46679 17.1401C7.13137 15.5686 8.77361 13.9748 10.4233 12.3922C10.4233 12.6615 10.4643 12.9308 10.4233 13.2001C10.297 13.3498 10.1588 13.4892 10.0099 13.617C8.50177 15.0926 6.97497 16.5388 5.46679 18.0108L0.469326 13.5838C0.3262 13.4695 0.190616 13.3463 0.0634173 13.2149C0.074589 12.9456 0.05597 12.6431 0.0522461 12.3442Z" fill="#013CC8"/>
<path d="M16.4562 18.6266C18.0575 17.0132 19.6551 15.3962 21.2489 13.7754C21.2712 14.0656 21.2861 14.357 21.2936 14.6497L16.4786 19.4862C14.6837 17.9478 12.8813 16.4205 11.0827 14.8858C11.0529 14.5907 11.0603 14.2992 11.0454 14.0041C12.8478 15.5499 14.6576 17.0809 16.4562 18.6266Z" fill="#013CC8"/>
<path d="M5.51123 18.6231C7.17581 17.0442 8.81805 15.4431 10.464 13.8457C10.4864 14.1408 10.4975 14.436 10.4938 14.7311C8.8379 16.3174 7.18201 17.905 5.52612 19.4938L0.126465 14.8086C0.126465 14.5134 0.126465 14.2183 0.126465 13.9269C0.841453 14.5688 1.57506 15.1885 2.30122 15.8194L5.51123 18.6231Z" fill="#013CC8"/>
</svg>
