<svg width="19" height="19" viewBox="0 0 19 19" fill="none" xmlns="http://www.w3.org/2000/svg">
<path fill-rule="evenodd" clip-rule="evenodd" d="M3.42188 4.4375C2.95588 4.4375 2.57812 4.81526 2.57812 5.28125V13.7188C2.57812 14.1847 2.95588 14.5625 3.42188 14.5625H15.2344C15.7004 14.5625 16.0781 14.1847 16.0781 13.7188V5.28125C16.0781 4.81526 15.7004 4.4375 15.2344 4.4375H3.42188ZM1.45312 5.28125C1.45312 4.19394 2.33456 3.3125 3.42188 3.3125H15.2344C16.3217 3.3125 17.2031 4.19394 17.2031 5.28125V13.7188C17.2031 14.8061 16.3217 15.6875 15.2344 15.6875H3.42188C2.33456 15.6875 1.45312 14.8061 1.45312 13.7188V5.28125Z" fill="#9CA3AF"/>
<path fill-rule="evenodd" clip-rule="evenodd" d="M3.82161 5.77966C4.01234 5.53444 4.36575 5.49026 4.61097 5.68099L9.32812 9.34989L14.0453 5.68099C14.2905 5.49026 14.6439 5.53444 14.8346 5.77966C15.0254 6.02488 14.9812 6.37828 14.736 6.56901L9.67347 10.5065C9.47034 10.6645 9.18591 10.6645 8.98278 10.5065L3.92028 6.56901C3.67506 6.37828 3.63089 6.02488 3.82161 5.77966Z" fill="#9CA3AF"/>
</svg>
