<svg width="16" height="16" viewBox="0 0 16 16" fill="none" xmlns="http://www.w3.org/2000/svg">
<path d="M14.5 11H10C9.86739 11 9.74021 11.0527 9.64645 11.1464C9.55268 11.2402 9.5 11.3674 9.5 11.5C9.5 11.8978 9.34196 12.2794 9.06066 12.5607C8.77936 12.842 8.39782 13 8 13C7.60218 13 7.22064 12.842 6.93934 12.5607C6.65804 12.2794 6.5 11.8978 6.5 11.5C6.5 11.3674 6.44732 11.2402 6.35355 11.1464C6.25979 11.0527 6.13261 11 6 11H1.5C1.36739 11 1.24021 11.0527 1.14645 11.1464C1.05268 11.2402 1 11.3674 1 11.5V13.5C1.00058 14.0303 1.21148 14.5386 1.58643 14.9136C1.96137 15.2885 2.46974 15.4994 3 15.5H13C13.5303 15.4994 14.0386 15.2885 14.4136 14.9136C14.7885 14.5386 14.9994 14.0303 15 13.5V11.5C15 11.3674 14.9473 11.2402 14.8536 11.1464C14.7598 11.0527 14.6326 11 14.5 11Z" fill="#FD6905"/>
<path d="M14.9831 5.87125L13.9878 2.13906C13.7897 1.11219 13.0481 0.5 12 0.5H4C3.475 0.5 3.03125 0.646563 2.68438 0.935625C2.3375 1.22469 2.11438 1.625 2.0125 2.1375L1.01688 5.87125C1.00564 5.91324 0.999969 5.95653 1 6V7.5C1 8.60281 1.89719 10 3 10H13C14.1028 10 15 8.60281 15 7.5V6C15 5.95653 14.9944 5.91324 14.9831 5.87125ZM13.7678 5.5H10C9.86816 5.49933 9.74145 5.55103 9.6477 5.64372C9.55395 5.73642 9.50083 5.86254 9.5 5.99438C9.5 6.3922 9.34196 6.77373 9.06066 7.05504C8.77936 7.33634 8.39782 7.49438 8 7.49438C7.60218 7.49438 7.22064 7.33634 6.93934 7.05504C6.65804 6.77373 6.5 6.3922 6.5 5.99438C6.49917 5.86254 6.44605 5.73642 6.3523 5.64372C6.25855 5.55103 6.13184 5.49933 6 5.5H2.23219C2.2226 5.49999 2.21314 5.49778 2.20454 5.49353C2.19594 5.48929 2.18844 5.48312 2.18261 5.4755C2.17678 5.46789 2.17277 5.45903 2.17091 5.44963C2.16905 5.44022 2.16938 5.43051 2.17188 5.42125L2.99094 2.34375C3.10188 1.76844 3.4225 1.5 4 1.5H12C12.5809 1.5 12.9012 1.76656 13.0078 2.33906L13.8281 5.42125C13.8306 5.43051 13.8309 5.44022 13.8291 5.44963C13.8272 5.45903 13.8232 5.46789 13.8174 5.4755C13.8116 5.48312 13.8041 5.48929 13.7955 5.49353C13.7869 5.49778 13.7774 5.49999 13.7678 5.5Z" fill="#FD6905"/>
</svg>
