<svg width="20" height="20" viewBox="0 0 20 20" fill="none" xmlns="http://www.w3.org/2000/svg">
<path fill-rule="evenodd" clip-rule="evenodd" d="M15.5892 7.33023C15.5892 8.37684 15.8659 8.99373 16.4746 9.70462C16.9359 10.2283 17.0834 10.9006 17.0834 11.63C17.0834 12.3585 16.844 13.0501 16.3645 13.6116C15.7367 14.2847 14.8513 14.7144 13.9477 14.7891C12.6383 14.9007 11.3281 14.9947 10.0004 14.9947C8.67197 14.9947 7.36256 14.9385 6.05315 14.7891C5.14873 14.7144 4.26337 14.2847 3.63641 13.6116C3.15687 13.0501 2.91669 12.3585 2.91669 11.63C2.91669 10.9006 3.06494 10.2283 3.52543 9.70462C4.15322 8.99373 4.41162 8.37684 4.41162 7.33023V6.97521C4.41162 5.57358 4.76113 4.65706 5.48085 3.75984C6.55091 2.45137 8.26615 1.66663 9.96317 1.66663H10.0377C11.7712 1.66663 13.5419 2.48914 14.5937 3.85385C15.2762 4.7326 15.5892 5.6105 15.5892 6.97521V7.33023ZM7.56142 16.7173C7.56142 16.2977 7.94654 16.1055 8.30267 16.0232C8.71926 15.9351 11.2578 15.9351 11.6743 16.0232C12.0305 16.1055 12.4156 16.2977 12.4156 16.7173C12.3949 17.1168 12.1605 17.471 11.8367 17.6959C11.4168 18.0233 10.924 18.2306 10.4088 18.3053C10.1239 18.3422 9.84398 18.343 9.56902 18.3053C9.05304 18.2306 8.56025 18.0233 8.14117 17.6951C7.81651 17.471 7.58212 17.1168 7.56142 16.7173Z" fill="#475467"/>
</svg>
