<svg width="24" height="25" viewBox="0 0 24 25" fill="none" xmlns="http://www.w3.org/2000/svg">
<rect y="0.5" width="24" height="24" rx="12" fill="#F79009"/>
<path fill-rule="evenodd" clip-rule="evenodd" d="M17.5996 10.5973L18.0798 11.0773C18.4599 11.4507 18.6667 11.9573 18.6667 12.4907C18.6733 13.024 18.4666 13.5313 18.0931 13.9107C18.0887 13.9155 18.0842 13.9198 18.0798 13.9241C18.0776 13.9263 18.0753 13.9284 18.0731 13.9307L17.5996 14.404C17.4129 14.5907 17.3062 14.844 17.3062 15.1113V15.7973C17.3062 16.904 16.4059 17.8047 15.2988 17.8047H14.6119C14.3451 17.8047 14.0917 17.9107 13.9049 18.0973L13.4248 18.5773C13.0313 18.9713 12.5178 19.164 12.0043 19.164C11.4907 19.164 10.9772 18.9713 10.5837 18.5847L10.0969 18.0973C9.91017 17.9107 9.65674 17.8047 9.38998 17.8047H8.70306C7.59599 17.8047 6.69567 16.904 6.69567 15.7973V15.1113C6.69567 14.844 6.58896 14.5907 6.40223 14.3973L5.92205 13.924C5.14177 13.1447 5.1351 11.8707 5.91538 11.0847L6.40223 10.5973C6.58896 10.4107 6.69567 10.1573 6.69567 9.88399V9.20399C6.69567 8.09733 7.59599 7.19799 8.70306 7.19799H9.38998C9.65674 7.19799 9.91017 7.09066 10.0969 6.90399L10.5771 6.42399C11.3574 5.63799 12.6312 5.63799 13.4181 6.41799L13.9049 6.90399C14.0917 7.09066 14.3451 7.19799 14.6119 7.19799H15.2988C16.4059 7.19799 17.3062 8.09733 17.3062 9.20399V9.89133C17.3062 10.1573 17.4129 10.4107 17.5996 10.5973ZM10.2836 14.7973C10.4437 14.7973 10.5904 14.7373 10.6971 14.624L14.125 11.198C14.3518 10.9713 14.3518 10.5973 14.125 10.3707C13.8983 10.1447 13.5315 10.1447 13.3047 10.3707L9.87682 13.7973C9.65007 14.024 9.65007 14.3973 9.87682 14.624C9.98353 14.7373 10.1302 14.7973 10.2836 14.7973ZM13.1313 14.2107C13.1313 14.5373 13.3914 14.7973 13.7182 14.7973C14.0383 14.7973 14.2984 14.5373 14.2984 14.2107C14.2984 13.8913 14.0383 13.6307 13.7182 13.6307C13.3914 13.6307 13.1313 13.8913 13.1313 14.2107ZM10.2903 10.204C10.6104 10.204 10.8705 10.464 10.8705 10.784C10.8705 11.1113 10.6104 11.3707 10.2903 11.3707C9.97019 11.3707 9.70342 11.1113 9.70342 10.784C9.70342 10.464 9.97019 10.204 10.2903 10.204Z" fill="white"/>
</svg>
