<svg width="240" height="240" viewBox="0 0 240 240" fill="none" xmlns="http://www.w3.org/2000/svg">
<path d="M240 120C240 186.273 186.274 240 120.001 240C53.7262 240 0 186.273 0 120C0 53.7249 53.7262 0 120.001 0C186.274 0 240 53.7249 240 120Z" fill="#CDEED6"/>
<path d="M61.3022 90.8877H62.9668C63.1966 90.8877 63.383 90.7012 63.383 90.4715C63.383 90.2418 63.1966 90.0553 62.9668 90.0553H61.3022C61.0724 90.0553 60.886 90.2418 60.886 90.4715C60.886 90.7012 61.0724 90.8877 61.3022 90.8877Z" fill="#292A64"/>
<path d="M62.9668 197.429H61.3022C61.0724 197.429 60.886 197.615 60.886 197.845C60.886 198.074 61.0724 198.261 61.3022 198.261H62.9668C63.1966 198.261 63.383 198.074 63.383 197.845C63.383 197.615 63.1966 197.429 62.9668 197.429Z" fill="#292A64"/>
<path d="M18.33 135.483H19.9946C19.993 131.958 17.138 129.103 13.6139 129.101C10.0881 129.103 7.23145 131.958 7.23145 135.483C7.23145 139.008 10.0881 141.864 13.6139 141.864C17.138 141.863 19.993 139.008 19.9946 135.483H18.33H16.6653C16.6619 137.168 15.2969 138.531 13.6139 138.535C11.9275 138.531 10.5642 137.168 10.5608 135.483C10.5642 133.797 11.9275 132.434 13.6139 132.43C15.2969 132.434 16.6619 133.797 16.6653 135.483H18.33Z" fill="#F25180"/>
<path d="M215.626 68.8986H216.285C216.285 67.5036 215.154 66.3733 213.759 66.3733C212.364 66.3733 211.236 67.5036 211.234 68.8986C211.236 70.292 212.364 71.4223 213.759 71.4223C215.154 71.4223 216.285 70.292 216.285 68.8986H215.626H214.968C214.966 69.5628 214.427 70.1039 213.759 70.1055C213.094 70.1039 212.553 69.5628 212.553 68.8986C212.553 68.2311 213.094 67.6917 213.759 67.6901C214.427 67.6917 214.966 68.2311 214.968 68.8986H215.626Z" fill="#F25180"/>
<path d="M45.0199 28.2817H34.9186C33.9997 28.2817 33.2539 29.0258 33.2539 29.9464C33.2539 30.8653 33.9997 31.6111 34.9186 31.6111H45.0199C45.9388 31.6111 46.6846 30.8653 46.6846 29.9464C46.6846 29.0258 45.9388 28.2817 45.0199 28.2817Z" fill="#EAAA08"/>
<path d="M186.695 219.354H176.597C175.678 219.354 174.932 220.1 174.932 221.019C174.932 221.938 175.678 222.684 176.597 222.684H186.695C187.616 222.684 188.36 221.938 188.36 221.019C188.36 220.1 187.616 219.354 186.695 219.354Z" fill="#F25180"/>
<path d="M169.221 158.536C169.077 157.932 168.996 157.304 168.984 156.658C169.022 156.615 169.045 156.558 169.045 156.496C169.045 156.434 169.022 156.378 168.984 156.334C168.996 155.69 169.078 155.063 169.221 154.459V158.536Z" fill="#B1C2E8"/>
<path d="M168.986 156.658C168.985 156.605 168.984 156.552 168.984 156.499C168.984 156.498 168.984 156.497 168.984 156.496C168.984 156.442 168.985 156.389 168.986 156.334C169.023 156.378 169.047 156.434 169.047 156.496C169.047 156.558 169.023 156.615 168.986 156.658Z" fill="#899FD9"/>
<path d="M168.985 156.496H165.834C165.725 156.299 165.624 156.098 165.529 155.892L169.03 152.39C169.156 152.808 169.223 153.249 169.223 153.707V154.459C169.08 155.063 168.998 155.69 168.986 156.334C168.985 156.388 168.985 156.442 168.985 156.496Z" fill="#899FD9"/>
<path d="M165.528 155.892C165.02 154.784 164.737 153.551 164.737 152.253C164.737 152.252 164.737 152.251 164.737 152.25C164.737 151.172 164.933 150.139 165.289 149.186C167.07 149.432 168.523 150.707 169.029 152.39L165.528 155.892Z" fill="#A0B7E4"/>
<path d="M169.226 159.893C167.806 159.098 166.629 157.919 165.838 156.496H168.988C168.988 156.497 168.988 156.498 168.988 156.499C168.988 157.201 169.071 157.883 169.226 158.536V159.893Z" fill="#899FD9"/>
<path d="M79.192 152.495H81.6663C81.8025 152.495 81.912 152.386 81.912 152.251C81.912 152.115 81.8025 152.005 81.6663 152.005H79.192C79.0568 152.005 78.9473 152.115 78.9473 152.251C78.9473 152.386 79.0568 152.495 79.192 152.495ZM84.1415 152.495H86.6158C86.751 152.495 86.8615 152.386 86.8615 152.251C86.8615 152.115 86.751 152.005 86.6158 152.005H84.1415C84.0063 152.005 83.8958 152.115 83.8958 152.251C83.8958 152.386 84.0063 152.495 84.1415 152.495ZM89.091 152.495H91.5653C91.7005 152.495 91.81 152.386 91.81 152.251C91.81 152.115 91.7005 152.005 91.5653 152.005H89.091C88.9548 152.005 88.8453 152.115 88.8453 152.251C88.8453 152.386 88.9548 152.495 89.091 152.495ZM94.0395 152.495H96.5148C96.65 152.495 96.7595 152.386 96.7595 152.251C96.7595 152.115 96.65 152.005 96.5148 152.005H94.0395C93.9043 152.005 93.7948 152.115 93.7948 152.251C93.7948 152.386 93.9043 152.495 94.0395 152.495ZM98.989 152.495H101.463C101.599 152.495 101.709 152.386 101.709 152.251C101.709 152.115 101.599 152.005 101.463 152.005H98.989C98.8538 152.005 98.7443 152.115 98.7443 152.251C98.7443 152.386 98.8538 152.495 98.989 152.495ZM103.939 152.495H106.413C106.548 152.495 106.658 152.386 106.658 152.251C106.658 152.115 106.548 152.005 106.413 152.005H103.939C103.803 152.005 103.693 152.115 103.693 152.251C103.693 152.386 103.803 152.495 103.939 152.495ZM108.888 152.495H111.362C111.498 152.495 111.607 152.386 111.607 152.251C111.607 152.115 111.498 152.005 111.362 152.005H108.888C108.752 152.005 108.642 152.115 108.642 152.251C108.642 152.386 108.752 152.495 108.888 152.495ZM113.837 152.495H116.312C116.447 152.495 116.557 152.386 116.557 152.251C116.557 152.115 116.447 152.005 116.312 152.005H113.837C113.701 152.005 113.592 152.115 113.592 152.251C113.592 152.386 113.701 152.495 113.837 152.495ZM118.786 152.495H121.26C121.396 152.495 121.506 152.386 121.506 152.251C121.506 152.115 121.396 152.005 121.26 152.005H118.786C118.651 152.005 118.541 152.115 118.541 152.251C118.541 152.386 118.651 152.495 118.786 152.495ZM123.736 152.495H126.21C126.345 152.495 126.456 152.386 126.456 152.251C126.456 152.115 126.345 152.005 126.21 152.005H123.736C123.6 152.005 123.49 152.115 123.49 152.251C123.49 152.386 123.6 152.495 123.736 152.495ZM128.684 152.495H131.159C131.295 152.495 131.404 152.386 131.404 152.251C131.404 152.115 131.295 152.005 131.159 152.005H128.684C128.549 152.005 128.439 152.115 128.439 152.251C128.439 152.386 128.549 152.495 128.684 152.495ZM133.634 152.495H136.109C136.244 152.495 136.354 152.386 136.354 152.251C136.354 152.115 136.244 152.005 136.109 152.005H133.634C133.498 152.005 133.389 152.115 133.389 152.251C133.389 152.386 133.498 152.495 133.634 152.495ZM138.583 152.495H141.057C141.193 152.495 141.303 152.386 141.303 152.251C141.303 152.115 141.193 152.005 141.057 152.005H138.583C138.448 152.005 138.338 152.115 138.338 152.251C138.338 152.386 138.448 152.495 138.583 152.495ZM143.533 152.495H146.007C146.142 152.495 146.252 152.386 146.252 152.251C146.252 152.115 146.142 152.005 146.007 152.005H143.533C143.397 152.005 143.287 152.115 143.287 152.251C143.287 152.386 143.397 152.495 143.533 152.495ZM148.481 152.495H150.956C151.092 152.495 151.201 152.386 151.201 152.251C151.201 152.115 151.092 152.005 150.956 152.005H148.481C148.346 152.005 148.236 152.115 148.236 152.251C148.236 152.386 148.346 152.495 148.481 152.495ZM153.431 152.495H155.906C156.041 152.495 156.151 152.386 156.151 152.251C156.151 152.115 156.041 152.005 155.906 152.005H153.431C153.295 152.005 153.186 152.115 153.186 152.251C153.186 152.386 153.295 152.495 153.431 152.495ZM158.38 152.495H160.854C160.99 152.495 161.1 152.386 161.1 152.251C161.1 152.115 160.99 152.005 160.854 152.005H158.38C158.245 152.005 158.134 152.115 158.134 152.251C158.134 152.386 158.245 152.495 158.38 152.495Z" fill="#313750"/>
<path d="M163.329 152.495H164.554C164.69 152.495 164.799 152.386 164.799 152.251C164.799 152.115 164.69 152.005 164.554 152.005H163.329C163.193 152.005 163.083 152.115 163.083 152.251C163.083 152.386 163.193 152.495 163.329 152.495Z" fill="#313750"/>
<path d="M75.7418 161.823C75.7418 157.87 71.8317 154.671 67 154.671V41.3082C67 37.2712 70.9976 34 75.9329 34H164.495C169.425 34 173.428 37.2712 173.428 41.3082V154.671C168.597 154.671 164.687 157.87 164.687 161.823C164.687 165.771 168.597 168.97 173.428 168.97V198.833C173.428 202.87 169.425 206.142 164.495 206.142H75.9329C70.9976 206.142 67 202.87 67 198.833V168.97C71.8317 168.97 75.7418 165.771 75.7418 161.823Z" fill="#FDFEFE"/>
<mask id="mask0_4126_2965" style="mask-type:luminance" maskUnits="userSpaceOnUse" x="67" y="34" width="107" height="173">
<path d="M75.7427 161.823C75.7427 157.87 71.8327 154.671 67.001 154.671V41.3082C67.001 37.2712 70.9985 34 75.9339 34H164.496C169.426 34 173.429 37.2712 173.429 41.3082V154.671C168.598 154.671 164.688 157.87 164.688 161.823C164.688 165.771 168.598 168.97 173.429 168.97V198.833C173.429 202.87 169.426 206.142 164.496 206.142H75.9339C70.9985 206.142 67.001 202.87 67.001 198.833V168.97C71.8327 168.97 75.7427 165.771 75.7427 161.823Z" fill="white"/>
</mask>
<g mask="url(#mask0_4126_2965)">
<path d="M94.9276 32.0097L89.6524 42.1714H85.9248L93.06 28.4213L94.9276 32.0097Z" fill="#5C5AB2"/>
<path d="M88.0028 31.5883L82.7276 41.75H79L86.1352 27.9999L88.0028 31.5883Z" fill="#5C5AB2"/>
<path d="M80.0028 31.5884L74.7276 41.7501H71L78.1352 28L80.0028 31.5884Z" fill="#5C5AB2"/>
<path d="M102.271 32.0097L96.9952 42.1714H93.2686L100.408 28.4213L102.271 32.0097Z" fill="#5C5AB2"/>
<path d="M109.618 32.0097L104.343 42.1714H100.615L107.754 28.4213L109.618 32.0097Z" fill="#5C5AB2"/>
<path d="M116.968 32.0097L111.692 42.1714H107.965L115.105 28.4213L116.968 32.0097Z" fill="#5C5AB2"/>
<path d="M124.313 32.0097L119.038 42.1714H115.311L122.446 28.4213L124.313 32.0097Z" fill="#5C5AB2"/>
<path d="M131.658 32.0097L126.387 42.1714H122.655L129.795 28.4213L131.658 32.0097Z" fill="#5C5AB2"/>
<path d="M139.006 32.0097L133.731 42.1714H130.003L137.143 28.4213L139.006 32.0097Z" fill="#5C5AB2"/>
<path d="M146.354 32.0097L141.079 42.1714H137.352L144.492 28.4213L146.354 32.0097Z" fill="#5C5AB2"/>
<path d="M153.701 32.0097L148.426 42.1714H144.699L151.838 28.4213L153.701 32.0097Z" fill="#5C5AB2"/>
<path d="M161.045 32.0097L155.773 42.1714H152.042L159.182 28.4213L161.045 32.0097Z" fill="#5C5AB2"/>
<path d="M168.392 32.0097L163.117 42.1714H159.39L166.53 28.4213L168.392 32.0097Z" fill="#5C5AB2"/>
<path d="M175.74 32.0097L170.465 42.1714H166.738L173.877 28.4213L175.74 32.0097Z" fill="#5C5AB2"/>
<path d="M64.3604 218.59H177.185V146.013H64.3604V218.59Z" fill="#313750"/>
<path d="M118.574 166.279H77.6436V164.805H118.574V166.279Z" fill="white"/>
<path d="M77.6436 169.965H104.471V169.227H77.6436V169.965Z" fill="#9599A6"/>
<path d="M77.6436 172.175H99.4402V171.438H77.6436V172.175Z" fill="#9599A6"/>
<path d="M77.6436 174.385H102.27V173.649H77.6436V174.385Z" fill="#9599A6"/>
<path d="M77.6436 176.597H101.287V175.86H77.6436V176.597Z" fill="#9599A6"/>
<path d="M77.6436 178.807H99.8358V178.07H77.6436V178.807Z" fill="#9599A6"/>
<path d="M162.651 134.33H77.5371V132.856H162.651V134.33Z" fill="#313750"/>
<path d="M88.0469 138.015H152.142V137.278H88.0469V138.015Z" fill="#A5A7B1"/>
<path d="M94.0576 140.226H146.133V139.489H94.0576V140.226Z" fill="#A5A7B1"/>
<path d="M90.6787 142.436H149.512V141.7H90.6787V142.436Z" fill="#A5A7B1"/>
<path d="M118.574 186.177H77.6436V184.703H118.574V186.177Z" fill="white"/>
<path d="M77.6436 189.862H104.471V189.125H77.6436V189.862Z" fill="#9599A6"/>
<path d="M77.6436 192.072H99.4402V191.336H77.6436V192.072Z" fill="#9599A6"/>
<path d="M77.6436 194.283H102.27V193.546H77.6436V194.283Z" fill="#9599A6"/>
<path d="M133.067 171.438V165.543H140.437V172.912H138.963H137.489H136.016H134.541H133.067V171.438ZM134.541 174.385H141.911V164.068H131.594V165.543V167.016V168.49V169.965V171.438V172.912V174.385H133.067H134.541Z" fill="#FDFEFE"/>
<path d="M134.541 175.86H131.594V178.808H133.067V180.282H131.594V181.755H133.067H134.541V180.282V178.808V177.334H136.016V175.86H134.541Z" fill="#FDFEFE"/>
<path d="M136.015 183.229V181.755H134.541V183.229H136.015Z" fill="#FDFEFE"/>
<path d="M137.489 171.438H138.963V167.016H134.541V168.49V169.965V171.438H136.015H137.489Z" fill="#FDFEFE"/>
<path d="M136.016 178.807H137.489V177.334H136.016V178.807Z" fill="#FDFEFE"/>
<path d="M136.015 187.651H134.541V192.072H138.963V190.599V189.125V187.651H137.489H136.015Z" fill="#FDFEFE"/>
<path d="M140.437 187.651V193.546H133.067V186.177H134.541H136.016H137.489H138.963H140.437V187.651ZM138.963 184.703H131.594V195.02H141.911V193.546V192.072V190.599V189.124V187.651V186.177V184.703H140.437H138.963Z" fill="#FDFEFE"/>
<path d="M141.913 178.807H140.438V180.282H141.913V178.807Z" fill="#FDFEFE"/>
<path d="M143.385 177.334H144.859V180.282H146.333V178.807H147.806V177.334H149.281V175.86H150.755V174.386V172.912V171.438V169.965H149.281V171.438V172.912V174.386H147.806V175.86H146.333V174.386H144.859V172.912H143.385V174.386V175.86H141.911H140.437H138.964H137.489V177.334H138.964H140.437H141.911V178.807H143.385V177.334Z" fill="#FDFEFE"/>
<path d="M144.859 181.755V180.282H141.911V181.755H140.437V180.282H138.964H137.489V181.755V183.229H138.964H140.437H141.911H143.385V181.755H144.859Z" fill="#FDFEFE"/>
<path d="M146.333 171.438H147.806V169.965H146.333V171.438Z" fill="#FDFEFE"/>
<path d="M147.806 172.912H146.333V174.385H147.806V172.912Z" fill="#FDFEFE"/>
<path d="M146.334 193.546H144.86V190.599H143.387V192.072V193.546V195.02H144.86H146.334H147.808V193.546V192.072H146.334V193.546Z" fill="#FDFEFE"/>
<path d="M150.756 168.49V167.016H149.282V165.543H150.756V164.068H149.282H147.808V165.543H146.334V164.068H144.86V165.543V167.016H143.387V168.49H144.86V169.965H146.334V168.49V167.016H147.808V168.49V169.965H149.282V168.49H150.756Z" fill="#FDFEFE"/>
<path d="M149.28 180.282H150.755V178.807H149.28V180.282Z" fill="#FDFEFE"/>
<path d="M150.755 181.755H149.28V183.229H150.755V181.755Z" fill="#FDFEFE"/>
<path d="M149.28 192.072H150.755V190.599H149.28V192.072Z" fill="#FDFEFE"/>
<path d="M149.28 195.02H150.755V193.546H149.28V195.02Z" fill="#FDFEFE"/>
<path d="M152.228 177.334V178.807H153.702V175.86H152.228H150.755V177.334H152.228Z" fill="#FDFEFE"/>
<path d="M153.706 181.755V180.282H152.231V183.229H153.706V181.755Z" fill="#FDFEFE"/>
<path d="M152.231 193.546V195.02H153.706V192.072H152.231V193.546Z" fill="#FDFEFE"/>
<path d="M155.178 178.807V180.282H156.652V178.807H155.178Z" fill="#FDFEFE"/>
<path d="M156.652 181.755H155.178V183.229H156.652V181.755Z" fill="#FDFEFE"/>
<path d="M155.178 192.072H156.652V190.599H155.178V192.072Z" fill="#FDFEFE"/>
<path d="M155.178 195.02H156.652V193.546H155.178V195.02Z" fill="#FDFEFE"/>
<path d="M156.652 167.016H155.178V171.438H159.6V169.965V168.49V167.016H158.126H156.652Z" fill="#FDFEFE"/>
<path d="M158.124 180.282H156.649V181.755H158.124V180.282Z" fill="#FDFEFE"/>
<path d="M152.229 187.651V186.177H153.704V187.651H152.229ZM156.651 186.177H155.177V183.229H153.704V184.704H152.229V183.229H150.756V184.704V186.177H149.282V184.704V183.229H147.808V181.755V180.282H146.334V181.755H144.86V183.229H143.387V184.704V186.177V187.651V189.125H144.86V187.651H146.334V186.177H147.808V187.651H146.334V189.125H147.808H149.282V187.651H150.756V189.125H152.229V190.599H153.704V189.125H155.177V187.651H156.651H158.126V186.177H156.651Z" fill="#FDFEFE"/>
<path d="M159.597 187.651H158.124V190.599H161.072V189.125H159.597V187.651Z" fill="#FDFEFE"/>
<path d="M158.124 192.072V195.02H162.545V193.546H161.072V192.072H159.597H158.124Z" fill="#FDFEFE"/>
<path d="M159.597 177.334V175.86H158.124V178.807H159.597H161.072V180.282H159.597V181.755V183.229H158.124V184.704H159.597H161.072V186.177V187.651V189.124H162.545V187.651V186.177V184.704V183.229H161.072V181.755H162.545V180.282V178.807V177.334H161.072H159.597Z" fill="#FDFEFE"/>
<path d="M161.075 167.016V172.912H153.706V165.543H155.179H156.653H158.128H159.601H161.075V167.016ZM161.075 164.068H152.231V174.385H162.549V172.912V171.438V169.965V168.49V167.016V165.543V164.068H161.075Z" fill="#FDFEFE"/>
<path d="M162.545 192.072V190.599H161.071V192.072H162.545Z" fill="#FDFEFE"/>
<path d="M92.4137 127.763H89.2852V108.062H92.4137V127.763Z" fill="#313750"/>
<path d="M94.846 127.763H93.2812V108.062H94.846V127.763Z" fill="#313750"/>
<path d="M96.8649 127.763H96.082V108.062H96.8649V127.763Z" fill="#313750"/>
<path d="M101.94 127.763H98.8115V108.062H101.94V127.763Z" fill="#313750"/>
<path d="M104.373 127.763H102.809V108.062H104.373V127.763Z" fill="#313750"/>
<path d="M106.391 127.763H105.609V108.062H106.391V127.763Z" fill="#313750"/>
<path d="M116.033 127.763H112.904V108.062H116.033V127.763Z" fill="#313750"/>
<path d="M118.465 127.763H116.901V108.062H118.465V127.763Z" fill="#313750"/>
<path d="M120.486 127.763H119.703V108.062H120.486V127.763Z" fill="#313750"/>
<path d="M107.964 127.763H107.181V108.062H107.964V127.763Z" fill="#313750"/>
<path d="M109.538 127.763H108.756V108.062H109.538V127.763Z" fill="#313750"/>
<path d="M111.109 127.763H110.327V108.062H111.109V127.763Z" fill="#313750"/>
<path d="M122.832 127.763H119.703V108.062H122.832V127.763Z" fill="#313750"/>
<path d="M125.263 127.763H123.698V108.062H125.263V127.763Z" fill="#313750"/>
<path d="M127.283 127.763H126.501V108.062H127.283V127.763Z" fill="#313750"/>
<path d="M136.928 127.763H133.8V108.062H136.928V127.763Z" fill="#313750"/>
<path d="M139.36 127.763H137.796V108.062H139.36V127.763Z" fill="#313750"/>
<path d="M141.38 127.763H140.597L140.598 108.062H141.38V127.763Z" fill="#313750"/>
<path d="M128.856 127.763H128.073V108.062H128.856V127.763Z" fill="#313750"/>
<path d="M130.426 127.763H129.645V108.062H130.426V127.763Z" fill="#313750"/>
<path d="M132.001 127.763H131.219V108.062H132.001V127.763Z" fill="#313750"/>
<path d="M146.453 127.763H143.323V108.062H146.453V127.763Z" fill="#313750"/>
<path d="M148.886 127.763H147.321V108.062H148.886V127.763Z" fill="#313750"/>
<path d="M150.905 127.763H150.123V108.062H150.905V127.763Z" fill="#313750"/>
<path d="M160.548 127.763H157.419V108.062H160.548V127.763Z" fill="#313750"/>
<path d="M162.98 127.763H161.416V108.062H162.98V127.763Z" fill="#313750"/>
<path d="M165 127.763H164.218V108.062H165V127.763Z" fill="#313750"/>
<path d="M152.479 127.763H151.696V108.062H152.479V127.763Z" fill="#313750"/>
<path d="M154.049 127.763H153.268V108.062H154.049V127.763Z" fill="#313750"/>
<path d="M155.624 127.763H154.841V108.062H155.624V127.763Z" fill="#313750"/>
<path d="M91.9587 96.8566L90.3139 99.7014H87.7559L89.4006 96.8566H91.9587Z" fill="#5C5AB2"/>
<path d="M96.9902 96.8566L95.3455 99.7014H92.7979L94.4426 96.8566H96.9902Z" fill="#5C5AB2"/>
<path d="M102.033 96.8566L100.387 99.7014H97.8291L99.4748 96.8566H102.033Z" fill="#5C5AB2"/>
<path d="M107.076 96.8566L105.43 99.7014H102.872L104.518 96.8566H107.076Z" fill="#5C5AB2"/>
<path d="M112.117 96.8566L110.471 99.7014H107.913L109.559 96.8566H112.117Z" fill="#5C5AB2"/>
<path d="M117.16 96.8566L115.515 99.7014H112.957L114.602 96.8566H117.16Z" fill="#5C5AB2"/>
<path d="M122.202 96.8566L120.557 99.7014H117.999L119.644 96.8566H122.202Z" fill="#5C5AB2"/>
<path d="M127.243 96.8566L125.597 99.7014H123.039L124.685 96.8566H127.243Z" fill="#5C5AB2"/>
<path d="M132.286 96.8566L130.64 99.7014H128.082L129.728 96.8566H132.286Z" fill="#5C5AB2"/>
<path d="M137.317 96.8566L135.671 99.7014H133.113L134.759 96.8566H137.317Z" fill="#5C5AB2"/>
<path d="M142.359 96.8566L140.714 99.7014H138.155L139.801 96.8566H142.359Z" fill="#5C5AB2"/>
<path d="M147.401 96.8566L145.756 99.7014H143.198L144.843 96.8566H147.401Z" fill="#5C5AB2"/>
<path d="M152.444 96.8566L150.798 99.7014H148.24L149.886 96.8566H152.444Z" fill="#5C5AB2"/>
<path d="M157.487 96.8566L155.841 99.7014H153.283L154.929 96.8566H157.487Z" fill="#5C5AB2"/>
<path d="M162.518 96.8566L160.872 99.7014H158.324L159.97 96.8566H162.518Z" fill="#5C5AB2"/>
<path d="M167.559 96.8566L165.914 99.7014H163.355L165.001 96.8566H167.559Z" fill="#5C5AB2"/>
</g>
<path d="M87.6436 81V72.84H90.1276C90.7356 72.84 91.2156 72.928 91.5676 73.104C91.9276 73.28 92.1836 73.528 92.3356 73.848C92.4956 74.168 92.5756 74.544 92.5756 74.976V75.312C92.5756 75.944 92.3036 76.428 91.7596 76.764C92.1436 76.916 92.4356 77.136 92.6356 77.424C92.8356 77.712 92.9356 78.056 92.9356 78.456V78.792C92.9356 79.232 92.8556 79.62 92.6956 79.956C92.5356 80.284 92.2716 80.54 91.9036 80.724C91.5356 80.908 91.0436 81 90.4276 81H87.6436ZM90.1276 74.16H89.0836V76.2H90.1276C90.4476 76.2 90.6876 76.128 90.8476 75.984C91.0156 75.832 91.0996 75.628 91.0996 75.372V74.976C91.0996 74.72 91.0156 74.52 90.8476 74.376C90.6876 74.232 90.4476 74.16 90.1276 74.16ZM90.4276 77.52H89.0836V79.68H90.4276C90.7636 79.68 91.0196 79.6 91.1956 79.44C91.3716 79.28 91.4596 79.064 91.4596 78.792V78.396C91.4596 78.124 91.3716 77.912 91.1956 77.76C91.0196 77.6 90.7636 77.52 90.4276 77.52ZM99.4632 77.592V78.312C99.4632 79.16 99.2312 79.84 98.7672 80.352C98.3032 80.864 97.6472 81.12 96.7992 81.12C95.9512 81.12 95.2952 80.864 94.8312 80.352C94.3672 79.84 94.1352 79.16 94.1352 78.312V77.592C94.1352 76.744 94.3632 76.068 94.8192 75.564C95.2832 75.052 95.9432 74.796 96.7992 74.796C97.6552 74.796 98.3112 75.052 98.7672 75.564C99.2312 76.068 99.4632 76.744 99.4632 77.592ZM98.0472 77.592C98.0472 77.104 97.9392 76.724 97.7232 76.452C97.5072 76.172 97.1992 76.032 96.7992 76.032C96.3992 76.032 96.0912 76.172 95.8752 76.452C95.6592 76.724 95.5512 77.104 95.5512 77.592V78.312C95.5512 78.8 95.6592 79.184 95.8752 79.464C96.0912 79.744 96.3992 79.884 96.7992 79.884C97.1992 79.884 97.5072 79.744 97.7232 79.464C97.9392 79.184 98.0472 78.8 98.0472 78.312V77.592ZM105.619 81.06C105.211 81.06 104.883 80.976 104.635 80.808C104.395 80.64 104.219 80.432 104.107 80.184C103.763 80.504 103.431 80.74 103.111 80.892C102.791 81.044 102.447 81.12 102.079 81.12C101.543 81.12 101.147 80.948 100.891 80.604C100.643 80.26 100.519 79.824 100.519 79.296C100.519 78.944 100.583 78.636 100.711 78.372C100.847 78.1 101.067 77.888 101.371 77.736C101.675 77.584 102.091 77.508 102.619 77.508C102.827 77.508 103.043 77.524 103.267 77.556C103.491 77.58 103.715 77.612 103.939 77.652V76.944C103.939 76.608 103.847 76.38 103.663 76.26C103.479 76.132 103.231 76.068 102.919 76.068C102.679 76.068 102.415 76.1 102.127 76.164C101.847 76.228 101.543 76.328 101.215 76.464L100.819 75.288C101.627 74.96 102.359 74.796 103.015 74.796C103.607 74.796 104.063 74.896 104.383 75.096C104.711 75.296 104.939 75.56 105.067 75.888C105.195 76.216 105.259 76.568 105.259 76.944V79.284C105.259 79.404 105.291 79.52 105.355 79.632C105.427 79.736 105.563 79.788 105.763 79.788H105.895V81.06H105.619ZM101.851 79.272C101.851 79.488 101.899 79.66 101.995 79.788C102.091 79.908 102.231 79.968 102.415 79.968C102.599 79.968 102.807 79.92 103.039 79.824C103.271 79.728 103.571 79.504 103.939 79.152V78.636C103.523 78.564 103.115 78.528 102.715 78.528C102.403 78.528 102.179 78.592 102.043 78.72C101.915 78.848 101.851 79.032 101.851 79.272ZM110.525 76.176C110.149 76.176 109.789 76.236 109.445 76.356C109.109 76.468 108.785 76.652 108.473 76.908V81H107.093V74.916H108.401V75.852C108.809 75.468 109.173 75.196 109.493 75.036C109.813 74.876 110.157 74.796 110.525 74.796V76.176ZM115.297 81V80.172C114.929 80.54 114.609 80.792 114.337 80.928C114.073 81.056 113.797 81.12 113.509 81.12C112.853 81.12 112.341 80.872 111.973 80.376C111.613 79.88 111.433 79.184 111.433 78.288V77.64C111.433 76.768 111.653 76.076 112.093 75.564C112.533 75.052 113.169 74.796 114.001 74.796C114.209 74.796 114.413 74.816 114.613 74.856C114.821 74.896 115.025 74.952 115.225 75.024V72.12H116.605V81H115.297ZM112.849 78.288C112.849 78.824 112.937 79.216 113.113 79.464C113.297 79.712 113.553 79.836 113.881 79.836C114.065 79.836 114.261 79.784 114.469 79.68C114.677 79.568 114.929 79.36 115.225 79.056V76.272C114.833 76.112 114.473 76.032 114.145 76.032C113.681 76.032 113.349 76.176 113.149 76.464C112.949 76.752 112.849 77.144 112.849 77.64V78.288ZM119.923 73.764H118.471V72.336H119.923V73.764ZM119.887 81H118.507V74.916H119.887V81ZM124.764 76.08C124.564 76.08 124.336 76.128 124.08 76.224C123.824 76.32 123.52 76.508 123.168 76.788V81H121.788V74.916H123.096V75.732C123.472 75.404 123.828 75.168 124.164 75.024C124.5 74.872 124.84 74.796 125.184 74.796C125.768 74.796 126.212 74.984 126.516 75.36C126.82 75.728 126.972 76.248 126.972 76.92V81H125.592V77.088C125.592 76.416 125.316 76.08 124.764 76.08ZM133.848 81.612C133.848 82.26 133.592 82.764 133.08 83.124C132.576 83.492 131.872 83.676 130.968 83.676C130.544 83.676 130.096 83.628 129.624 83.532C129.152 83.436 128.716 83.276 128.316 83.052L128.712 81.96C129.096 82.152 129.476 82.288 129.852 82.368C130.228 82.456 130.596 82.5 130.956 82.5C131.46 82.5 131.844 82.432 132.108 82.296C132.372 82.16 132.504 81.98 132.504 81.756C132.504 81.412 132.3 81.24 131.892 81.24H130.452C130.06 81.24 129.744 81.176 129.504 81.048C129.264 80.92 129.088 80.756 128.976 80.556C128.864 80.348 128.808 80.132 128.808 79.908C128.808 79.676 128.856 79.46 128.952 79.26C129.056 79.052 129.196 78.86 129.372 78.684C129.084 78.508 128.852 78.272 128.676 77.976C128.508 77.68 128.424 77.324 128.424 76.908C128.424 76.436 128.524 76.044 128.724 75.732C128.924 75.42 129.196 75.188 129.54 75.036C129.892 74.876 130.28 74.796 130.704 74.796H130.908C131.068 74.796 131.224 74.808 131.376 74.832C131.528 74.848 131.672 74.876 131.808 74.916H133.98V76.092L132.78 75.9C132.9 76.028 132.992 76.188 133.056 76.38C133.128 76.564 133.164 76.792 133.164 77.064C133.164 77.472 133.06 77.824 132.852 78.12C132.652 78.408 132.38 78.632 132.036 78.792C131.7 78.944 131.324 79.02 130.908 79.02H130.704C130.544 79.02 130.392 79.008 130.248 78.984C130.16 79.08 130.096 79.18 130.056 79.284C130.016 79.38 129.996 79.472 129.996 79.56C129.996 79.84 130.176 79.98 130.536 79.98H132C132.552 79.98 132.996 80.124 133.332 80.412C133.676 80.692 133.848 81.092 133.848 81.612ZM130.908 77.892C131.156 77.892 131.372 77.808 131.556 77.64C131.748 77.472 131.844 77.228 131.844 76.908C131.844 76.588 131.748 76.344 131.556 76.176C131.372 76.008 131.156 75.924 130.908 75.924H130.704C130.448 75.924 130.224 76.008 130.032 76.176C129.848 76.344 129.756 76.588 129.756 76.908C129.756 77.228 129.848 77.472 130.032 77.64C130.224 77.808 130.448 77.892 130.704 77.892H130.908ZM137.753 81V72.84H140.441C141.297 72.84 141.937 73.056 142.361 73.488C142.793 73.92 143.009 74.496 143.009 75.216V75.852C143.009 76.572 142.793 77.152 142.361 77.592C141.937 78.024 141.297 78.24 140.441 78.24H139.193V81H137.753ZM140.441 74.22H139.193V76.86H140.441C140.793 76.86 141.061 76.772 141.245 76.596C141.437 76.42 141.533 76.172 141.533 75.852V75.216C141.533 74.904 141.437 74.66 141.245 74.484C141.061 74.308 140.793 74.22 140.441 74.22ZM149.013 81.06C148.605 81.06 148.277 80.976 148.029 80.808C147.789 80.64 147.613 80.432 147.501 80.184C147.157 80.504 146.825 80.74 146.505 80.892C146.185 81.044 145.841 81.12 145.473 81.12C144.937 81.12 144.541 80.948 144.285 80.604C144.037 80.26 143.913 79.824 143.913 79.296C143.913 78.944 143.977 78.636 144.105 78.372C144.241 78.1 144.461 77.888 144.765 77.736C145.069 77.584 145.485 77.508 146.013 77.508C146.221 77.508 146.437 77.524 146.661 77.556C146.885 77.58 147.109 77.612 147.333 77.652V76.944C147.333 76.608 147.241 76.38 147.057 76.26C146.873 76.132 146.625 76.068 146.313 76.068C146.073 76.068 145.809 76.1 145.521 76.164C145.241 76.228 144.937 76.328 144.609 76.464L144.213 75.288C145.021 74.96 145.753 74.796 146.409 74.796C147.001 74.796 147.457 74.896 147.777 75.096C148.105 75.296 148.333 75.56 148.461 75.888C148.589 76.216 148.653 76.568 148.653 76.944V79.284C148.653 79.404 148.685 79.52 148.749 79.632C148.821 79.736 148.957 79.788 149.157 79.788H149.289V81.06H149.013ZM145.245 79.272C145.245 79.488 145.293 79.66 145.389 79.788C145.485 79.908 145.625 79.968 145.809 79.968C145.993 79.968 146.201 79.92 146.433 79.824C146.665 79.728 146.965 79.504 147.333 79.152V78.636C146.917 78.564 146.509 78.528 146.109 78.528C145.797 78.528 145.573 78.592 145.437 78.72C145.309 78.848 145.245 79.032 145.245 79.272ZM152.191 79.92C152.487 79.92 152.731 79.872 152.923 79.776C153.115 79.672 153.211 79.52 153.211 79.32C153.211 79.144 153.147 79.008 153.019 78.912C152.899 78.808 152.679 78.716 152.359 78.636L151.675 78.456C151.147 78.32 150.755 78.092 150.499 77.772C150.251 77.452 150.127 77.072 150.127 76.632C150.127 76.112 150.307 75.676 150.667 75.324C151.027 74.972 151.583 74.796 152.335 74.796C152.639 74.796 152.959 74.832 153.295 74.904C153.631 74.976 153.983 75.092 154.351 75.252L153.955 76.428C153.619 76.268 153.315 76.156 153.043 76.092C152.771 76.028 152.531 75.996 152.323 75.996C151.755 75.996 151.471 76.188 151.471 76.572C151.471 76.724 151.519 76.844 151.615 76.932C151.719 77.02 151.907 77.1 152.179 77.172L152.863 77.352C153.447 77.504 153.871 77.736 154.135 78.048C154.407 78.36 154.543 78.752 154.543 79.224C154.543 79.784 154.351 80.24 153.967 80.592C153.591 80.944 152.995 81.12 152.179 81.12C151.483 81.12 150.751 80.96 149.983 80.64L150.355 79.5C150.731 79.652 151.071 79.76 151.375 79.824C151.679 79.888 151.951 79.92 152.191 79.92ZM157.664 79.92C157.96 79.92 158.204 79.872 158.396 79.776C158.588 79.672 158.684 79.52 158.684 79.32C158.684 79.144 158.62 79.008 158.492 78.912C158.372 78.808 158.152 78.716 157.832 78.636L157.148 78.456C156.62 78.32 156.228 78.092 155.972 77.772C155.724 77.452 155.6 77.072 155.6 76.632C155.6 76.112 155.78 75.676 156.14 75.324C156.5 74.972 157.056 74.796 157.808 74.796C158.112 74.796 158.432 74.832 158.768 74.904C159.104 74.976 159.456 75.092 159.824 75.252L159.428 76.428C159.092 76.268 158.788 76.156 158.516 76.092C158.244 76.028 158.004 75.996 157.796 75.996C157.228 75.996 156.944 76.188 156.944 76.572C156.944 76.724 156.992 76.844 157.088 76.932C157.192 77.02 157.38 77.1 157.652 77.172L158.336 77.352C158.92 77.504 159.344 77.736 159.608 78.048C159.88 78.36 160.016 78.752 160.016 79.224C160.016 79.784 159.824 80.24 159.44 80.592C159.064 80.944 158.468 81.12 157.652 81.12C156.956 81.12 156.224 80.96 155.456 80.64L155.828 79.5C156.204 79.652 156.544 79.76 156.848 79.824C157.152 79.888 157.424 79.92 157.664 79.92Z" fill="#555555"/>
</svg>
