<svg width="24" height="25" viewBox="0 0 24 25" fill="none" xmlns="http://www.w3.org/2000/svg">
<rect y="0.5" width="24" height="24" rx="12" fill="#16B364"/>
<path fill-rule="evenodd" clip-rule="evenodd" d="M15.8461 10.0879H18.6668C18.6668 7.82306 17.3098 6.5 15.0105 6.5H8.98979C6.69053 6.5 5.3335 7.82306 5.3335 10.059V14.941C5.3335 17.1769 6.69053 18.5 8.98979 18.5H15.0105C17.3098 18.5 18.6668 17.1769 18.6668 14.941V14.733H15.8461C14.537 14.733 13.4757 13.6983 13.4757 12.422C13.4757 11.1457 14.537 10.111 15.8461 10.111V10.0879ZM15.8461 11.0816H18.1691C18.444 11.0816 18.6668 11.2989 18.6668 11.5669V13.254C18.6636 13.5207 18.4426 13.7362 18.1691 13.7393H15.8994C15.2367 13.748 14.6572 13.3056 14.5068 12.6762C14.4316 12.2855 14.5372 11.8824 14.7955 11.5748C15.0539 11.2672 15.4384 11.0867 15.8461 11.0816ZM15.9468 12.8553H16.1661C16.4475 12.8553 16.6757 12.6329 16.6757 12.3584C16.6757 12.084 16.4475 11.8616 16.1661 11.8616H15.9468C15.8122 11.86 15.6826 11.9111 15.5868 12.0034C15.4911 12.0956 15.4372 12.2214 15.4372 12.3527C15.4372 12.628 15.6644 12.8522 15.9468 12.8553ZM8.49201 10.0879H12.255C12.5364 10.0879 12.7646 9.86541 12.7646 9.591C12.7646 9.31658 12.5364 9.09413 12.255 9.09413H8.49201C8.21285 9.09411 7.98563 9.31306 7.98239 9.58522C7.98237 9.86058 8.2096 10.0847 8.49201 10.0879Z" fill="white"/>
</svg>
