<svg width="36" height="24" viewBox="0 0 36 24" fill="none" xmlns="http://www.w3.org/2000/svg">
<rect x="1" y="0.5" width="34" height="23" rx="3.5" fill="white" stroke="#D9D9D9"/>
<path fill-rule="evenodd" clip-rule="evenodd" d="M10.4 15.2412H8.84439C8.73794 15.2412 8.6474 15.3186 8.6308 15.4236L8.00163 19.4127C7.98913 19.4914 8.05009 19.5624 8.12993 19.5624H8.87259C8.97905 19.5624 9.06958 19.485 9.08618 19.3797L9.25588 18.3038C9.27225 18.1985 9.363 18.1212 9.46924 18.1212H9.96169C10.9864 18.1212 11.5778 17.6253 11.7323 16.6427C11.8019 16.2128 11.7353 15.875 11.5339 15.6384C11.3129 15.3787 10.9206 15.2412 10.4 15.2412ZM10.5795 16.6982C10.4944 17.2564 10.0679 17.2564 9.65553 17.2564H9.42078L9.58547 16.2138C9.59525 16.1509 9.64984 16.1045 9.71353 16.1045H9.82112C10.102 16.1045 10.3671 16.1045 10.504 16.2646C10.5856 16.3602 10.6106 16.5021 10.5795 16.6982ZM15.0501 16.6803H14.3052C14.2417 16.6803 14.1869 16.7267 14.1771 16.7897L14.1441 16.9981L14.092 16.9226C13.9308 16.6885 13.5712 16.6103 13.2122 16.6103C12.389 16.6103 11.6859 17.2337 11.549 18.1084C11.4778 18.5446 11.579 18.9617 11.8264 19.2527C12.0535 19.5202 12.3783 19.6316 12.7647 19.6316C13.428 19.6316 13.7959 19.2051 13.7959 19.2051L13.7626 19.4122C13.7501 19.4913 13.8111 19.5623 13.8904 19.5623H14.5615C14.6682 19.5623 14.7582 19.4849 14.7751 19.3796L15.1777 16.83C15.1904 16.7515 15.1297 16.6803 15.0501 16.6803ZM14.0117 18.1302C13.9398 18.5557 13.602 18.8414 13.1713 18.8414C12.955 18.8414 12.782 18.7721 12.6711 18.6406C12.561 18.5101 12.5191 18.3242 12.5541 18.1172C12.6213 17.6952 12.9647 17.4003 13.389 17.4003C13.6004 17.4003 13.7724 17.4705 13.8857 17.6031C13.9992 17.7371 14.0442 17.9241 14.0117 18.1302ZM18.269 16.6802H19.0176C19.1224 16.6802 19.1836 16.7977 19.124 16.8837L16.6342 20.4776C16.5939 20.5359 16.5275 20.5705 16.4565 20.5705H15.7089C15.6036 20.5705 15.5421 20.452 15.6031 20.3657L16.3783 19.2714L15.5538 16.8516C15.5253 16.7675 15.5874 16.6802 15.6769 16.6802H16.4124C16.508 16.6802 16.5923 16.7429 16.6199 16.8344L17.0575 18.2958L18.09 16.775C18.1304 16.7156 18.1976 16.6802 18.269 16.6802Z" fill="#253B80"/>
<path fill-rule="evenodd" clip-rule="evenodd" d="M26.3856 19.4124L27.0241 15.3504C27.0338 15.2874 27.0885 15.2409 27.152 15.2407H27.8707C27.9501 15.2407 28.011 15.3119 27.9985 15.3906L27.3689 19.3795C27.3525 19.4847 27.262 19.5621 27.1553 19.5621H26.5134C26.4341 19.5621 26.3731 19.4912 26.3856 19.4124ZM21.4963 15.2409H19.9404C19.8341 15.2409 19.7436 15.3183 19.727 15.4234L19.0978 19.4124C19.0853 19.4912 19.1463 19.5621 19.2257 19.5621H20.024C20.0983 19.5621 20.1617 19.508 20.1733 19.4343L20.3518 18.3036C20.3683 18.1982 20.459 18.1209 20.5652 18.1209H21.0574C22.0824 18.1209 22.6736 17.625 22.8283 16.6424C22.898 16.2125 22.831 15.8747 22.6297 15.6381C22.4088 15.3784 22.0169 15.2409 21.4963 15.2409ZM21.6757 16.6979C21.5909 17.2561 21.1644 17.2561 20.7517 17.2561H20.5172L20.6821 16.2136C20.6919 16.1506 20.746 16.1042 20.8099 16.1042H20.9175C21.1983 16.1042 21.4635 16.1042 21.6004 16.2643C21.682 16.3599 21.7069 16.5018 21.6757 16.6979ZM26.146 16.68H25.4015C25.3375 16.68 25.2832 16.7264 25.2736 16.7895L25.2407 16.9978L25.1884 16.9223C25.0271 16.6882 24.6677 16.61 24.3088 16.61C23.4855 16.61 22.7827 17.2335 22.6457 18.1081C22.5748 18.5443 22.6755 18.9615 22.923 19.2524C23.1505 19.5199 23.4749 19.6314 23.8613 19.6314C24.5246 19.6314 24.8924 19.2048 24.8924 19.2048L24.8592 19.4119C24.8467 19.491 24.9076 19.562 24.9875 19.562H25.6583C25.7645 19.562 25.855 19.4846 25.8716 19.3794L26.2745 16.8297C26.2868 16.7513 26.2258 16.68 26.146 16.68ZM25.1076 18.1299C25.0362 18.5555 24.6979 18.8412 24.2671 18.8412C24.0512 18.8412 23.8779 18.7718 23.7669 18.6403C23.6568 18.5098 23.6154 18.3239 23.65 18.1169C23.7175 17.6949 24.0606 17.4 24.4848 17.4C24.6964 17.4 24.8683 17.4702 24.9816 17.6028C25.0955 17.7368 25.1406 17.9238 25.1076 18.1299Z" fill="#179BD7"/>
<path d="M16.1571 13.8138L16.3484 12.5991L15.9224 12.5892H13.8882L15.3019 3.62534C15.3062 3.59828 15.3205 3.57305 15.3413 3.55513C15.3622 3.53722 15.3889 3.52734 15.4167 3.52734H18.8467C19.9855 3.52734 20.7713 3.7643 21.1816 4.232C21.3739 4.45141 21.4964 4.68068 21.5557 4.933C21.6178 5.19776 21.6189 5.51406 21.5582 5.89985L21.5538 5.92801V6.1752L21.7462 6.28418C21.9082 6.37011 22.0368 6.46848 22.1356 6.58111C22.3002 6.7687 22.4066 7.00712 22.4516 7.28978C22.498 7.5805 22.4826 7.92643 22.4066 8.31807C22.3188 8.76859 22.1769 9.16096 21.9854 9.48202C21.809 9.77785 21.5845 10.0232 21.318 10.2134C21.0635 10.394 20.761 10.5312 20.4191 10.619C20.0878 10.7052 19.7101 10.7488 19.2958 10.7488H19.0288C18.838 10.7488 18.6525 10.8175 18.507 10.9408C18.3611 11.0665 18.2645 11.2383 18.2349 11.4263L18.2148 11.5357L17.8769 13.6767L17.8616 13.7553C17.8576 13.7802 17.8506 13.7927 17.8404 13.8011C17.8312 13.8087 17.8181 13.8138 17.8052 13.8138H16.1571Z" fill="#253B80"/>
<path d="M21.9284 5.95703C21.9182 6.02248 21.9065 6.0894 21.8933 6.15815C21.4409 8.48056 19.8934 9.28286 17.9169 9.28286H16.9106C16.6689 9.28286 16.4652 9.45838 16.4275 9.6968L15.9123 12.9645L15.7664 13.8907C15.7418 14.0473 15.8626 14.1884 16.0205 14.1884H17.8054C18.0168 14.1884 18.1963 14.0348 18.2295 13.8264L18.2471 13.7357L18.5832 11.603L18.6048 11.4861C18.6376 11.2769 18.8175 11.1234 19.0289 11.1234H19.2958C21.0251 11.1234 22.3789 10.4213 22.7746 8.38951C22.9398 7.54077 22.8543 6.8321 22.4169 6.33367C22.2846 6.18338 22.1204 6.05868 21.9284 5.95703Z" fill="#179BD7"/>
<path d="M21.4549 5.76832C21.3859 5.7482 21.3145 5.72992 21.2414 5.71346C21.1679 5.69738 21.0925 5.68312 21.015 5.67068C20.7437 5.6268 20.4464 5.60596 20.1279 5.60596H17.4395C17.3732 5.60596 17.3104 5.62095 17.2541 5.64801C17.1301 5.70761 17.038 5.825 17.0157 5.96871L16.4437 9.5911L16.4272 9.69678C16.4649 9.45836 16.6686 9.28283 16.9103 9.28283H17.9166C19.8931 9.28283 21.4407 8.48017 21.893 6.15813C21.9065 6.08938 21.9179 6.02246 21.9281 5.95701C21.8137 5.8963 21.6897 5.84438 21.5562 5.80013C21.5234 5.78916 21.4894 5.77856 21.4549 5.76832Z" fill="#222D65"/>
<path d="M17.0156 5.96866C17.0379 5.82495 17.1301 5.70757 17.254 5.64833C17.3107 5.62126 17.3733 5.60627 17.4394 5.60627H20.1279C20.4464 5.60627 20.7437 5.62712 21.0149 5.671C21.0925 5.68343 21.1679 5.6977 21.2414 5.71378C21.3145 5.73024 21.3858 5.74853 21.4549 5.76863C21.4893 5.77887 21.5233 5.78947 21.5565 5.80008C21.69 5.84433 21.814 5.89662 21.9284 5.95696C22.0631 5.09871 21.9274 4.51437 21.4634 3.98523C20.9518 3.40271 20.0284 3.15332 18.8469 3.15332H15.4168C15.1755 3.15332 14.9697 3.32884 14.9323 3.56763L13.5037 12.6236C13.4755 12.8028 13.6137 12.9645 13.7943 12.9645H15.912L16.4437 9.59105L17.0156 5.96866Z" fill="#253B80"/>
</svg>
