<svg width="19" height="18" viewBox="0 0 19 18" fill="none" xmlns="http://www.w3.org/2000/svg">
<path d="M9.3279 9C7.46813 9 5.82984 7.25273 5.67164 5.10469C5.59078 4.01484 5.92828 3.00586 6.62086 2.26406C7.30289 1.5293 8.26618 1.125 9.3279 1.125C10.3826 1.125 11.3424 1.53281 12.0279 2.27109C12.724 3.01992 13.0615 4.02539 12.9806 5.10469C12.8224 7.25273 11.1841 9 9.3279 9ZM9.3279 2.25C8.58258 2.25 7.9111 2.52773 7.44352 3.03047C6.96891 3.54023 6.73688 4.25039 6.79313 5.02383C6.90563 6.5707 8.06578 7.87852 9.32438 7.87852C10.583 7.87852 11.7431 6.5707 11.8556 5.02383C11.9119 4.26094 11.6799 3.5543 11.1982 3.0375C10.7341 2.52773 10.0662 2.25 9.3279 2.25Z" fill="#9CA3AF"/>
<path d="M15.5154 16.8749H3.1404C2.8029 16.8749 2.50055 16.7343 2.28962 16.4847C2.0611 16.2105 1.96969 15.8378 2.03649 15.4617C2.3318 13.8163 3.25993 12.4312 4.7154 11.4644C6.00915 10.6031 7.64743 10.1285 9.3279 10.1285C11.0084 10.1285 12.6467 10.6031 13.9404 11.4644C15.3959 12.4347 16.324 13.8163 16.6193 15.4617C16.6861 15.8378 16.5947 16.2105 16.3662 16.4847C16.1552 16.7343 15.8529 16.8749 15.5154 16.8749ZM3.14743 15.7499H15.5084C15.5154 15.7324 15.5189 15.7042 15.5119 15.6585C14.967 12.6316 11.9224 11.2499 9.3279 11.2499C6.73337 11.2499 3.68884 12.6316 3.14391 15.6585C3.13688 15.7042 3.1404 15.7324 3.14743 15.7499Z" fill="#9CA3AF"/>
</svg>
