<svg width="25" height="24" viewBox="0 0 25 24" fill="none" xmlns="http://www.w3.org/2000/svg">
<path fill-rule="evenodd" clip-rule="evenodd" d="M3.87282 1.5L3.875 1.5H16.625L16.6272 1.5C17.1234 1.50144 17.599 1.69922 17.9499 2.05013C18.3008 2.40104 18.4986 2.87656 18.5 3.37282L18.5 3.375V5.25H21.125C21.6223 5.25 22.0992 5.44754 22.4508 5.79917C22.8025 6.1508 23 6.62772 23 7.125V19.5C23 20.2956 22.6839 21.0587 22.1213 21.6213C21.5587 22.1839 20.7956 22.5 20 22.5H4.625L4.62276 22.5C3.9278 22.4979 3.2619 22.2209 2.77048 21.7295C2.27907 21.2381 2.00208 20.5722 2 19.8772L2 19.875V3.375L2 3.37282C2.00144 2.87656 2.19922 2.40104 2.55013 2.05013C2.90104 1.69922 3.37656 1.50144 3.87282 1.5ZM17.4019 21H4.62639C4.32801 20.9989 4.04215 20.8799 3.83114 20.6689C3.62017 20.4579 3.50115 20.1721 3.5 19.8737V3.37638C3.5005 3.27672 3.54031 3.18127 3.61079 3.11079C3.68127 3.04031 3.77672 3.0005 3.87638 3H16.6236C16.7233 3.0005 16.8187 3.04031 16.8892 3.11079C16.9597 3.18129 16.9995 3.27676 17 3.37644V19.5C17 20.0312 17.1409 20.5478 17.4019 21ZM18.5 19.5C18.5 19.8978 18.658 20.2794 18.9393 20.5607C19.2206 20.842 19.6022 21 20 21C20.3978 21 20.7794 20.842 21.0607 20.5607C21.342 20.2794 21.5 19.8978 21.5 19.5V7.125C21.5 7.02554 21.4605 6.93016 21.3902 6.85983C21.3198 6.78951 21.2245 6.75 21.125 6.75H18.5V19.5ZM11 6C11 5.58579 11.3358 5.25 11.75 5.25H14.75C15.1642 5.25 15.5 5.58579 15.5 6C15.5 6.41421 15.1642 6.75 14.75 6.75H11.75C11.3358 6.75 11 6.41421 11 6ZM11 9C11 8.58579 11.3358 8.25 11.75 8.25H14.75C15.1642 8.25 15.5 8.58579 15.5 9C15.5 9.41421 15.1642 9.75 14.75 9.75H11.75C11.3358 9.75 11 9.41421 11 9ZM5 12C5 11.5858 5.33579 11.25 5.75 11.25H14.75C15.1642 11.25 15.5 11.5858 15.5 12C15.5 12.4142 15.1642 12.75 14.75 12.75H5.75C5.33579 12.75 5 12.4142 5 12ZM5 15C5 14.5858 5.33579 14.25 5.75 14.25H14.75C15.1642 14.25 15.5 14.5858 15.5 15C15.5 15.4142 15.1642 15.75 14.75 15.75H5.75C5.33579 15.75 5 15.4142 5 15ZM5 18C5 17.5858 5.33579 17.25 5.75 17.25H14.75C15.1642 17.25 15.5 17.5858 15.5 18C15.5 18.4142 15.1642 18.75 14.75 18.75H5.75C5.33579 18.75 5 18.4142 5 18Z" fill="#EF6820"/>
<path d="M8.75 9.75H5.75C5.55109 9.75 5.36032 9.67098 5.21967 9.53033C5.07902 9.38968 5 9.19891 5 9V6C5 5.80109 5.07902 5.61032 5.21967 5.46967C5.36032 5.32902 5.55109 5.25 5.75 5.25H8.75C8.94891 5.25 9.13968 5.32902 9.28033 5.46967C9.42098 5.61032 9.5 5.80109 9.5 6V9C9.5 9.19891 9.42098 9.38968 9.28033 9.53033C9.13968 9.67098 8.94891 9.75 8.75 9.75Z" fill="#EF6820"/>
</svg>
