<svg width="147" height="146" viewBox="0 0 147 146" fill="none" xmlns="http://www.w3.org/2000/svg">
<rect width="146" height="146" transform="translate(0.5)" fill="white"/>
<path d="M2.93359 46.2334H7.80026V41.3667H5.36693C4.72157 41.3667 4.10264 41.6231 3.6463 42.0794C3.18996 42.5358 2.93359 43.1547 2.93359 43.8001" fill="#0C111D"/>
<path d="M7.80026 46.2334H2.93359V51.1001H7.80026V46.2334Z" fill="#0C111D"/>
<path d="M2.93359 60.834H7.80026V55.9673H5.36693C4.72157 55.9673 4.10264 56.2237 3.6463 56.68C3.18996 57.1364 2.93359 57.7553 2.93359 58.4007" fill="#0C111D"/>
<path d="M7.80026 60.834H2.93359V65.7007H7.80026V60.834Z" fill="#0C111D"/>
<path d="M7.80026 65.7002H2.93359V70.5669H7.80026V65.7002Z" fill="#0C111D"/>
<path d="M2.93359 80.2998H7.80026V75.4331H5.36693C4.72157 75.4331 4.10264 75.6895 3.6463 76.1458C3.18996 76.6022 2.93359 77.2211 2.93359 77.8665" fill="#0C111D"/>
<path d="M7.80026 80.2998H2.93359V85.1665H7.80026V80.2998Z" fill="#0C111D"/>
<path d="M7.80026 85.167H2.93359V90.0337H7.80026V85.167Z" fill="#0C111D"/>
<path d="M7.80026 90.0332H2.93359V94.8999H7.80026V90.0332Z" fill="#0C111D"/>
<path d="M12.6674 41.3672H7.80078V46.2339H12.6674V41.3672Z" fill="#0C111D"/>
<path d="M12.668 46.2334H7.8013V51.1001H10.2346C10.88 51.1001 11.4989 50.8437 11.9553 50.3874C12.4116 49.931 12.668 49.3121 12.668 48.6667" fill="#0C111D"/>
<path d="M12.668 55.9668H7.8013V60.8335H10.2346C10.88 60.8335 11.4989 60.5771 11.9553 60.1208C12.4116 59.6644 12.668 59.0455 12.668 58.4001" fill="#0C111D"/>
<path d="M12.668 65.7002H7.8013V70.5669H10.2346C10.88 70.5669 11.4989 70.3105 11.9553 69.8542C12.4116 69.3978 12.668 68.7789 12.668 68.1335" fill="#0C111D"/>
<path d="M12.6674 75.4336H7.80078V80.3003H12.6674V75.4336Z" fill="#0C111D"/>
<path d="M12.6674 80.2998H7.80078V85.1665H12.6674V80.2998Z" fill="#0C111D"/>
<path d="M12.6674 85.167H7.80078V90.0337H12.6674V85.167Z" fill="#0C111D"/>
<path d="M12.668 90.0332H7.8013V94.8999H10.2346C10.88 94.8999 11.4989 94.6435 11.9553 94.1872C12.4116 93.7308 12.668 93.1119 12.668 92.4665" fill="#0C111D"/>
<path d="M17.5346 41.3672H12.668V46.2339H17.5346V41.3672Z" fill="#0C111D"/>
<path d="M12.668 55.9668H17.5346V51.1001H15.1013C14.4559 51.1001 13.837 51.3565 13.3807 51.8128C12.9243 52.2692 12.668 52.8881 12.668 53.5335" fill="#0C111D"/>
<path d="M17.5352 60.834H15.1018C14.4565 60.834 13.8375 61.0904 13.3812 61.5467C12.9249 62.003 12.6685 62.622 12.6685 63.2673V65.7007H15.1018C15.7472 65.7007 16.3661 65.4443 16.8225 64.9879C17.2788 64.5316 17.5352 63.9127 17.5352 63.2673" fill="#0C111D"/>
<path d="M12.668 75.4336H17.5346V70.5669H15.1013C14.4559 70.5669 13.837 70.8233 13.3807 71.2796C12.9243 71.736 12.668 72.3549 12.668 73.0003" fill="#0C111D"/>
<path d="M17.5346 75.4336H12.668V80.3003H17.5346V75.4336Z" fill="#0C111D"/>
<path d="M17.5346 80.2998H12.668V85.1665H17.5346V80.2998Z" fill="#0C111D"/>
<path d="M17.5352 94.9004H15.1018C14.4565 94.9004 13.8375 95.1568 13.3812 95.6131C12.9249 96.0694 12.6685 96.6884 12.6685 97.3337V99.7671H15.1018C15.7472 99.7671 16.3661 99.5107 16.8225 99.0544C17.2788 98.598 17.5352 97.9791 17.5352 97.3337" fill="#0C111D"/>
<path d="M22.4018 41.3672H17.5352V46.2339H22.4018V41.3672Z" fill="#0C111D"/>
<path d="M22.4018 51.1006H17.5352V55.9673H22.4018V51.1006Z" fill="#0C111D"/>
<path d="M22.3984 55.9668H17.5318V60.8335H19.9651C20.6105 60.8335 21.2294 60.5771 21.6857 60.1208C22.1421 59.6644 22.3984 59.0455 22.3984 58.4001" fill="#0C111D"/>
<path d="M17.5352 70.5674H22.4018V65.7007H19.9685C19.3231 65.7007 18.7042 65.9571 18.2479 66.4134C17.7915 66.8698 17.5352 67.4887 17.5352 68.134" fill="#0C111D"/>
<path d="M22.4018 75.4336H17.5352V80.3003H22.4018V75.4336Z" fill="#0C111D"/>
<path d="M22.3984 80.2998H17.5318V85.1665H19.9651C20.6105 85.1665 21.2294 84.9101 21.6857 84.4538C22.1421 83.9974 22.3984 83.3785 22.3984 82.7331" fill="#0C111D"/>
<path d="M22.3984 90.0332H19.9651C19.3197 90.0332 18.7008 90.2896 18.2445 90.7459C17.7881 91.2022 17.5318 91.8212 17.5318 92.4665V94.8999H19.9651C20.6105 94.8999 21.2294 94.6435 21.6857 94.1872C22.1421 93.7308 22.3984 93.1119 22.3984 92.4665" fill="#0C111D"/>
<path d="M27.2651 41.3672H22.3984V46.2339H27.2651V41.3672Z" fill="#0C111D"/>
<path d="M27.2651 46.2334H22.3984V51.1001H27.2651V46.2334Z" fill="#0C111D"/>
<path d="M27.2656 65.7002H22.399V70.5669H24.8323C25.4777 70.5669 26.0966 70.3105 26.5529 69.8542C27.0093 69.3978 27.2656 68.7789 27.2656 68.1335" fill="#0C111D"/>
<path d="M22.3984 99.7666H27.2651V94.8999H24.8318C24.1864 94.8999 23.5675 95.1563 23.1111 95.6126C22.6548 96.069 22.3984 96.6879 22.3984 97.3333" fill="#0C111D"/>
<path d="M27.2651 99.7666H22.3984V104.633H27.2651V99.7666Z" fill="#0C111D"/>
<path d="M32.1328 46.2334H27.2661V51.1001H29.6995C30.3448 51.1001 30.9638 50.8437 31.4201 50.3874C31.8764 49.931 32.1328 49.3121 32.1328 48.6667" fill="#0C111D"/>
<path d="M32.1328 55.9668H29.6995C29.0541 55.9668 28.4352 56.2232 27.9789 56.6795C27.5225 57.1358 27.2661 57.7548 27.2661 58.4001V60.8335H29.6995C30.3448 60.8335 30.9638 60.5771 31.4201 60.1208C31.8764 59.6644 32.1328 59.0455 32.1328 58.4001" fill="#0C111D"/>
<path d="M27.2656 80.2998H32.1323V75.4331H29.699C29.0536 75.4331 28.4347 75.6895 27.9783 76.1458C27.522 76.6022 27.2656 77.2211 27.2656 77.8665" fill="#0C111D"/>
<path d="M32.1323 80.2998H27.2656V85.1665H32.1323V80.2998Z" fill="#0C111D"/>
<path d="M32.1328 85.167H27.2661V90.0337H29.6995C30.3448 90.0337 30.9638 89.7773 31.4201 89.321C31.8764 88.8646 32.1328 88.2457 32.1328 87.6003" fill="#0C111D"/>
<path d="M32.1323 94.9004H27.2656V99.7671H32.1323V94.9004Z" fill="#0C111D"/>
<path d="M32.1323 99.7666H27.2656V104.633H32.1323V99.7666Z" fill="#0C111D"/>
<path d="M32.1328 46.2334H36.9995V41.3667H34.5661C33.9208 41.3667 33.3019 41.6231 32.8455 42.0794C32.3892 42.5358 32.1328 43.1547 32.1328 43.8001" fill="#0C111D"/>
<path d="M37 51.1006H34.5667C33.9213 51.1006 33.3024 51.357 32.846 51.8133C32.3897 52.2696 32.1333 52.8886 32.1333 53.5339V55.9673H34.5667C35.212 55.9673 35.831 55.7109 36.2873 55.2545C36.7436 54.7982 37 54.1793 37 53.5339" fill="#0C111D"/>
<path d="M32.1328 65.7002H36.9995V60.8335H34.5661C33.9208 60.8335 33.3019 61.0899 32.8455 61.5462C32.3892 62.0026 32.1328 62.6215 32.1328 63.2669" fill="#0C111D"/>
<path d="M32.1328 75.4336H36.9995V70.5669H34.5661C33.9208 70.5669 33.3019 70.8233 32.8455 71.2796C32.3892 71.736 32.1328 72.3549 32.1328 73.0003" fill="#0C111D"/>
<path d="M36.9995 80.2998H32.1328V85.1665H36.9995V80.2998Z" fill="#0C111D"/>
<path d="M32.1328 94.9004H36.9995V90.0337H34.5661C33.9208 90.0337 33.3019 90.2901 32.8455 90.7464C32.3892 91.2028 32.1328 91.8217 32.1328 92.4671" fill="#0C111D"/>
<path d="M36.9995 99.7666H32.1328V104.633H36.9995V99.7666Z" fill="#0C111D"/>
<path d="M41.8672 41.3672H37.0005V46.2339H39.4339C40.0792 46.2339 40.6981 45.9775 41.1545 45.5211C41.6108 45.0648 41.8672 44.4459 41.8672 43.8005" fill="#0C111D"/>
<path d="M41.8672 60.834H37.0005V65.7007H39.4339C40.0792 65.7007 40.6981 65.4443 41.1545 64.9879C41.6108 64.5316 41.8672 63.9127 41.8672 63.2673" fill="#0C111D"/>
<path d="M41.8672 70.5674H37.0005V75.434H39.4339C40.0792 75.434 40.6981 75.1777 41.1545 74.7213C41.6108 74.265 41.8672 73.6461 41.8672 73.0007" fill="#0C111D"/>
<path d="M41.8667 80.2998H37V85.1665H41.8667V80.2998Z" fill="#0C111D"/>
<path d="M41.8667 85.167H37V90.0337H41.8667V85.167Z" fill="#0C111D"/>
<path d="M41.8667 90.0332H37V94.8999H41.8667V90.0332Z" fill="#0C111D"/>
<path d="M41.8667 94.9004H37V99.7671H41.8667V94.9004Z" fill="#0C111D"/>
<path d="M41.8667 99.7666H37V104.633H41.8667V99.7666Z" fill="#0C111D"/>
<path d="M41.8672 12.167H46.7339V7.30033H44.3005C43.6552 7.30033 43.0362 7.55669 42.5799 8.01303C42.1236 8.46937 41.8672 9.0883 41.8672 9.73366" fill="#0C111D"/>
<path d="M46.7344 12.167H41.8677V17.0337H44.301C44.9464 17.0337 45.5653 16.7773 46.0217 16.321C46.478 15.8646 46.7344 15.2457 46.7344 14.6003" fill="#0C111D"/>
<path d="M41.8672 26.7666H46.7339V21.8999H44.3005C43.6552 21.8999 43.0362 22.1563 42.5799 22.6126C42.1236 23.069 41.8672 23.6879 41.8672 24.3333" fill="#0C111D"/>
<path d="M41.8672 36.5H46.7339V31.6333H44.3005C43.6552 31.6333 43.0362 31.8897 42.5799 32.346C42.1236 32.8024 41.8672 33.4213 41.8672 34.0667" fill="#0C111D"/>
<path d="M46.7339 36.5H41.8672V41.3667H46.7339V36.5Z" fill="#0C111D"/>
<path d="M41.8672 55.9668H46.7339V51.1001H44.3005C43.6552 51.1001 43.0362 51.3565 42.5799 51.8128C42.1236 52.2692 41.8672 52.8881 41.8672 53.5335" fill="#0C111D"/>
<path d="M46.7339 80.2998H41.8672V85.1665H46.7339V80.2998Z" fill="#0C111D"/>
<path d="M46.7339 90.0332H41.8672V94.8999H46.7339V90.0332Z" fill="#0C111D"/>
<path d="M46.7344 99.7666H41.8677V104.633H44.301C44.9464 104.633 45.5653 104.377 46.0217 103.921C46.478 103.464 46.7344 102.845 46.7344 102.2" fill="#0C111D"/>
<path d="M41.8672 114.367H46.7339V109.501H44.3005C43.6552 109.501 43.0362 109.757 42.5799 110.213C42.1236 110.67 41.8672 111.288 41.8672 111.934" fill="#0C111D"/>
<path d="M41.8672 124.101H46.7339V119.234H44.3005C43.6552 119.234 43.0362 119.49 42.5799 119.947C42.1236 120.403 41.8672 121.022 41.8672 121.667" fill="#0C111D"/>
<path d="M46.7339 124.101H41.8672V128.967H46.7339V124.101Z" fill="#0C111D"/>
<path d="M46.7339 128.967H41.8672V133.833H46.7339V128.967Z" fill="#0C111D"/>
<path d="M46.7339 133.834H41.8672V138.701H46.7339V133.834Z" fill="#0C111D"/>
<path d="M46.7339 138.7H41.8672V143.567H46.7339V138.7Z" fill="#0C111D"/>
<path d="M46.7344 7.2998H51.601V2.43314H49.1677C48.5223 2.43314 47.9034 2.6895 47.4471 3.14584C46.9907 3.60218 46.7344 4.22111 46.7344 4.86647" fill="#0C111D"/>
<path d="M51.601 7.2998H46.7344V12.1665H51.601V7.2998Z" fill="#0C111D"/>
<path d="M51.601 21.9004H46.7344V26.7671H51.601V21.9004Z" fill="#0C111D"/>
<path d="M51.601 26.7666H46.7344V31.6333H51.601V26.7666Z" fill="#0C111D"/>
<path d="M51.601 36.5H46.7344V41.3667H51.601V36.5Z" fill="#0C111D"/>
<path d="M51.6016 51.1006H46.7349V55.9673H49.1682C49.8136 55.9673 50.4325 55.7109 50.8889 55.2545C51.3452 54.7982 51.6016 54.1793 51.6016 53.5339" fill="#0C111D"/>
<path d="M46.7344 70.5674H51.601V65.7007H49.1677C48.5223 65.7007 47.9034 65.9571 47.4471 66.4134C46.9907 66.8698 46.7344 67.4887 46.7344 68.134" fill="#0C111D"/>
<path d="M46.7344 80.2998H51.601V75.4331H49.1677C48.5223 75.4331 47.9034 75.6895 47.4471 76.1458C46.9907 76.6022 46.7344 77.2211 46.7344 77.8665" fill="#0C111D"/>
<path d="M51.601 80.2998H46.7344V85.1665H51.601V80.2998Z" fill="#0C111D"/>
<path d="M51.601 85.167H46.7344V90.0337H51.601V85.167Z" fill="#0C111D"/>
<path d="M51.601 90.0332H46.7344V94.8999H51.601V90.0332Z" fill="#0C111D"/>
<path d="M51.6016 94.9004H46.7349V99.7671H49.1682C49.8136 99.7671 50.4325 99.5107 50.8889 99.0544C51.3452 98.598 51.6016 97.9791 51.6016 97.3337" fill="#0C111D"/>
<path d="M51.6016 109.5H46.7349V114.367H49.1682C49.8136 114.367 50.4325 114.11 50.8889 113.654C51.3452 113.198 51.6016 112.579 51.6016 111.933" fill="#0C111D"/>
<path d="M51.6016 128.967H46.7349V133.833H49.1682C49.8136 133.833 50.4325 133.577 50.8889 133.121C51.3452 132.664 51.6016 132.045 51.6016 131.4" fill="#0C111D"/>
<path d="M51.601 138.7H46.7344V143.567H51.601V138.7Z" fill="#0C111D"/>
<path d="M56.4688 7.2998H51.6021V12.1665H54.0354C54.6808 12.1665 55.2997 11.9101 55.756 11.4538C56.2124 10.9974 56.4688 10.3785 56.4688 9.73314" fill="#0C111D"/>
<path d="M51.6016 21.9004H56.4682V17.0337H54.0349C53.3895 17.0337 52.7706 17.2901 52.3143 17.7464C51.8579 18.2028 51.6016 18.8217 51.6016 19.4671" fill="#0C111D"/>
<path d="M56.4682 21.9004H51.6016V26.7671H56.4682V21.9004Z" fill="#0C111D"/>
<path d="M56.4682 26.7666H51.6016V31.6333H56.4682V26.7666Z" fill="#0C111D"/>
<path d="M56.4682 31.6338H51.6016V36.5005H56.4682V31.6338Z" fill="#0C111D"/>
<path d="M56.4682 36.5H51.6016V41.3667H56.4682V36.5Z" fill="#0C111D"/>
<path d="M56.4688 41.3672H51.6021V46.2339H54.0354C54.6808 46.2339 55.2997 45.9775 55.756 45.5211C56.2124 45.0648 56.4688 44.4459 56.4688 43.8005" fill="#0C111D"/>
<path d="M51.6016 60.834H56.4682V55.9673H54.0349C53.3895 55.9673 52.7706 56.2237 52.3143 56.68C51.8579 57.1364 51.6016 57.7553 51.6016 58.4007" fill="#0C111D"/>
<path d="M56.4682 60.834H51.6016V65.7007H56.4682V60.834Z" fill="#0C111D"/>
<path d="M56.4688 65.7002H51.6021V70.5669H54.0354C54.6808 70.5669 55.2997 70.3105 55.756 69.8542C56.2124 69.3978 56.4687 68.7789 56.4688 68.1335" fill="#0C111D"/>
<path d="M56.4688 80.2998H51.6021V85.1665H54.0354C54.6808 85.1665 55.2997 84.9101 55.756 84.4538C56.2124 83.9974 56.4687 83.3785 56.4688 82.7331" fill="#0C111D"/>
<path d="M56.4682 90.0332H51.6016V94.8999H56.4682V90.0332Z" fill="#0C111D"/>
<path d="M56.4688 99.7666H54.0354C53.3901 99.7666 52.7711 100.023 52.3148 100.479C51.8584 100.936 51.6021 101.555 51.6021 102.2V104.633H54.0354C54.6808 104.633 55.2997 104.377 55.756 103.921C56.2124 103.464 56.4687 102.845 56.4688 102.2" fill="#0C111D"/>
<path d="M56.4688 114.367H54.0354C53.3901 114.367 52.7711 114.624 52.3148 115.08C51.8584 115.536 51.6021 116.155 51.6021 116.801V119.234H54.0354C54.6808 119.234 55.2997 118.977 55.756 118.521C56.2124 118.065 56.4687 117.446 56.4688 116.801" fill="#0C111D"/>
<path d="M56.4688 124.101H54.0354C53.3901 124.101 52.7711 124.357 52.3148 124.813C51.8585 125.27 51.6021 125.889 51.6021 126.534V128.967H54.0354C54.6808 128.967 55.2997 128.711 55.756 128.255C56.2124 127.798 56.4687 127.179 56.4688 126.534" fill="#0C111D"/>
<path d="M51.6016 138.7H56.4682V133.834H54.0349C53.3895 133.834 52.7706 134.09 52.3143 134.546C51.8579 135.003 51.6016 135.622 51.6016 136.267" fill="#0C111D"/>
<path d="M56.4688 138.7H51.6021V143.567H54.0354C54.6808 143.567 55.2997 143.31 55.756 142.854C56.2124 142.398 56.4688 141.779 56.4688 141.134" fill="#0C111D"/>
<path d="M61.332 26.7666H56.4654V31.6333H58.8987C59.5441 31.6333 60.163 31.3769 60.6193 30.9206C61.0757 30.4642 61.332 29.8453 61.332 29.1999" fill="#0C111D"/>
<path d="M56.4688 51.1006H61.3354V46.2339H58.9021C58.2567 46.2339 57.6378 46.4903 57.1815 46.9466C56.7251 47.403 56.4688 48.0219 56.4688 48.6673" fill="#0C111D"/>
<path d="M61.3354 51.1006H56.4688V55.9673H61.3354V51.1006Z" fill="#0C111D"/>
<path d="M56.4688 80.2998H61.3354V75.4331H58.9021C58.2567 75.4331 57.6378 75.6895 57.1815 76.1458C56.7251 76.6022 56.4688 77.2211 56.4688 77.8665" fill="#0C111D"/>
<path d="M56.4688 90.0332H61.3354V85.1665H58.9021C58.2567 85.1665 57.6378 85.4229 57.1815 85.8792C56.7251 86.3356 56.4688 86.9545 56.4688 87.5999" fill="#0C111D"/>
<path d="M61.332 90.0332H56.4654V94.8999H58.8987C59.5441 94.8999 60.163 94.6435 60.6193 94.1872C61.0757 93.7308 61.332 93.1119 61.332 92.4665" fill="#0C111D"/>
<path d="M56.4688 109.5H61.3354V104.633H58.9021C58.2567 104.633 57.6378 104.89 57.1815 105.346C56.7251 105.802 56.4688 106.421 56.4688 107.067" fill="#0C111D"/>
<path d="M61.3354 109.5H56.4688V114.367H61.3354V109.5Z" fill="#0C111D"/>
<path d="M61.332 119.233H58.8987C58.2533 119.233 57.6344 119.49 57.1781 119.946C56.7217 120.402 56.4654 121.021 56.4654 121.667V124.1H58.8987C59.5441 124.1 60.163 123.844 60.6193 123.387C61.0757 122.931 61.332 122.312 61.332 121.667" fill="#0C111D"/>
<path d="M61.332 133.834H56.4654V138.701H58.8987C59.5441 138.701 60.163 138.444 60.6193 137.988C61.0757 137.532 61.332 136.913 61.332 136.267" fill="#0C111D"/>
<path d="M61.332 12.167H66.1987V7.30033H63.7654C63.12 7.30033 62.5011 7.55669 62.0447 8.01303C61.5884 8.46937 61.332 9.0883 61.332 9.73366" fill="#0C111D"/>
<path d="M66.1987 12.167H61.332V17.0337H66.1987V12.167Z" fill="#0C111D"/>
<path d="M66.1992 31.6338H63.7659C63.1205 31.6338 62.5016 31.8902 62.0453 32.3465C61.5889 32.8028 61.3326 33.4218 61.3326 34.0671V36.5005H63.7659C64.4112 36.5005 65.0302 36.2441 65.4865 35.7878C65.9429 35.3314 66.1992 34.7125 66.1992 34.0671" fill="#0C111D"/>
<path d="M66.1992 41.3672H63.7659C63.1205 41.3672 62.5016 41.6236 62.0453 42.0799C61.5889 42.5362 61.3326 43.1552 61.3326 43.8005V46.2339H63.7659C64.4112 46.2339 65.0302 45.9775 65.4865 45.5211C65.9429 45.0648 66.1992 44.4459 66.1992 43.8005" fill="#0C111D"/>
<path d="M66.1992 51.1006H61.3326V55.9673H63.7659C64.4112 55.9673 65.0302 55.7109 65.4865 55.2545C65.9429 54.7982 66.1992 54.1793 66.1992 53.5339" fill="#0C111D"/>
<path d="M61.332 75.4336H66.1987V70.5669H63.7654C63.12 70.5669 62.5011 70.8233 62.0447 71.2796C61.5884 71.736 61.332 72.3549 61.332 73.0003" fill="#0C111D"/>
<path d="M66.1987 75.4336H61.332V80.3003H66.1987V75.4336Z" fill="#0C111D"/>
<path d="M66.1992 85.167H61.3326V90.0337H63.7659C64.4112 90.0337 65.0302 89.7773 65.4865 89.321C65.9429 88.8646 66.1992 88.2457 66.1992 87.6003" fill="#0C111D"/>
<path d="M61.332 99.7666H66.1987V94.8999H63.7654C63.12 94.8999 62.5011 95.1563 62.0447 95.6126C61.5884 96.069 61.332 96.6879 61.332 97.3333" fill="#0C111D"/>
<path d="M66.1987 99.7666H61.332V104.633H66.1987V99.7666Z" fill="#0C111D"/>
<path d="M66.1987 109.5H61.332V114.367H66.1987V109.5Z" fill="#0C111D"/>
<path d="M66.1987 114.367H61.332V119.234H66.1987V114.367Z" fill="#0C111D"/>
<path d="M66.1992 128.967H63.7659C63.1205 128.967 62.5016 129.223 62.0453 129.68C61.5889 130.136 61.3326 130.755 61.3326 131.4V133.833H63.7659C64.4112 133.833 65.0302 133.577 65.4865 133.121C65.9428 132.664 66.1992 132.045 66.1992 131.4" fill="#0C111D"/>
<path d="M71.0659 7.2998H66.1992V12.1665H71.0659V7.2998Z" fill="#0C111D"/>
<path d="M71.0659 12.167H66.1992V17.0337H71.0659V12.167Z" fill="#0C111D"/>
<path d="M71.0659 17.0332H66.1992V21.8999H71.0659V17.0332Z" fill="#0C111D"/>
<path d="M71.0664 21.9004H66.1997V26.7671H68.6331C69.2784 26.7671 69.8974 26.5107 70.3537 26.0544C70.81 25.598 71.0664 24.9791 71.0664 24.3337" fill="#0C111D"/>
<path d="M66.1992 41.3672H71.0659V36.5005H68.6326C67.9872 36.5005 67.3683 36.7569 66.9119 37.2132C66.4556 37.6696 66.1992 38.2885 66.1992 38.9339" fill="#0C111D"/>
<path d="M66.1992 60.834H71.0659V55.9673H68.6326C67.9872 55.9673 67.3683 56.2237 66.9119 56.68C66.4556 57.1364 66.1992 57.7553 66.1992 58.4007" fill="#0C111D"/>
<path d="M71.0659 60.834H66.1992V65.7007H71.0659V60.834Z" fill="#0C111D"/>
<path d="M71.0659 70.5674H66.1992V75.434H71.0659V70.5674Z" fill="#0C111D"/>
<path d="M71.0659 75.4336H66.1992V80.3003H71.0659V75.4336Z" fill="#0C111D"/>
<path d="M71.0659 80.2998H66.1992V85.1665H71.0659V80.2998Z" fill="#0C111D"/>
<path d="M71.0664 90.0332H68.6331C67.9877 90.0332 67.3688 90.2896 66.9124 90.7459C66.4561 91.2022 66.1997 91.8212 66.1997 92.4665V94.8999H68.6331C69.2784 94.8999 69.8974 94.6435 70.3537 94.1872C70.81 93.7308 71.0664 93.1119 71.0664 92.4665" fill="#0C111D"/>
<path d="M71.0659 99.7666H66.1992V104.633H71.0659V99.7666Z" fill="#0C111D"/>
<path d="M71.0659 104.634H66.1992V109.5H71.0659V104.634Z" fill="#0C111D"/>
<path d="M71.0659 109.5H66.1992V114.367H71.0659V109.5Z" fill="#0C111D"/>
<path d="M71.0659 114.367H66.1992V119.234H71.0659V114.367Z" fill="#0C111D"/>
<path d="M66.1992 138.7H71.0659V133.834H68.6326C67.9872 133.834 67.3683 134.09 66.9119 134.546C66.4556 135.003 66.1992 135.622 66.1992 136.267" fill="#0C111D"/>
<path d="M71.0659 138.7H66.1992V143.567H71.0659V138.7Z" fill="#0C111D"/>
<path d="M75.9336 17.0332H71.0669V21.8999H73.5003C74.1456 21.8999 74.7645 21.6435 75.2209 21.1872C75.6772 20.7308 75.9336 20.1119 75.9336 19.4665" fill="#0C111D"/>
<path d="M71.0664 36.5H75.9331V31.6333H73.4997C72.8544 31.6333 72.2354 31.8897 71.7791 32.346C71.3228 32.8024 71.0664 33.4213 71.0664 34.0667" fill="#0C111D"/>
<path d="M75.9336 36.5H71.0669V41.3667H73.5003C74.1456 41.3667 74.7646 41.1103 75.2209 40.654C75.6772 40.1976 75.9336 39.5787 75.9336 38.9333" fill="#0C111D"/>
<path d="M71.0664 55.9668H75.9331V51.1001H73.4997C72.8544 51.1001 72.2354 51.3565 71.7791 51.8128C71.3228 52.2692 71.0664 52.8881 71.0664 53.5335" fill="#0C111D"/>
<path d="M75.9331 55.9668H71.0664V60.8335H75.9331V55.9668Z" fill="#0C111D"/>
<path d="M75.9331 60.834H71.0664V65.7007H75.9331V60.834Z" fill="#0C111D"/>
<path d="M75.9331 65.7002H71.0664V70.5669H75.9331V65.7002Z" fill="#0C111D"/>
<path d="M75.9336 70.5674H71.0669V75.434H73.5003C74.1456 75.434 74.7646 75.1777 75.2209 74.7213C75.6772 74.265 75.9336 73.6461 75.9336 73.0007" fill="#0C111D"/>
<path d="M75.9331 80.2998H71.0664V85.1665H75.9331V80.2998Z" fill="#0C111D"/>
<path d="M75.9336 85.167H71.0669V90.0337H73.5003C74.1456 90.0337 74.7646 89.7773 75.2209 89.321C75.6772 88.8646 75.9336 88.2457 75.9336 87.6003" fill="#0C111D"/>
<path d="M75.9331 114.367H71.0664V119.234H75.9331V114.367Z" fill="#0C111D"/>
<path d="M75.9336 128.967H73.5003C72.8549 128.967 72.236 129.223 71.7796 129.68C71.3233 130.136 71.0669 130.755 71.0669 131.4V133.833H73.5003C74.1456 133.833 74.7645 133.577 75.2209 133.121C75.6772 132.664 75.9336 132.045 75.9336 131.4" fill="#0C111D"/>
<path d="M75.9336 138.7H71.0669V143.567H73.5003C74.1456 143.567 74.7645 143.31 75.2209 142.854C75.6772 142.398 75.9336 141.779 75.9336 141.134" fill="#0C111D"/>
<path d="M75.9336 7.2998H80.8003V2.43314H78.3669C77.7216 2.43314 77.1026 2.6895 76.6463 3.14584C76.19 3.60218 75.9336 4.22111 75.9336 4.86647" fill="#0C111D"/>
<path d="M80.8003 7.2998H75.9336V12.1665H80.8003V7.2998Z" fill="#0C111D"/>
<path d="M75.9336 31.6338H80.8003V26.7671H78.3669C77.7216 26.7671 77.1026 27.0235 76.6463 27.4798C76.19 27.9362 75.9336 28.5551 75.9336 29.2005" fill="#0C111D"/>
<path d="M75.9336 46.2334H80.8003V41.3667H78.3669C77.7216 41.3667 77.1026 41.6231 76.6463 42.0794C76.19 42.5358 75.9336 43.1547 75.9336 43.8001" fill="#0C111D"/>
<path d="M80.8003 55.9668H75.9336V60.8335H80.8003V55.9668Z" fill="#0C111D"/>
<path d="M80.8003 65.7002H75.9336V70.5669H80.8003V65.7002Z" fill="#0C111D"/>
<path d="M75.9336 99.7666H80.8003V94.8999H78.3669C77.7216 94.8999 77.1026 95.1563 76.6463 95.6126C76.19 96.069 75.9336 96.6879 75.9336 97.3333" fill="#0C111D"/>
<path d="M80.8003 99.7666H75.9336V104.633H80.8003V99.7666Z" fill="#0C111D"/>
<path d="M80.8003 104.634H75.9336V109.5H80.8003V104.634Z" fill="#0C111D"/>
<path d="M80.8008 114.367H75.9341V119.234H78.3674C79.0128 119.234 79.6317 118.977 80.0881 118.521C80.5444 118.065 80.8008 117.446 80.8008 116.801" fill="#0C111D"/>
<path d="M85.6674 2.43359H80.8008V7.30026H85.6674V2.43359Z" fill="#0C111D"/>
<path d="M85.6674 7.2998H80.8008V12.1665H85.6674V7.2998Z" fill="#0C111D"/>
<path d="M85.6674 12.167H80.8008V17.0337H85.6674V12.167Z" fill="#0C111D"/>
<path d="M85.6674 26.7666H80.8008V31.6333H85.6674V26.7666Z" fill="#0C111D"/>
<path d="M85.6674 31.6338H80.8008V36.5005H85.6674V31.6338Z" fill="#0C111D"/>
<path d="M85.6674 36.5H80.8008V41.3667H85.6674V36.5Z" fill="#0C111D"/>
<path d="M85.6674 41.3672H80.8008V46.2339H85.6674V41.3672Z" fill="#0C111D"/>
<path d="M85.668 55.9668H80.8013V60.8335H83.2346C83.88 60.8335 84.4989 60.5771 84.9553 60.1208C85.4116 59.6644 85.668 59.0455 85.668 58.4001" fill="#0C111D"/>
<path d="M85.6674 65.7002H80.8008V70.5669H85.6674V65.7002Z" fill="#0C111D"/>
<path d="M85.6674 70.5674H80.8008V75.434H85.6674V70.5674Z" fill="#0C111D"/>
<path d="M85.6674 75.4336H80.8008V80.3003H85.6674V75.4336Z" fill="#0C111D"/>
<path d="M85.6674 94.9004H80.8008V99.7671H85.6674V94.9004Z" fill="#0C111D"/>
<path d="M85.6674 99.7666H80.8008V104.633H85.6674V99.7666Z" fill="#0C111D"/>
<path d="M85.6674 104.634H80.8008V109.5H85.6674V104.634Z" fill="#0C111D"/>
<path d="M85.6674 109.5H80.8008V114.367H85.6674V109.5Z" fill="#0C111D"/>
<path d="M80.8008 124.101H85.6674V119.234H83.2341C82.5888 119.234 81.9698 119.49 81.5135 119.947C81.0571 120.403 80.8008 121.022 80.8008 121.667" fill="#0C111D"/>
<path d="M85.6674 124.101H80.8008V128.967H85.6674V124.101Z" fill="#0C111D"/>
<path d="M80.8008 138.7H85.6674V133.834H83.2341C82.5888 133.834 81.9698 134.09 81.5135 134.546C81.0572 135.003 80.8008 135.622 80.8008 136.267" fill="#0C111D"/>
<path d="M90.5346 12.167H85.668V17.0337H90.5346V12.167Z" fill="#0C111D"/>
<path d="M85.668 26.7666H90.5346V21.8999H88.1013C87.4559 21.8999 86.837 22.1563 86.3807 22.6126C85.9243 23.069 85.668 23.6879 85.668 24.3333" fill="#0C111D"/>
<path d="M90.5352 26.7666H85.6685V31.6333H88.1018C88.7472 31.6333 89.3661 31.3769 89.8224 30.9206C90.2788 30.4642 90.5352 29.8453 90.5352 29.1999" fill="#0C111D"/>
<path d="M90.5346 41.3672H85.668V46.2339H90.5346V41.3672Z" fill="#0C111D"/>
<path d="M90.5346 46.2334H85.668V51.1001H90.5346V46.2334Z" fill="#0C111D"/>
<path d="M90.5352 51.1006H85.6685V55.9673H88.1018C88.7472 55.9673 89.3661 55.7109 89.8225 55.2545C90.2788 54.7982 90.5352 54.1793 90.5352 53.5339" fill="#0C111D"/>
<path d="M90.5346 65.7002H85.668V70.5669H90.5346V65.7002Z" fill="#0C111D"/>
<path d="M90.5352 75.4336H85.6685V80.3003H88.1018C88.7472 80.3003 89.3661 80.0439 89.8225 79.5876C90.2788 79.1312 90.5352 78.5123 90.5352 77.8669" fill="#0C111D"/>
<path d="M85.668 90.0332H90.5346V85.1665H88.1013C87.4559 85.1665 86.837 85.4229 86.3807 85.8792C85.9243 86.3356 85.668 86.9545 85.668 87.5999" fill="#0C111D"/>
<path d="M90.5352 99.7666H85.6685V104.633H88.1018C88.7472 104.633 89.3661 104.377 89.8225 103.921C90.2788 103.464 90.5352 102.845 90.5352 102.2" fill="#0C111D"/>
<path d="M90.5352 109.5H85.6685V114.367H88.1018C88.7472 114.367 89.3661 114.11 89.8225 113.654C90.2788 113.198 90.5352 112.579 90.5352 111.933" fill="#0C111D"/>
<path d="M90.5346 124.101H85.668V128.967H90.5346V124.101Z" fill="#0C111D"/>
<path d="M90.5346 128.967H85.668V133.833H90.5346V128.967Z" fill="#0C111D"/>
<path d="M90.5346 133.834H85.668V138.701H90.5346V133.834Z" fill="#0C111D"/>
<path d="M90.5346 138.7H85.668V143.567H90.5346V138.7Z" fill="#0C111D"/>
<path d="M95.3984 2.43359H92.9651C92.3197 2.43359 91.7008 2.68996 91.2445 3.1463C90.7881 3.60264 90.5318 4.22157 90.5318 4.86693V7.30026H92.9651C93.6105 7.30026 94.2294 7.04389 94.6857 6.58756C95.1421 6.13122 95.3984 5.51229 95.3984 4.86693" fill="#0C111D"/>
<path d="M95.4018 12.167H90.5352V17.0337H95.4018V12.167Z" fill="#0C111D"/>
<path d="M95.3984 21.9004H90.5318V26.7671H92.9651C93.6105 26.7671 94.2294 26.5107 94.6857 26.0544C95.1421 25.598 95.3984 24.9791 95.3984 24.3337" fill="#0C111D"/>
<path d="M90.5352 36.5H95.4018V31.6333H92.9685C92.3231 31.6333 91.7042 31.8897 91.2479 32.346C90.7915 32.8024 90.5352 33.4213 90.5352 34.0667" fill="#0C111D"/>
<path d="M95.4018 36.5H90.5352V41.3667H95.4018V36.5Z" fill="#0C111D"/>
<path d="M95.4018 41.3672H90.5352V46.2339H95.4018V41.3672Z" fill="#0C111D"/>
<path d="M95.3984 46.2334H90.5318V51.1001H92.9651C93.6105 51.1001 94.2294 50.8437 94.6857 50.3874C95.1421 49.931 95.3984 49.3121 95.3984 48.6667" fill="#0C111D"/>
<path d="M90.5352 60.834H95.4018V55.9673H92.9685C92.3231 55.9673 91.7042 56.2237 91.2479 56.68C90.7915 57.1364 90.5352 57.7553 90.5352 58.4007" fill="#0C111D"/>
<path d="M95.4018 60.834H90.5352V65.7007H95.4018V60.834Z" fill="#0C111D"/>
<path d="M95.4018 65.7002H90.5352V70.5669H95.4018V65.7002Z" fill="#0C111D"/>
<path d="M95.3984 70.5674H90.5318V75.434H92.9651C93.6105 75.434 94.2294 75.1777 94.6857 74.7213C95.1421 74.265 95.3984 73.6461 95.3984 73.0007" fill="#0C111D"/>
<path d="M95.4018 85.167H90.5352V90.0337H95.4018V85.167Z" fill="#0C111D"/>
<path d="M95.3984 90.0332H90.5318V94.8999H92.9651C93.6105 94.8999 94.2294 94.6435 94.6857 94.1872C95.1421 93.7308 95.3984 93.1119 95.3984 92.4665" fill="#0C111D"/>
<path d="M95.3984 104.634H92.9651C92.3197 104.634 91.7008 104.89 91.2445 105.346C90.7881 105.803 90.5318 106.422 90.5318 107.067V109.5H92.9651C93.6105 109.5 94.2294 109.244 94.6857 108.788C95.1421 108.331 95.3984 107.712 95.3984 107.067" fill="#0C111D"/>
<path d="M95.4018 133.834H90.5352V138.701H95.4018V133.834Z" fill="#0C111D"/>
<path d="M95.4018 138.7H90.5352V143.567H95.4018V138.7Z" fill="#0C111D"/>
<path d="M95.3984 12.167H100.265V7.30033H97.8318C97.1864 7.30033 96.5675 7.55669 96.1111 8.01303C95.6548 8.46937 95.3984 9.0883 95.3984 9.73366" fill="#0C111D"/>
<path d="M100.265 12.167H95.3984V17.0337H100.265V12.167Z" fill="#0C111D"/>
<path d="M100.266 41.3672H95.399V46.2339H97.8323C98.4777 46.2339 99.0966 45.9775 99.5529 45.5211C100.009 45.0648 100.266 44.4459 100.266 43.8005" fill="#0C111D"/>
<path d="M95.3984 55.9668H100.265V51.1001H97.8318C97.1864 51.1001 96.5675 51.3565 96.1111 51.8128C95.6548 52.2692 95.3984 52.8881 95.3984 53.5335" fill="#0C111D"/>
<path d="M100.265 55.9668H95.3984V60.8335H100.265V55.9668Z" fill="#0C111D"/>
<path d="M100.265 60.834H95.3984V65.7007H100.265V60.834Z" fill="#0C111D"/>
<path d="M100.266 75.4336H97.8323C97.1869 75.4336 96.568 75.69 96.1117 76.1463C95.6553 76.6026 95.399 77.2216 95.399 77.8669V80.3003H97.8323C98.4777 80.3003 99.0966 80.0439 99.5529 79.5876C100.009 79.1312 100.266 78.5123 100.266 77.8669" fill="#0C111D"/>
<path d="M100.265 85.167H95.3984V90.0337H100.265V85.167Z" fill="#0C111D"/>
<path d="M95.3984 114.367H100.265V109.501H97.8318C97.1864 109.501 96.5675 109.757 96.1111 110.213C95.6548 110.67 95.3984 111.288 95.3984 111.934" fill="#0C111D"/>
<path d="M100.265 114.367H95.3984V119.234H100.265V114.367Z" fill="#0C111D"/>
<path d="M95.3984 128.967H100.265V124.1H97.8318C97.1864 124.1 96.5675 124.356 96.1111 124.813C95.6548 125.269 95.3984 125.888 95.3984 126.533" fill="#0C111D"/>
<path d="M100.265 133.834H95.3984V138.701H100.265V133.834Z" fill="#0C111D"/>
<path d="M100.266 138.7H95.399V143.567H97.8323C98.4777 143.567 99.0966 143.31 99.5529 142.854C100.009 142.398 100.266 141.779 100.266 141.134" fill="#0C111D"/>
<path d="M105.133 2.43359H102.699C102.054 2.43359 101.435 2.68996 100.979 3.1463C100.523 3.60264 100.266 4.22157 100.266 4.86693V7.30026H102.699C103.345 7.30026 103.964 7.04389 104.42 6.58756C104.876 6.13122 105.133 5.51229 105.133 4.86693" fill="#0C111D"/>
<path d="M105.133 12.167H100.266V17.0337H102.699C103.345 17.0337 103.964 16.7773 104.42 16.321C104.876 15.8646 105.133 15.2457 105.133 14.6003" fill="#0C111D"/>
<path d="M100.266 31.6338H105.132V26.7671H102.699C102.054 26.7671 101.435 27.0235 100.978 27.4798C100.522 27.9362 100.266 28.5551 100.266 29.2005" fill="#0C111D"/>
<path d="M105.132 31.6338H100.266V36.5005H105.132V31.6338Z" fill="#0C111D"/>
<path d="M105.133 36.5H100.266V41.3667H102.699C103.345 41.3667 103.964 41.1103 104.42 40.654C104.876 40.1976 105.133 39.5787 105.133 38.9333" fill="#0C111D"/>
<path d="M105.132 55.9668H100.266V60.8335H105.132V55.9668Z" fill="#0C111D"/>
<path d="M105.133 60.834H100.266V65.7007H102.699C103.345 65.7007 103.964 65.4443 104.42 64.9879C104.876 64.5316 105.133 63.9127 105.133 63.2673" fill="#0C111D"/>
<path d="M100.266 85.167H105.132V80.3003H102.699C102.054 80.3003 101.435 80.5567 100.978 81.013C100.522 81.4694 100.266 82.0883 100.266 82.7337" fill="#0C111D"/>
<path d="M105.132 85.167H100.266V90.0337H105.132V85.167Z" fill="#0C111D"/>
<path d="M105.133 90.0332H100.266V94.8999H102.699C103.345 94.8999 103.964 94.6435 104.42 94.1872C104.876 93.7308 105.133 93.1119 105.133 92.4665" fill="#0C111D"/>
<path d="M100.266 104.634H105.132V99.7671H102.699C102.054 99.7671 101.435 100.023 100.978 100.48C100.522 100.936 100.266 101.555 100.266 102.2" fill="#0C111D"/>
<path d="M105.132 104.634H100.266V109.5H105.132V104.634Z" fill="#0C111D"/>
<path d="M105.132 109.5H100.266V114.367H105.132V109.5Z" fill="#0C111D"/>
<path d="M105.132 114.367H100.266V119.234H105.132V114.367Z" fill="#0C111D"/>
<path d="M105.132 119.233H100.266V124.1H105.132V119.233Z" fill="#0C111D"/>
<path d="M105.133 124.101H100.266V128.967H102.699C103.345 128.967 103.964 128.711 104.42 128.255C104.876 127.798 105.133 127.179 105.133 126.534" fill="#0C111D"/>
<path d="M105.133 46.2334H109.999V41.3667H107.566C106.921 41.3667 106.302 41.6231 105.846 42.0794C105.389 42.5358 105.133 43.1547 105.133 43.8001" fill="#0C111D"/>
<path d="M109.999 46.2334H105.133V51.1001H109.999V46.2334Z" fill="#0C111D"/>
<path d="M109.999 51.1006H105.133V55.9673H109.999V51.1006Z" fill="#0C111D"/>
<path d="M110 55.9668H105.133V60.8335H107.567C108.212 60.8335 108.831 60.5771 109.287 60.1208C109.744 59.6644 110 59.0455 110 58.4001" fill="#0C111D"/>
<path d="M109.999 80.2998H105.133V85.1665H109.999V80.2998Z" fill="#0C111D"/>
<path d="M110 85.167H105.133V90.0337H107.567C108.212 90.0337 108.831 89.7773 109.287 89.321C109.744 88.8646 110 88.2457 110 87.6003" fill="#0C111D"/>
<path d="M105.133 99.7666H109.999V94.8999H107.566C106.921 94.8999 106.302 95.1563 105.846 95.6126C105.389 96.069 105.133 96.6879 105.133 97.3333" fill="#0C111D"/>
<path d="M109.999 99.7666H105.133V104.633H109.999V99.7666Z" fill="#0C111D"/>
<path d="M109.999 119.233H105.133V124.1H109.999V119.233Z" fill="#0C111D"/>
<path d="M105.133 138.7H109.999V133.834H107.566C106.921 133.834 106.302 134.09 105.846 134.546C105.389 135.003 105.133 135.622 105.133 136.267" fill="#0C111D"/>
<path d="M109.999 138.7H105.133V143.567H109.999V138.7Z" fill="#0C111D"/>
<path d="M114.867 41.3672H110.001V46.2339H112.434C113.079 46.2339 113.698 45.9775 114.154 45.5211C114.611 45.0648 114.867 44.4459 114.867 43.8005" fill="#0C111D"/>
<path d="M114.867 51.1006H110V55.9673H114.867V51.1006Z" fill="#0C111D"/>
<path d="M110 70.5674H114.867V65.7007H112.433C111.788 65.7007 111.169 65.9571 110.713 66.4134C110.256 66.8698 110 67.4887 110 68.134" fill="#0C111D"/>
<path d="M110 94.9004H114.867V90.0337H112.433C111.788 90.0337 111.169 90.2901 110.713 90.7464C110.256 91.2028 110 91.8217 110 92.4671" fill="#0C111D"/>
<path d="M114.867 94.9004H110V99.7671H114.867V94.9004Z" fill="#0C111D"/>
<path d="M114.867 99.7666H110V104.633H114.867V99.7666Z" fill="#0C111D"/>
<path d="M114.867 109.5H112.434C111.788 109.5 111.17 109.756 110.713 110.213C110.257 110.669 110.001 111.288 110.001 111.933V114.367H112.434C113.079 114.367 113.698 114.11 114.154 113.654C114.611 113.198 114.867 112.579 114.867 111.933" fill="#0C111D"/>
<path d="M114.867 119.233H110V124.1H114.867V119.233Z" fill="#0C111D"/>
<path d="M110 133.834H114.867V128.967H112.433C111.788 128.967 111.169 129.224 110.713 129.68C110.256 130.136 110 130.755 110 131.401" fill="#0C111D"/>
<path d="M114.867 133.834H110V138.701H114.867V133.834Z" fill="#0C111D"/>
<path d="M114.867 138.7H110V143.567H114.867V138.7Z" fill="#0C111D"/>
<path d="M119.734 51.1006H114.867V55.9673H119.734V51.1006Z" fill="#0C111D"/>
<path d="M119.734 55.9668H114.867V60.8335H119.734V55.9668Z" fill="#0C111D"/>
<path d="M119.734 60.834H114.867V65.7007H119.734V60.834Z" fill="#0C111D"/>
<path d="M119.734 65.7002H114.867V70.5669H119.734V65.7002Z" fill="#0C111D"/>
<path d="M114.867 90.0332H119.734V85.1665H117.301C116.655 85.1665 116.036 85.4229 115.58 85.8792C115.124 86.3356 114.867 86.9545 114.867 87.5999" fill="#0C111D"/>
<path d="M119.734 90.0332H114.867V94.8999H119.734V90.0332Z" fill="#0C111D"/>
<path d="M119.734 99.7666H114.867V104.633H119.734V99.7666Z" fill="#0C111D"/>
<path d="M119.734 119.233H114.867V124.1H119.734V119.233Z" fill="#0C111D"/>
<path d="M119.734 138.7H114.868V143.567H117.301C117.946 143.567 118.565 143.31 119.022 142.854C119.478 142.398 119.734 141.779 119.734 141.134" fill="#0C111D"/>
<path d="M119.734 46.2334H124.601V41.3667H122.168C121.522 41.3667 120.903 41.6231 120.447 42.0794C119.991 42.5358 119.734 43.1547 119.734 43.8001" fill="#0C111D"/>
<path d="M124.601 46.2334H119.734V51.1001H124.601V46.2334Z" fill="#0C111D"/>
<path d="M124.601 55.9668H119.734V60.8335H124.601V55.9668Z" fill="#0C111D"/>
<path d="M124.601 60.834H119.734V65.7007H124.601V60.834Z" fill="#0C111D"/>
<path d="M124.601 65.7002H119.734V70.5669H124.601V65.7002Z" fill="#0C111D"/>
<path d="M119.734 85.167H124.601V80.3003H122.168C121.522 80.3003 120.903 80.5567 120.447 81.013C119.991 81.4694 119.734 82.0883 119.734 82.7337" fill="#0C111D"/>
<path d="M124.601 90.0332H119.734V94.8999H124.601V90.0332Z" fill="#0C111D"/>
<path d="M124.601 99.7666H119.734V104.633H124.601V99.7666Z" fill="#0C111D"/>
<path d="M124.601 104.634H119.734V109.5H124.601V104.634Z" fill="#0C111D"/>
<path d="M124.601 109.5H119.734V114.367H124.601V109.5Z" fill="#0C111D"/>
<path d="M124.601 114.367H119.734V119.234H124.601V114.367Z" fill="#0C111D"/>
<path d="M124.601 119.233H119.734V124.1H124.601V119.233Z" fill="#0C111D"/>
<path d="M124.602 124.101H119.735V128.967H122.168C122.814 128.967 123.433 128.711 123.889 128.255C124.345 127.798 124.602 127.179 124.602 126.534" fill="#0C111D"/>
<path d="M124.602 133.834H122.168C121.523 133.834 120.904 134.09 120.448 134.547C119.991 135.003 119.735 135.622 119.735 136.267V138.701H122.168C122.814 138.701 123.433 138.444 123.889 137.988C124.345 137.532 124.602 136.913 124.602 136.267" fill="#0C111D"/>
<path d="M129.468 46.2334H124.602V51.1001H129.468V46.2334Z" fill="#0C111D"/>
<path d="M129.468 51.1006H124.602V55.9673H129.468V51.1006Z" fill="#0C111D"/>
<path d="M129.468 60.834H124.602V65.7007H129.468V60.834Z" fill="#0C111D"/>
<path d="M129.468 65.7002H124.602V70.5669H129.468V65.7002Z" fill="#0C111D"/>
<path d="M124.602 80.2998H129.468V75.4331H127.035C126.39 75.4331 125.771 75.6895 125.314 76.1459C124.858 76.6022 124.602 77.2211 124.602 77.8665" fill="#0C111D"/>
<path d="M129.468 80.2998H124.602V85.1665H129.468V80.2998Z" fill="#0C111D"/>
<path d="M129.469 90.0332H124.602V94.8999H127.035C127.681 94.8999 128.3 94.6435 128.756 94.1872C129.212 93.7308 129.469 93.1119 129.469 92.4665" fill="#0C111D"/>
<path d="M129.468 99.7666H124.602V104.633H129.468V99.7666Z" fill="#0C111D"/>
<path d="M129.469 104.634H124.602V109.5H127.035C127.681 109.5 128.3 109.244 128.756 108.788C129.212 108.331 129.469 107.712 129.469 107.067" fill="#0C111D"/>
<path d="M129.468 119.233H124.602V124.1H129.468V119.233Z" fill="#0C111D"/>
<path d="M129.469 46.2334H134.335V41.3667H131.902C131.257 41.3667 130.638 41.6231 130.181 42.0794C129.725 42.5358 129.469 43.1547 129.469 43.8001" fill="#0C111D"/>
<path d="M134.335 46.2334H129.469V51.1001H134.335V46.2334Z" fill="#0C111D"/>
<path d="M134.335 51.1006H129.469V55.9673H134.335V51.1006Z" fill="#0C111D"/>
<path d="M134.335 55.9668H129.469V60.8335H134.335V55.9668Z" fill="#0C111D"/>
<path d="M134.335 65.7002H129.469V70.5669H134.335V65.7002Z" fill="#0C111D"/>
<path d="M134.335 75.4336H129.469V80.3003H134.335V75.4336Z" fill="#0C111D"/>
<path d="M134.335 80.2998H129.469V85.1665H134.335V80.2998Z" fill="#0C111D"/>
<path d="M134.335 85.167H129.469V90.0337H134.335V85.167Z" fill="#0C111D"/>
<path d="M134.332 94.9004H131.899C131.253 94.9004 130.634 95.1568 130.178 95.6131C129.722 96.0694 129.465 96.6884 129.465 97.3337V99.7671H131.899C132.544 99.7671 133.163 99.5107 133.619 99.0543C134.076 98.598 134.332 97.9791 134.332 97.3337" fill="#0C111D"/>
<path d="M129.469 119.233H134.335V114.367H131.902C131.257 114.367 130.638 114.623 130.181 115.079C129.725 115.536 129.469 116.155 129.469 116.8" fill="#0C111D"/>
<path d="M134.332 119.233H129.465V124.1H131.899C132.544 124.1 133.163 123.844 133.619 123.387C134.076 122.931 134.332 122.312 134.332 121.667" fill="#0C111D"/>
<path d="M134.332 138.7H131.899C131.253 138.7 130.634 138.957 130.178 139.413C129.722 139.869 129.465 140.488 129.465 141.134V143.567H131.899C132.544 143.567 133.163 143.31 133.619 142.854C134.076 142.398 134.332 141.779 134.332 141.134" fill="#0C111D"/>
<path d="M139.199 41.3672H134.332V46.2339H139.199V41.3672Z" fill="#0C111D"/>
<path d="M139.199 46.2334H134.332V51.1001H139.199V46.2334Z" fill="#0C111D"/>
<path d="M139.199 51.1006H134.332V55.9673H139.199V51.1006Z" fill="#0C111D"/>
<path d="M139.199 55.9668H134.332V60.8335H139.199V55.9668Z" fill="#0C111D"/>
<path d="M139.199 60.834H134.332V65.7007H139.199V60.834Z" fill="#0C111D"/>
<path d="M139.199 65.7002H134.332V70.5669H139.199V65.7002Z" fill="#0C111D"/>
<path d="M139.199 70.5674H134.333V75.434H136.766C137.411 75.434 138.03 75.1777 138.487 74.7213C138.943 74.265 139.199 73.6461 139.199 73.0007" fill="#0C111D"/>
<path d="M139.199 80.2998H134.332V85.1665H139.199V80.2998Z" fill="#0C111D"/>
<path d="M139.199 85.167H134.332V90.0337H139.199V85.167Z" fill="#0C111D"/>
<path d="M134.332 104.634H139.199V99.7671H136.765C136.12 99.7671 135.501 100.023 135.045 100.48C134.588 100.936 134.332 101.555 134.332 102.2" fill="#0C111D"/>
<path d="M139.199 104.634H134.332V109.5H139.199V104.634Z" fill="#0C111D"/>
<path d="M139.199 114.367H134.333V119.234H136.766C137.411 119.234 138.03 118.977 138.487 118.521C138.943 118.065 139.199 117.446 139.199 116.801" fill="#0C111D"/>
<path d="M134.332 138.7H139.199V133.834H136.765C136.12 133.834 135.501 134.09 135.045 134.546C134.588 135.003 134.332 135.622 134.332 136.267" fill="#0C111D"/>
<path d="M144.066 46.2334H139.2V51.1001H141.633C142.278 51.1001 142.897 50.8437 143.354 50.3874C143.81 49.931 144.066 49.3121 144.066 48.6667" fill="#0C111D"/>
<path d="M144.066 55.9668H139.2V60.8335H141.633C142.278 60.8335 142.897 60.5771 143.354 60.1208C143.81 59.6644 144.066 59.0455 144.066 58.4001" fill="#0C111D"/>
<path d="M139.199 80.2998H144.066V75.4331H141.633C140.987 75.4331 140.368 75.6895 139.912 76.1459C139.456 76.6022 139.199 77.2211 139.199 77.8665" fill="#0C111D"/>
<path d="M144.066 80.2998H139.199V85.1665H144.066V80.2998Z" fill="#0C111D"/>
<path d="M144.066 85.167H139.2V90.0337H141.633C142.278 90.0337 142.897 89.7773 143.354 89.3209C143.81 88.8646 144.066 88.2457 144.066 87.6003" fill="#0C111D"/>
<path d="M139.199 99.7666H144.066V94.8999H141.633C140.987 94.8999 140.368 95.1563 139.912 95.6126C139.456 96.069 139.199 96.6879 139.199 97.3333" fill="#0C111D"/>
<path d="M144.066 99.7666H139.199V104.633H144.066V99.7666Z" fill="#0C111D"/>
<path d="M144.066 104.634H139.2V109.5H141.633C142.278 109.5 142.897 109.244 143.354 108.788C143.81 108.331 144.066 107.712 144.066 107.067" fill="#0C111D"/>
<path d="M139.199 124.101H144.066V119.234H141.633C140.987 119.234 140.368 119.49 139.912 119.947C139.456 120.403 139.199 121.022 139.199 121.667" fill="#0C111D"/>
<path d="M144.066 124.101H139.199V128.967H144.066V124.101Z" fill="#0C111D"/>
<path d="M144.066 128.967H139.199V133.833H144.066V128.967Z" fill="#0C111D"/>
<path d="M144.066 133.834H139.199V138.701H144.066V133.834Z" fill="#0C111D"/>
<path d="M144.066 138.7H139.2V143.567H141.633C142.278 143.567 142.897 143.31 143.354 142.854C143.81 142.398 144.066 141.779 144.066 141.134" fill="#0C111D"/>
<path d="M2.93359 7.2998H7.80026V2.43314H5.36693C4.72157 2.43314 4.10264 2.68951 3.6463 3.14584C3.18996 3.60218 2.93359 4.22111 2.93359 4.86647" fill="#0C111D"/>
<path d="M7.80026 7.2998H2.93359V12.1665H7.80026V7.2998Z" fill="#0C111D"/>
<path d="M7.80026 12.167H2.93359V17.0337H7.80026V12.167Z" fill="#0C111D"/>
<path d="M7.80026 17.0332H2.93359V21.8999H7.80026V17.0332Z" fill="#0C111D"/>
<path d="M7.80026 21.9004H2.93359V26.7671H7.80026V21.9004Z" fill="#0C111D"/>
<path d="M7.80026 26.7666H2.93359V31.6333H7.80026V26.7666Z" fill="#0C111D"/>
<path d="M7.80026 31.6338H2.93359V36.5005H7.80026V31.6338Z" fill="#0C111D"/>
<path d="M12.6674 2.43359H7.80078V7.30026H12.6674V2.43359Z" fill="#0C111D"/>
<path d="M12.6674 31.6338H7.80078V36.5005H12.6674V31.6338Z" fill="#0C111D"/>
<path d="M17.5346 2.43359H12.668V7.30026H17.5346V2.43359Z" fill="#0C111D"/>
<path d="M17.5346 31.6338H12.668V36.5005H17.5346V31.6338Z" fill="#0C111D"/>
<path d="M22.4018 2.43359H17.5352V7.30026H22.4018V2.43359Z" fill="#0C111D"/>
<path d="M22.4018 31.6338H17.5352V36.5005H22.4018V31.6338Z" fill="#0C111D"/>
<path d="M27.2651 2.43359H22.3984V7.30026H27.2651V2.43359Z" fill="#0C111D"/>
<path d="M27.2651 31.6338H22.3984V36.5005H27.2651V31.6338Z" fill="#0C111D"/>
<path d="M32.1323 2.43359H27.2656V7.30026H32.1323V2.43359Z" fill="#0C111D"/>
<path d="M32.1323 31.6338H27.2656V36.5005H32.1323V31.6338Z" fill="#0C111D"/>
<path d="M36.9995 2.43359H32.1328V7.30026H36.9995V2.43359Z" fill="#0C111D"/>
<path d="M36.9995 7.2998H32.1328V12.1665H36.9995V7.2998Z" fill="#0C111D"/>
<path d="M36.9995 12.167H32.1328V17.0337H36.9995V12.167Z" fill="#0C111D"/>
<path d="M36.9995 17.0332H32.1328V21.8999H36.9995V17.0332Z" fill="#0C111D"/>
<path d="M36.9995 21.9004H32.1328V26.7671H36.9995V21.9004Z" fill="#0C111D"/>
<path d="M36.9995 26.7666H32.1328V31.6333H36.9995V26.7666Z" fill="#0C111D"/>
<path d="M37 31.6338H32.1333V36.5005H34.5667C35.212 36.5005 35.831 36.2441 36.2873 35.7878C36.7436 35.3314 37 34.7125 37 34.0671" fill="#0C111D"/>
<path d="M12.668 17.0332H17.5346V12.1665H15.1013C14.4559 12.1665 13.837 12.4229 13.3807 12.8792C12.9243 13.3356 12.668 13.9545 12.668 14.5999" fill="#0C111D"/>
<path d="M17.5346 17.0332H12.668V21.8999H17.5346V17.0332Z" fill="#0C111D"/>
<path d="M17.5346 21.9004H12.668V26.7671H17.5346V21.9004Z" fill="#0C111D"/>
<path d="M22.4018 12.167H17.5352V17.0337H22.4018V12.167Z" fill="#0C111D"/>
<path d="M22.4018 17.0332H17.5352V21.8999H22.4018V17.0332Z" fill="#0C111D"/>
<path d="M22.4018 21.9004H17.5352V26.7671H22.4018V21.9004Z" fill="#0C111D"/>
<path d="M27.269 12.167H22.4023V17.0337H27.269V12.167Z" fill="#0C111D"/>
<path d="M27.269 17.0332H22.4023V21.8999H27.269V17.0332Z" fill="#0C111D"/>
<path d="M27.2695 21.9004H22.4029V26.7671H24.8362C25.4816 26.7671 26.1005 26.5107 26.5568 26.0544C27.0132 25.598 27.2695 24.9791 27.2695 24.3337" fill="#0C111D"/>
<path d="M110 7.2998H114.867V2.43314H112.433C111.788 2.43314 111.169 2.6895 110.713 3.14584C110.256 3.60218 110 4.22111 110 4.86647" fill="#0C111D"/>
<path d="M114.867 7.2998H110V12.1665H114.867V7.2998Z" fill="#0C111D"/>
<path d="M114.867 12.167H110V17.0337H114.867V12.167Z" fill="#0C111D"/>
<path d="M114.867 17.0332H110V21.8999H114.867V17.0332Z" fill="#0C111D"/>
<path d="M114.867 21.9004H110V26.7671H114.867V21.9004Z" fill="#0C111D"/>
<path d="M114.867 26.7666H110V31.6333H114.867V26.7666Z" fill="#0C111D"/>
<path d="M114.867 31.6338H110V36.5005H114.867V31.6338Z" fill="#0C111D"/>
<path d="M119.734 2.43359H114.867V7.30026H119.734V2.43359Z" fill="#0C111D"/>
<path d="M119.734 31.6338H114.867V36.5005H119.734V31.6338Z" fill="#0C111D"/>
<path d="M124.601 2.43359H119.734V7.30026H124.601V2.43359Z" fill="#0C111D"/>
<path d="M124.601 31.6338H119.734V36.5005H124.601V31.6338Z" fill="#0C111D"/>
<path d="M129.468 2.43359H124.602V7.30026H129.468V2.43359Z" fill="#0C111D"/>
<path d="M129.468 31.6338H124.602V36.5005H129.468V31.6338Z" fill="#0C111D"/>
<path d="M134.332 2.43359H129.465V7.30026H134.332V2.43359Z" fill="#0C111D"/>
<path d="M134.332 31.6338H129.465V36.5005H134.332V31.6338Z" fill="#0C111D"/>
<path d="M139.199 2.43359H134.332V7.30026H139.199V2.43359Z" fill="#0C111D"/>
<path d="M139.199 31.6338H134.332V36.5005H139.199V31.6338Z" fill="#0C111D"/>
<path d="M144.066 2.43359H139.199V7.30026H144.066V2.43359Z" fill="#0C111D"/>
<path d="M144.066 7.2998H139.199V12.1665H144.066V7.2998Z" fill="#0C111D"/>
<path d="M144.066 12.167H139.199V17.0337H144.066V12.167Z" fill="#0C111D"/>
<path d="M144.066 17.0332H139.199V21.8999H144.066V17.0332Z" fill="#0C111D"/>
<path d="M144.066 21.9004H139.199V26.7671H144.066V21.9004Z" fill="#0C111D"/>
<path d="M144.066 26.7666H139.199V31.6333H144.066V26.7666Z" fill="#0C111D"/>
<path d="M144.066 31.6338H139.2V36.5005H141.633C142.278 36.5005 142.897 36.2441 143.354 35.7877C143.81 35.3314 144.066 34.7125 144.066 34.0671" fill="#0C111D"/>
<path d="M119.734 17.0332H124.601V12.1665H122.168C121.522 12.1665 120.903 12.4229 120.447 12.8792C119.991 13.3356 119.734 13.9545 119.734 14.5999" fill="#0C111D"/>
<path d="M124.601 17.0332H119.734V21.8999H124.601V17.0332Z" fill="#0C111D"/>
<path d="M124.601 21.9004H119.734V26.7671H124.601V21.9004Z" fill="#0C111D"/>
<path d="M129.468 12.167H124.602V17.0337H129.468V12.167Z" fill="#0C111D"/>
<path d="M129.468 17.0332H124.602V21.8999H129.468V17.0332Z" fill="#0C111D"/>
<path d="M129.468 21.9004H124.602V26.7671H129.468V21.9004Z" fill="#0C111D"/>
<path d="M134.335 12.167H129.469V17.0337H134.335V12.167Z" fill="#0C111D"/>
<path d="M134.335 17.0332H129.469V21.8999H134.335V17.0332Z" fill="#0C111D"/>
<path d="M134.336 21.9004H129.469V26.7671H131.903C132.548 26.7671 133.167 26.5107 133.623 26.0543C134.08 25.598 134.336 24.9791 134.336 24.3337" fill="#0C111D"/>
<path d="M2.93359 114.366H7.80026V109.5H5.36693C4.72157 109.5 4.10264 109.756 3.6463 110.212C3.18996 110.669 2.93359 111.288 2.93359 111.933" fill="#0C111D"/>
<path d="M7.80026 114.366H2.93359V119.233H7.80026V114.366Z" fill="#0C111D"/>
<path d="M7.80026 119.233H2.93359V124.1H7.80026V119.233Z" fill="#0C111D"/>
<path d="M7.80026 124.1H2.93359V128.966H7.80026V124.1Z" fill="#0C111D"/>
<path d="M7.80026 128.967H2.93359V133.833H7.80026V128.967Z" fill="#0C111D"/>
<path d="M7.80026 133.833H2.93359V138.7H7.80026V133.833Z" fill="#0C111D"/>
<path d="M7.80026 138.7H2.93359V143.567H7.80026V138.7Z" fill="#0C111D"/>
<path d="M12.6674 109.5H7.80078V114.367H12.6674V109.5Z" fill="#0C111D"/>
<path d="M12.6674 138.7H7.80078V143.567H12.6674V138.7Z" fill="#0C111D"/>
<path d="M17.5346 109.5H12.668V114.367H17.5346V109.5Z" fill="#0C111D"/>
<path d="M17.5346 138.7H12.668V143.567H17.5346V138.7Z" fill="#0C111D"/>
<path d="M22.4018 109.5H17.5352V114.367H22.4018V109.5Z" fill="#0C111D"/>
<path d="M22.4018 138.7H17.5352V143.567H22.4018V138.7Z" fill="#0C111D"/>
<path d="M27.2651 109.5H22.3984V114.367H27.2651V109.5Z" fill="#0C111D"/>
<path d="M27.2651 138.7H22.3984V143.567H27.2651V138.7Z" fill="#0C111D"/>
<path d="M32.1323 109.5H27.2656V114.367H32.1323V109.5Z" fill="#0C111D"/>
<path d="M32.1323 138.7H27.2656V143.567H32.1323V138.7Z" fill="#0C111D"/>
<path d="M36.9995 109.5H32.1328V114.367H36.9995V109.5Z" fill="#0C111D"/>
<path d="M36.9995 114.366H32.1328V119.233H36.9995V114.366Z" fill="#0C111D"/>
<path d="M36.9995 119.233H32.1328V124.1H36.9995V119.233Z" fill="#0C111D"/>
<path d="M36.9995 124.1H32.1328V128.966H36.9995V124.1Z" fill="#0C111D"/>
<path d="M36.9995 128.967H32.1328V133.833H36.9995V128.967Z" fill="#0C111D"/>
<path d="M36.9995 133.833H32.1328V138.7H36.9995V133.833Z" fill="#0C111D"/>
<path d="M37 138.7H32.1333V143.567H34.5667C35.212 143.567 35.8309 143.31 36.2873 142.854C36.7436 142.398 37 141.779 37 141.134" fill="#0C111D"/>
<path d="M12.668 124.1H17.5346V119.233H15.1013C14.4559 119.233 13.837 119.489 13.3807 119.946C12.9243 120.402 12.668 121.021 12.668 121.666" fill="#0C111D"/>
<path d="M17.5346 124.1H12.668V128.966H17.5346V124.1Z" fill="#0C111D"/>
<path d="M17.5346 128.967H12.668V133.833H17.5346V128.967Z" fill="#0C111D"/>
<path d="M22.4018 119.233H17.5352V124.1H22.4018V119.233Z" fill="#0C111D"/>
<path d="M22.4018 124.1H17.5352V128.966H22.4018V124.1Z" fill="#0C111D"/>
<path d="M22.4018 128.967H17.5352V133.833H22.4018V128.967Z" fill="#0C111D"/>
<path d="M27.269 119.233H22.4023V124.1H27.269V119.233Z" fill="#0C111D"/>
<path d="M27.269 124.1H22.4023V128.966H27.269V124.1Z" fill="#0C111D"/>
<path d="M27.2695 128.967H22.4029V133.833H24.8362C25.4816 133.833 26.1005 133.577 26.5568 133.121C27.0132 132.664 27.2695 132.045 27.2695 131.4" fill="#0C111D"/>
</svg>
