<svg width="25" height="24" viewBox="0 0 25 24" fill="none" xmlns="http://www.w3.org/2000/svg">
<path fill-rule="evenodd" clip-rule="evenodd" d="M5.37287 2.25L5.375 2.25H19.625V3L19.6271 2.25C20.5209 2.25255 21.3773 2.60872 22.0093 3.2407C22.6413 3.87268 22.9975 4.72911 23 5.62287L23 5.625V14.625L23 14.6271C22.9975 15.5209 22.6413 16.3773 22.0093 17.0093C21.3773 17.6413 20.5209 17.9975 19.6271 18L19.625 18H12.0193L7.73028 21.576C7.50674 21.7624 7.19555 21.8026 6.93197 21.6792C6.66838 21.5558 6.5 21.291 6.5 21V18H5.375L5.37287 18C4.47911 17.9975 3.62268 17.6413 2.9907 17.0093C2.35872 16.3773 2.00255 15.5209 2 14.6271L2 14.625V5.625L2 5.62287C2.00255 4.72911 2.35872 3.87268 2.9907 3.2407C3.62268 2.60872 4.47911 2.25255 5.37287 2.25ZM12.1239 17.9128C12.1237 17.913 12.1236 17.9131 12.1234 17.9132L12.1239 17.9128ZM19.6238 3.75H5.37615C4.8791 3.75167 4.40285 3.94987 4.05136 4.30136C3.69987 4.65285 3.50167 5.1291 3.5 5.62615V14.6238C3.50167 15.1209 3.69987 15.5971 4.05136 15.9486C4.40287 16.3001 4.87913 16.4983 5.37621 16.5H7.25C7.66421 16.5 8 16.8358 8 17.25V19.3982L11.1623 16.7616C11.1625 16.7614 11.1627 16.7613 11.1628 16.7611C11.3651 16.5924 11.6202 16.5 11.8836 16.5H19.6238C20.1209 16.4983 20.5971 16.3001 20.9486 15.9486C21.3001 15.5971 21.4983 15.1209 21.5 14.6238V5.62621C21.4983 5.12913 21.3001 4.65287 20.9486 4.30136C20.5971 3.94987 20.1209 3.75167 19.6238 3.75Z" fill="#7C7C7C"/>
<path d="M8 11.625C8.82843 11.625 9.5 10.9534 9.5 10.125C9.5 9.29657 8.82843 8.625 8 8.625C7.17157 8.625 6.5 9.29657 6.5 10.125C6.5 10.9534 7.17157 11.625 8 11.625Z" fill="#7C7C7C"/>
<path d="M12.5 11.625C13.3284 11.625 14 10.9534 14 10.125C14 9.29657 13.3284 8.625 12.5 8.625C11.6716 8.625 11 9.29657 11 10.125C11 10.9534 11.6716 11.625 12.5 11.625Z" fill="#7C7C7C"/>
<path d="M17 11.625C17.8284 11.625 18.5 10.9534 18.5 10.125C18.5 9.29657 17.8284 8.625 17 8.625C16.1716 8.625 15.5 9.29657 15.5 10.125C15.5 10.9534 16.1716 11.625 17 11.625Z" fill="#7C7C7C"/>
</svg>
