<svg width="25" height="24" viewBox="0 0 25 24" fill="none" xmlns="http://www.w3.org/2000/svg">
<path fill-rule="evenodd" clip-rule="evenodd" d="M6.35587 3.61739C7.69014 2.72585 9.25882 2.25 10.8635 2.25H10.8636C13.0154 2.25014 15.079 3.105 16.6006 4.62655C18.1221 6.14811 18.977 8.21174 18.9771 10.3635V10.3636C18.9771 11.9683 18.5013 13.537 17.6097 14.8713C17.4533 15.1054 17.2852 15.3305 17.1065 15.5459L22.0303 20.4697C22.3232 20.7626 22.3232 21.2374 22.0303 21.5303C21.7374 21.8232 21.2625 21.8232 20.9696 21.5303L16.0458 16.6065C15.4234 17.1232 14.7239 17.5467 13.9685 17.8596C12.4859 18.4737 10.8545 18.6344 9.28065 18.3213C7.70677 18.0082 6.26107 17.2355 5.12636 16.1008C3.99165 14.9661 3.21891 13.5204 2.90584 11.9465C2.59278 10.3726 2.75345 8.74122 3.36755 7.25866C3.98165 5.77609 5.02159 4.50892 6.35587 3.61739ZM10.8635 3.75C9.55546 3.75001 8.27681 4.13789 7.18922 4.86459C6.10162 5.5913 5.25394 6.6242 4.75337 7.83268C4.25281 9.04116 4.12183 10.3709 4.37702 11.6538C4.63221 12.9368 5.26209 14.1152 6.18702 15.0401C7.11195 15.965 8.29038 16.5949 9.57329 16.8501C10.8562 17.1053 12.186 16.9743 13.3945 16.4738C14.6029 15.9732 15.6358 15.1255 16.3625 14.0379C17.0892 12.9503 17.4771 11.6717 17.4771 10.3636M10.8635 3.75C12.6175 3.75012 14.2997 4.44695 15.5399 5.68721C16.7802 6.92748 17.477 8.6096 17.4771 10.3636" fill="white"/>
</svg>
