<svg width="17" height="16" viewBox="0 0 17 16" fill="none" xmlns="http://www.w3.org/2000/svg">
<path fill-rule="evenodd" clip-rule="evenodd" d="M8.50004 1C8.71664 1 8.90861 1.13946 8.97555 1.34546L10.4883 6H15.5C15.7192 6 15.9128 6.14268 15.9776 6.35198C16.0425 6.56129 15.9635 6.78844 15.7828 6.91236L11.7197 9.69847L13.2863 14.3401C13.3558 14.5462 13.2842 14.7737 13.109 14.9027C12.9338 15.0316 12.6953 15.0325 12.5191 14.9049L8.50004 11.9925L4.48092 14.9049C4.30477 15.0325 4.06629 15.0316 3.89111 14.9027C3.71592 14.7737 3.64423 14.5462 3.71379 14.3401L5.28034 9.69847L1.21727 6.91236C1.03655 6.78844 0.95758 6.56129 1.02245 6.35198C1.08732 6.14268 1.28091 6 1.50004 6H6.51179L8.02452 1.34546C8.09147 1.13946 8.28344 1 8.50004 1ZM8.50004 3.11767L7.35055 6.65454C7.28361 6.86054 7.09164 7 6.87504 7H3.11333L6.1578 9.08764C6.34233 9.21417 6.42033 9.44789 6.34878 9.65989L5.16195 13.1764L8.20665 10.9701C8.38168 10.8433 8.61839 10.8433 8.79342 10.9701L11.8381 13.1764L10.6513 9.65989C10.5797 9.44789 10.6577 9.21417 10.8423 9.08764L13.8867 7H10.125C9.90844 7 9.71647 6.86054 9.64952 6.65454L8.50004 3.11767Z" fill="white"/>
</svg>
