<svg width="124" height="124" viewBox="0 0 124 124" fill="none" xmlns="http://www.w3.org/2000/svg">
<circle cx="62" cy="62" r="62" fill="#C8FFC8"/>
<circle cx="61.9985" cy="62.0005" r="51.3714" fill="#6CCC73"/>
<path fill-rule="evenodd" clip-rule="evenodd" d="M80.1452 50.3722C80.6974 50.8554 80.7534 51.6947 80.2702 52.2469L61.6702 73.5041C61.4281 73.7808 61.0821 73.9448 60.7146 73.957C60.3471 73.9693 59.9909 73.8286 59.7309 73.5686L51.7595 65.5972C51.2406 65.0784 51.2406 64.2372 51.7595 63.7183C52.2783 63.1995 53.1195 63.1995 53.6384 63.7183L60.6056 70.6856L78.2705 50.4972C78.7537 49.945 79.593 49.889 80.1452 50.3722Z" fill="white"/>
<path fill-rule="evenodd" clip-rule="evenodd" d="M43.7881 63.7183C44.3069 63.1995 45.1481 63.1995 45.6669 63.7183L53.6384 71.6897C54.1572 72.2086 54.1572 73.0498 53.6384 73.5686C53.1195 74.0875 52.2783 74.0875 51.7595 73.5686L43.7881 65.5972C43.2692 65.0784 43.2692 64.2372 43.7881 63.7183Z" fill="white"/>
<path fill-rule="evenodd" clip-rule="evenodd" d="M72.172 50.3706C72.7251 50.8528 72.7825 51.692 72.3004 52.2451L61.0075 65.1987C60.5253 65.7518 59.6861 65.8092 59.133 65.3271C58.5799 64.8449 58.5225 64.0056 59.0046 63.4526L70.2975 50.499C70.7797 49.9459 71.6189 49.8884 72.172 50.3706Z" fill="white"/>
</svg>
