<svg width="14" height="12" viewBox="0 0 14 12" fill="none" xmlns="http://www.w3.org/2000/svg">
<path d="M0.21967 3.21967C-0.0732233 3.51256 -0.0732233 3.98744 0.21967 4.28033C0.512563 4.57322 0.987437 4.57322 1.28033 4.28033L3 2.56066L3 11.25C3 11.6642 3.33579 12 3.75 12C4.16421 12 4.5 11.6642 4.5 11.25L4.5 2.56066L6.21967 4.28033C6.51256 4.57322 6.98744 4.57322 7.28033 4.28033C7.57322 3.98744 7.57322 3.51256 7.28033 3.21967L4.28033 0.21967C3.98744 -0.0732231 3.51256 -0.0732231 3.21967 0.21967L0.21967 3.21967ZM7.78033 7.71967C7.48744 7.42678 7.01256 7.42678 6.71967 7.71967C6.42678 8.01256 6.42678 8.48744 6.71967 8.78033L9.71967 11.7803C9.86032 11.921 10.0511 12 10.25 12C10.4489 12 10.6397 11.921 10.7803 11.7803L13.7803 8.78033C14.0732 8.48744 14.0732 8.01256 13.7803 7.71967C13.4874 7.42678 13.0126 7.42678 12.7197 7.71967L11 9.43934V0.75C11 0.335787 10.6642 0 10.25 0C9.83579 0 9.5 0.335787 9.5 0.75V9.43934L7.78033 7.71967Z" fill="#20463C"/>
</svg>
