<svg width="18" height="18" viewBox="0 0 18 18" fill="none" xmlns="http://www.w3.org/2000/svg">
<path d="M11.8119 9C11.0891 9 10.3902 8.67727 9.84316 8.09156C9.31125 7.52027 8.9864 6.75844 8.9291 5.94703C8.86793 5.08148 9.13195 4.28555 9.6723 3.70547C10.2127 3.12539 10.9682 2.8125 11.8119 2.8125C12.6497 2.8125 13.4073 3.13102 13.9459 3.70969C14.4898 4.29398 14.7545 5.08852 14.6933 5.94668C14.6346 6.75914 14.3101 7.52063 13.7793 8.09121C13.2336 8.67727 12.5351 9 11.8119 9Z" fill="#373737"/>
<path d="M16.4466 15.1875H7.17761C7.02859 15.1883 6.88137 15.1549 6.74728 15.0899C6.6132 15.0248 6.49582 14.9299 6.40418 14.8124C6.30697 14.685 6.23984 14.5372 6.20782 14.3802C6.17579 14.2232 6.1797 14.061 6.21925 13.9057C6.51527 12.7171 7.24863 11.7313 8.33988 11.0552C9.30843 10.4555 10.5414 10.125 11.8119 10.125C13.1074 10.125 14.308 10.4414 15.2822 11.0408C16.3759 11.7134 17.1103 12.7048 17.4049 13.9078C17.444 14.0632 17.4475 14.2254 17.4151 14.3824C17.3827 14.5393 17.3153 14.6869 17.2179 14.8141C17.1263 14.9311 17.0092 15.0256 16.8755 15.0903C16.7418 15.155 16.5951 15.1883 16.4466 15.1875Z" fill="#373737"/>
<path d="M5.16738 9.14062C3.93023 9.14062 2.8425 7.99031 2.7416 6.57668C2.69168 5.85246 2.91738 5.18273 3.37441 4.6916C3.82652 4.20539 4.46425 3.9375 5.16738 3.9375C5.8705 3.9375 6.50332 4.2068 6.95789 4.69582C7.41843 5.19082 7.64343 5.85914 7.5907 6.57738C7.4898 7.99066 6.40242 9.14062 5.16738 9.14062Z" fill="#373737"/>
<path d="M7.47574 10.2463C6.85734 9.94395 6.05472 9.79277 5.16773 9.79277C4.13203 9.79277 3.12621 10.0628 2.33519 10.5529C1.43836 11.1094 0.835075 11.9197 0.591442 12.8981C0.555788 13.0389 0.552416 13.1858 0.581578 13.328C0.610739 13.4703 0.671679 13.604 0.75984 13.7194C0.843494 13.8268 0.950663 13.9135 1.07311 13.973C1.19555 14.0325 1.33 14.0631 1.46613 14.0625H5.36847C5.43434 14.0625 5.49811 14.0394 5.54867 13.9972C5.59924 13.9549 5.63338 13.8963 5.64515 13.8315C5.64902 13.8094 5.65394 13.7872 5.65957 13.7654C5.95769 12.568 6.65625 11.5562 7.68843 10.8186C7.7264 10.7913 7.75693 10.7549 7.77727 10.7127C7.79761 10.6706 7.80711 10.624 7.80491 10.5773C7.80271 10.5305 7.78888 10.4851 7.76468 10.445C7.74047 10.4049 7.70665 10.3716 7.66629 10.3479C7.61109 10.3155 7.54781 10.2814 7.47574 10.2463Z" fill="#373737"/>
</svg>
