<svg width="14" height="16" viewBox="0 0 14 16" fill="none" xmlns="http://www.w3.org/2000/svg">
<path fill-rule="evenodd" clip-rule="evenodd" d="M5.4269 1.14286C5.38957 1.14275 5.35258 1.15002 5.31807 1.16426C5.28356 1.17849 5.2522 1.19941 5.22581 1.22581C5.19941 1.25221 5.17849 1.28356 5.16425 1.31807C5.15002 1.35259 5.14275 1.38957 5.14285 1.4269L5.14286 1.42858V2.28572H8.57143V1.42858L8.57143 1.4269C8.57154 1.38957 8.56427 1.35259 8.55003 1.31807C8.5358 1.28356 8.51488 1.2522 8.48848 1.22581C8.46208 1.19941 8.43073 1.17849 8.39622 1.16426C8.3617 1.15002 8.32472 1.14275 8.28739 1.14286L8.28572 1.14286H5.42857L5.4269 1.14286ZM2.32254 3.42858L2.99889 14.2501C2.99902 14.2522 2.99914 14.2543 2.99925 14.2564C3.01901 14.641 3.27433 14.8571 3.57143 14.8571H10.1429C10.437 14.8571 10.6912 14.6458 10.7154 14.2509L11.3917 3.42858H2.32254ZM11.9947 2.28572H9.71429V1.42942C9.71473 1.24173 9.67811 1.05579 9.60653 0.882268C9.53485 0.708496 9.42952 0.550608 9.2966 0.417687C9.16368 0.284765 9.00579 0.179436 8.83202 0.107755C8.65854 0.036194 8.47264 -0.000421876 8.28498 3.66699e-06H5.4293C5.24165 -0.000421876 5.05575 0.0361939 4.88226 0.107755C4.70849 0.179437 4.5506 0.284766 4.41768 0.417687C4.28476 0.550607 4.17943 0.708495 4.10775 0.882268C4.03619 1.05575 3.99957 1.24165 4 1.42931V2.28572H1.71956C1.71641 2.28569 1.71326 2.28569 1.7101 2.28572H0.571429C0.255837 2.28572 0 2.54156 0 2.85715C0 3.17274 0.255837 3.42858 0.571429 3.42858H1.17746L1.85807 14.3185C1.90772 15.253 2.61255 16 3.57143 16H10.1429C11.1108 16 11.7995 15.2464 11.8561 14.3207C11.8561 14.3206 11.8561 14.3206 11.8561 14.3206L12.5368 3.42858H13.1429C13.4584 3.42858 13.7143 3.17274 13.7143 2.85715C13.7143 2.54156 13.4584 2.28572 13.1429 2.28572H12.0042C12.001 2.28569 11.9979 2.28569 11.9947 2.28572ZM4.26532 4.5718C4.58071 4.56053 4.84552 4.80708 4.85678 5.12247L5.14249 13.1225C5.15376 13.4379 4.90721 13.7027 4.59182 13.7139C4.27643 13.7252 4.01163 13.4786 4.00036 13.1633L3.71465 5.16326C3.70339 4.84787 3.94993 4.58306 4.26532 4.5718ZM9.44897 4.5718C9.76436 4.58306 10.0109 4.84787 9.99964 5.16326L9.71392 13.1633C9.70266 13.4786 9.43785 13.7252 9.12246 13.7139C8.80707 13.7027 8.56053 13.4379 8.57179 13.1225L8.85751 5.12247C8.86877 4.80708 9.13358 4.56053 9.44897 4.5718ZM6.85714 4.57143C7.17273 4.57143 7.42857 4.82727 7.42857 5.14286V13.1429C7.42857 13.4585 7.17273 13.7143 6.85714 13.7143C6.54155 13.7143 6.28571 13.4585 6.28571 13.1429V5.14286C6.28571 4.82727 6.54155 4.57143 6.85714 4.57143Z" fill="#373737"/>
</svg>
