<svg width="23" height="24" viewBox="0 0 23 24" fill="none" xmlns="http://www.w3.org/2000/svg">
<path fill-rule="evenodd" clip-rule="evenodd" d="M13.6782 1.02195C13.853 0.847192 14.0901 0.749023 14.3373 0.749023C14.5845 0.749023 14.8216 0.847192 14.9964 1.02195L17.0628 3.09067C17.0634 3.09128 17.064 3.09189 17.0646 3.0925C17.2304 3.25774 17.3279 3.47935 17.3377 3.71325C17.3475 3.94803 17.2682 4.17784 17.1157 4.35662L17.115 4.3574L17.1144 4.35818C16.8783 4.63341 16.7548 4.98761 16.7687 5.34994C16.7825 5.71206 16.9324 6.05564 17.1885 6.31203C17.4453 6.56758 17.789 6.71689 18.151 6.73014C18.5134 6.74339 18.8674 6.61939 19.1422 6.38292L19.1434 6.38188L19.1446 6.38084C19.3234 6.22836 19.5532 6.14907 19.788 6.15889C20.022 6.16868 20.2438 6.26629 20.409 6.43224C20.4095 6.43275 20.4101 6.43327 20.4106 6.43379L22.477 8.50016C22.6517 8.67499 22.7499 8.91207 22.7499 9.15928C22.7499 9.40648 22.6517 9.64356 22.477 9.81839L19.1797 13.1156C19.1797 13.1157 19.1797 13.1157 19.1796 13.1157C18.9759 13.3195 18.7274 13.4731 18.454 13.5643C18.4012 13.582 18.3533 13.6118 18.314 13.6512C18.2746 13.6908 18.2449 13.7389 18.2274 13.7919L18.2272 13.7926L18.2269 13.7932C18.1358 14.0668 17.9823 14.3155 17.7786 14.5196L9.32171 22.976C9.14688 23.1507 8.90981 23.2489 8.6626 23.2489C8.41539 23.2489 8.17831 23.1507 8.00348 22.976L5.93711 20.9096C5.93659 20.9091 5.93607 20.9086 5.93556 20.9081C5.76961 20.7428 5.672 20.5211 5.66221 20.287C5.65239 20.0522 5.73167 19.8224 5.88416 19.6437L5.88499 19.6427L5.88581 19.6417C6.12211 19.3666 6.24576 19.0124 6.23202 18.6499C6.21827 18.2875 6.06815 17.9437 5.8117 17.6872C5.55524 17.4308 5.21139 17.2806 4.84897 17.2669C4.48655 17.2531 4.13231 17.3768 3.85718 17.6131L3.85621 17.6139L3.85525 17.6147C3.67647 17.7672 3.44666 17.8465 3.21189 17.8367C2.97806 17.8269 2.75652 17.7295 2.59131 17.5638C2.59064 17.5631 2.58997 17.5625 2.58931 17.5618L0.522923 15.4954C0.348169 15.3206 0.25 15.0835 0.25 14.8363C0.25 14.5891 0.348169 14.352 0.522923 14.1772L8.97934 5.72265C9.18319 5.51919 9.43148 5.36583 9.70466 5.27463M17.8932 12.1725C17.9212 12.1616 17.9495 12.1514 17.9781 12.1418L17.9792 12.1415C18.0318 12.1239 18.0797 12.0944 18.1189 12.0551L18.119 12.055L21.0147 9.15928L19.6856 7.83014C19.2075 8.1093 18.6567 8.24964 18.0962 8.22914C17.3562 8.20207 16.6537 7.89666 16.1292 7.37399L16.1286 7.37348L16.1281 7.37296C15.6046 6.84922 15.298 6.14715 15.2698 5.40714C15.2484 4.84614 15.3881 4.2947 15.667 3.81583L14.3371 2.48438L11.4414 5.37999C11.4022 5.41919 11.3727 5.46697 11.3552 5.51955C11.3457 5.54802 11.3356 5.57621 11.3248 5.60411L11.7725 6.05176C12.0654 6.34465 12.0654 6.81952 11.7725 7.11242C11.4796 7.40531 11.0047 7.40531 10.7118 7.11242L10.2657 6.66632C10.2377 6.67724 10.2094 6.68748 10.1808 6.69704L10.1803 6.69721L10.1798 6.69737C10.1268 6.71504 10.0787 6.74477 10.0391 6.78422C10.0391 6.78426 10.039 6.78429 10.039 6.78433L1.98518 14.8364L3.31453 16.1657C3.79332 15.8866 4.34477 15.7467 4.90581 15.768C5.64612 15.796 6.3485 16.1027 6.87236 16.6265C7.39621 17.1504 7.70287 17.8528 7.73094 18.5931C7.75221 19.1541 7.6123 19.7056 7.3332 20.1844L8.66261 21.5138L16.7169 13.4599C16.7562 13.4205 16.7859 13.3726 16.8036 13.3198C16.8131 13.2912 16.8233 13.2628 16.8341 13.2347L16.3865 12.7871C16.0936 12.4942 16.0936 12.0193 16.3865 11.7264C16.6794 11.4336 17.1543 11.4336 17.4471 11.7264L17.8932 12.1725ZM9.70466 5.27463C9.75754 5.25692 9.80562 5.22712 9.84499 5.18762C9.88437 5.1481 9.914 5.09996 9.93154 5.047L9.93175 5.04635L9.93196 5.04571C10.0231 4.77197 10.1768 4.52325 10.3809 4.31926C10.3809 4.31923 10.3809 4.31921 10.3809 4.31919L13.6782 1.02195M12.2589 7.59981C12.5517 7.30678 13.0265 7.30657 13.3196 7.59933L13.8357 8.11495C14.1287 8.40771 14.1289 8.88259 13.8361 9.17562C13.5434 9.46864 13.0685 9.46886 12.7755 9.1761L12.2594 8.66047C11.9664 8.36771 11.9661 7.89284 12.2589 7.59981ZM14.3233 9.66277C14.6163 9.37001 15.0912 9.37022 15.3839 9.66325L15.8996 10.1793C16.1923 10.4724 16.1921 10.9472 15.8991 11.24C15.6061 11.5328 15.1312 11.5325 14.8384 11.2395L14.3228 10.7234C14.03 10.4304 14.0303 9.95553 14.3233 9.66277Z" fill="#ABABAB"/>
</svg>
