<svg width="25" height="24" viewBox="0 0 25 24" fill="none" xmlns="http://www.w3.org/2000/svg">
<path d="M23.4772 8.50303L21.4086 6.43444C21.2417 6.26979 21.0192 6.17365 20.7849 6.16498C20.5506 6.1563 20.3216 6.23571 20.143 6.38756C19.8672 6.62228 19.5134 6.74484 19.1515 6.73095C18.7896 6.71706 18.4462 6.56773 18.1892 6.31256C17.9342 6.05563 17.785 5.71229 17.7711 5.35054C17.7572 4.98879 17.8797 4.63501 18.1142 4.35928C18.2661 4.18067 18.3455 3.95164 18.3368 3.71736C18.3282 3.48308 18.232 3.26055 18.0674 3.09366L15.9969 1.02272C15.8219 0.848082 15.5848 0.75 15.3376 0.75C15.0904 0.75 14.8533 0.848082 14.6783 1.02272L11.3807 4.31991C11.1771 4.52423 11.0235 4.77291 10.9321 5.04647C10.9143 5.09906 10.8846 5.14685 10.8453 5.18611C10.806 5.22538 10.7582 5.25507 10.7057 5.27288C10.432 5.36433 10.1833 5.51805 9.97909 5.72194L1.52284 14.1782C1.3482 14.3532 1.25012 14.5903 1.25012 14.8375C1.25012 15.0847 1.3482 15.3218 1.52284 15.4968L3.59378 17.5654C3.76067 17.73 3.9832 17.8262 4.21748 17.8348C4.45176 17.8435 4.68079 17.7641 4.8594 17.6123C5.13451 17.3756 5.48887 17.2517 5.85147 17.2653C6.21408 17.2789 6.55815 17.4291 6.81473 17.6857C7.07132 17.9423 7.22146 18.2863 7.23507 18.6489C7.24869 19.0115 7.12477 19.3659 6.88815 19.641C6.73631 19.8196 6.65689 20.0486 6.66557 20.2829C6.67424 20.5172 6.77038 20.7397 6.93503 20.9066L9.00362 22.9752C9.1786 23.1499 9.41571 23.2479 9.66292 23.2479C9.91013 23.2479 10.1472 23.1499 10.3222 22.9752L18.7785 14.519C18.9822 14.3149 19.1359 14.0663 19.2275 13.7929C19.2453 13.7401 19.275 13.6922 19.3143 13.6528C19.3537 13.6134 19.4016 13.5837 19.4544 13.566C19.7278 13.4745 19.9763 13.321 20.1805 13.1174L23.4777 9.81975C23.6517 9.64479 23.7493 9.40805 23.7492 9.16129C23.7491 8.91454 23.6513 8.67786 23.4772 8.50303ZM12.7724 7.11319C12.7027 7.18285 12.62 7.23811 12.529 7.27581C12.438 7.31351 12.3405 7.33292 12.242 7.33292C12.1435 7.33292 12.0459 7.31351 11.9549 7.27581C11.8639 7.23811 11.7812 7.18285 11.7116 7.11319L11.1721 6.57366C11.0348 6.4323 10.9587 6.24262 10.9602 6.04561C10.9617 5.8486 11.0406 5.66008 11.18 5.52081C11.3193 5.38153 11.5079 5.30267 11.7049 5.30127C11.9019 5.29988 12.0915 5.37605 12.2328 5.51334L12.7724 6.05241C12.842 6.12205 12.8973 6.20474 12.935 6.29575C12.9727 6.38675 12.9921 6.48429 12.9921 6.5828C12.9921 6.6813 12.9727 6.77884 12.935 6.86985C12.8973 6.96086 12.842 7.04354 12.7724 7.11319ZM14.8349 9.17569C14.6942 9.31623 14.5035 9.39518 14.3047 9.39518C14.1059 9.39518 13.9152 9.31623 13.7746 9.17569L13.2589 8.66006C13.1893 8.59041 13.134 8.50772 13.0963 8.41672C13.0586 8.32571 13.0392 8.22818 13.0392 8.12967C13.0392 8.03117 13.0586 7.93363 13.0963 7.84263C13.134 7.75162 13.1893 7.66893 13.2589 7.59928C13.3996 7.45861 13.5904 7.37959 13.7893 7.37959C13.8878 7.37959 13.9854 7.39899 14.0764 7.43668C14.1674 7.47438 14.2501 7.52963 14.3197 7.59928L14.8353 8.11491C14.9052 8.18455 14.9607 8.2673 14.9986 8.35842C15.0365 8.44954 15.056 8.54723 15.056 8.6459C15.0561 8.74458 15.0366 8.84229 14.9988 8.93344C14.9611 9.02459 14.9057 9.10739 14.8358 9.17709L14.8349 9.17569ZM16.8974 11.2382C16.8277 11.3078 16.745 11.3631 16.654 11.4008C16.563 11.4385 16.4655 11.4579 16.367 11.4579C16.2685 11.4579 16.1709 11.4385 16.0799 11.4008C15.9889 11.3631 15.9062 11.3078 15.8366 11.2382L15.321 10.7226C15.1837 10.5812 15.1076 10.3915 15.1091 10.1945C15.1106 9.9975 15.1896 9.80899 15.3289 9.66971C15.4682 9.53043 15.6568 9.45157 15.8538 9.45018C16.0508 9.44878 16.2404 9.52496 16.3817 9.66225L16.8974 10.1779C16.9675 10.2474 17.0232 10.3301 17.0612 10.4212C17.0993 10.5123 17.119 10.61 17.1192 10.7087C17.1194 10.8074 17.1002 10.9052 17.0625 10.9965C17.0248 11.0878 16.9695 11.1707 16.8997 11.2405L16.8974 11.2382ZM18.98 13.326C18.9104 13.3957 18.8277 13.4509 18.7367 13.4886C18.6457 13.5263 18.5481 13.5457 18.4496 13.5457C18.3511 13.5457 18.2536 13.5263 18.1626 13.4886C18.0716 13.4509 17.9889 13.3957 17.9192 13.326L17.383 12.7869C17.3119 12.7175 17.2553 12.6346 17.2165 12.5431C17.1776 12.4516 17.1574 12.3533 17.1569 12.2539C17.1565 12.1545 17.1758 12.056 17.2137 11.9641C17.2516 11.8722 17.3074 11.7888 17.3779 11.7187C17.4484 11.6486 17.532 11.5931 17.6241 11.5557C17.7162 11.5182 17.8148 11.4994 17.9142 11.5003C18.0136 11.5013 18.1118 11.522 18.2031 11.5612C18.2944 11.6005 18.377 11.6575 18.4461 11.729L18.9828 12.2676C19.0525 12.3372 19.1077 12.42 19.1454 12.511C19.183 12.602 19.2024 12.6995 19.2023 12.7981C19.2023 12.8966 19.1828 12.9941 19.1451 13.0851C19.1074 13.1761 19.0521 13.2587 18.9824 13.3283L18.98 13.326Z" fill="#FD6905"/>
</svg>
