<svg width="25" height="22" viewBox="0 0 25 22" fill="none" xmlns="http://www.w3.org/2000/svg">
<path d="M16.8611 0.327148H17.9781C18.0736 0.344174 18.17 0.355005 18.2669 0.359574C19.5513 0.470492 20.7908 0.887343 21.8824 1.57549C22.6778 2.08037 23.3463 2.76282 23.8355 3.5696C23.9668 3.78611 24.0869 4.00933 24.1951 4.23835C24.5211 4.94743 24.7259 5.70649 24.801 6.48375C24.8232 6.60737 24.8131 6.73504 24.8353 6.86068C24.8576 6.98633 24.8353 7.16466 24.8353 7.31868C24.8431 7.49447 24.8377 7.6706 24.8192 7.84558C24.795 8.29629 24.7383 8.74465 24.6495 9.18714C24.6031 9.45059 24.5223 9.70796 24.4698 9.97141L22.8761 16.3611C22.7893 16.7562 22.6842 17.1473 22.5893 17.5385C22.5394 17.7961 22.4466 18.0434 22.3146 18.2701C22.2049 18.4414 22.0685 18.594 21.9106 18.722C21.5345 19.0103 21.0731 19.1644 20.5998 19.1597C20.4001 19.1477 20.2027 19.1109 20.012 19.0503C19.8087 18.9827 19.624 18.8681 19.4727 18.7159C19.2673 18.5252 19.1453 18.2608 19.1334 17.9803C19.1232 17.8073 19.1459 17.634 19.2001 17.4696C19.4532 16.4577 19.705 15.4478 19.9555 14.4399C20.0645 14.0143 20.1575 13.5827 20.2685 13.1571C20.6361 11.6859 21.0031 10.2153 21.3693 8.74536C21.457 8.38475 21.5137 8.01728 21.539 7.64698C21.5474 7.36175 21.5407 7.07628 21.5188 6.79178C21.4832 6.43604 21.3968 6.0873 21.2623 5.75623C21.1375 5.43798 20.9577 5.14435 20.7311 4.88887C20.6557 4.80442 20.574 4.72584 20.4867 4.65379C20.4513 4.61615 20.4128 4.58157 20.3716 4.55044C20.1379 4.36413 19.8805 4.21009 19.606 4.09244C19.3635 3.97656 19.1097 3.88624 18.8486 3.82291C18.4896 3.71745 18.1194 3.65487 17.7458 3.63647C17.5788 3.61822 17.4107 3.61213 17.2429 3.61823C17.1096 3.61823 16.9803 3.6466 16.8389 3.64255C16.2204 3.69989 15.6124 3.84031 15.0312 4.06002C14.6501 4.20004 14.2807 4.37012 13.9263 4.56868C13.4938 4.81694 13.0878 5.10893 12.7145 5.44009C12.5892 5.56978 12.46 5.69543 12.3347 5.82513C12.078 6.10613 11.8673 6.42625 11.7106 6.77354C11.5531 7.28828 11.4198 7.81113 11.2763 8.32789C11.1006 9.0007 10.9188 9.66946 10.7512 10.3423C10.5492 11.1042 10.3654 11.8703 10.1453 12.6282C10.0483 12.9457 9.95068 13.2638 9.85238 13.5827C9.81719 13.7592 9.76231 13.9312 9.68878 14.0954C9.55246 14.3795 9.35048 14.6269 9.09963 14.8169C8.84879 15.0069 8.55634 15.134 8.24663 15.1877C7.8232 15.2787 7.38116 15.2063 7.00849 14.985C6.89575 14.9118 6.7955 14.8208 6.71158 14.7155C6.55304 14.5231 6.45342 14.2887 6.42476 14.0407C6.39747 13.9261 6.39747 13.8067 6.42476 13.6921C6.92568 12.0466 7.32358 10.3706 7.75986 8.70887C8.00426 7.77059 8.24663 6.83028 8.51931 5.90011C8.58486 5.67437 8.67424 5.4563 8.78592 5.24959C9.08943 4.63485 9.47843 4.06647 9.94125 3.56149L10.4745 3.02649C10.7529 2.77761 11.0442 2.54356 11.347 2.3253C11.5005 2.19763 11.6783 2.10442 11.8419 1.98891C12.4974 1.57641 13.1956 1.23666 13.9243 0.975638C14.1041 0.914842 14.2798 0.839861 14.4636 0.793251C14.8495 0.674251 15.242 0.578163 15.6391 0.505484C15.9461 0.440635 16.2592 0.412264 16.5703 0.369707C16.6632 0.370172 16.7558 0.361346 16.847 0.343361L16.8611 0.327148Z" fill="#00579C"/>
<path d="M3.83764 3.52743C3.94671 3.52743 4.05376 3.49905 4.16283 3.50108C4.45007 3.51509 4.73254 3.58028 4.99701 3.6936C5.18277 3.77984 5.34341 3.9124 5.46359 4.07864C5.53364 4.18223 5.5804 4.29986 5.60063 4.42339C5.62086 4.54692 5.61407 4.67338 5.58074 4.79401C5.44137 5.33914 5.31412 5.89036 5.16668 6.43347C5.0024 7.09412 4.83812 7.75409 4.67384 8.41339C4.55063 8.91394 4.41328 9.41247 4.29412 9.91505C4.15004 10.4865 4.0073 11.0587 3.86592 11.6315C3.74473 12.0814 3.63566 12.5374 3.52255 12.9913C3.38289 13.4783 3.30285 13.9805 3.28421 14.4869C3.26106 14.621 3.26106 14.7581 3.28421 14.8922C3.29236 15.4233 3.40996 15.947 3.6296 16.4303C3.72985 16.6293 3.84818 16.8186 3.98307 16.9957C4.08613 17.1245 4.19963 17.2445 4.32239 17.3544C4.46079 17.4741 4.60798 17.5832 4.76271 17.6807C4.93211 17.7855 5.10822 17.8789 5.28988 17.9604C5.69466 18.1231 6.11494 18.244 6.54418 18.3211C6.94454 18.3874 7.35096 18.4091 7.75607 18.3859C8.77266 18.3196 9.76382 18.0386 10.6646 17.5611C11.1941 17.2869 11.6868 16.9464 12.131 16.5479C12.3886 16.3075 12.6196 16.0398 12.8197 15.7494C12.9499 15.5752 13.0509 15.3808 13.1187 15.1739C13.6519 13.3298 14.1023 11.4633 14.5951 9.60702C14.6961 9.24021 14.8193 8.88152 14.9264 8.51674C15.0225 8.17569 15.1913 7.85967 15.4213 7.59062C15.5529 7.4293 15.7114 7.29216 15.8898 7.18531C16.2685 6.95114 16.714 6.84992 17.1563 6.89755C17.368 6.91773 17.5738 6.97898 17.7622 7.0779C17.9978 7.1852 18.1921 7.36662 18.3156 7.59467C18.4211 7.81638 18.4447 8.06844 18.3823 8.30598C18.051 9.41652 17.7562 10.5352 17.4693 11.6599C17.0775 13.1717 16.6998 14.6855 16.2575 16.1851C16.2183 16.3206 16.1669 16.4522 16.1039 16.5783C15.9958 16.8264 15.8695 17.0662 15.7262 17.2957C15.4809 17.7018 15.1953 18.082 14.8739 18.4305C14.7426 18.5967 14.579 18.7345 14.4356 18.8885C13.6953 19.5778 12.8566 20.1522 11.9472 20.5928C11.6907 20.7083 11.4362 20.832 11.1716 20.9313C10.9433 21.0306 10.701 21.0995 10.4667 21.1846C10.1031 21.3021 9.73347 21.3872 9.36182 21.4764C9.21842 21.5048 9.07703 21.523 8.93564 21.5534C8.7175 21.5919 8.49936 21.6081 8.28122 21.6426C8.16887 21.6445 8.0568 21.6546 7.94593 21.673H6.82494C6.78367 21.6603 6.74084 21.6535 6.69769 21.6527C6.53813 21.6527 6.38058 21.6102 6.22102 21.602C5.73614 21.5393 5.25764 21.4342 4.79099 21.2879C4.2695 21.1285 3.76642 20.9139 3.29027 20.6475C2.94607 20.4473 2.61848 20.2196 2.31066 19.9666C2.21031 19.8856 2.11456 19.799 2.02385 19.7072C1.88448 19.5613 1.73098 19.4316 1.60575 19.2736C0.775716 18.3102 0.243662 17.125 0.074732 15.8629C0.0403952 15.6603 0.0343368 15.4576 0 15.255V14.1079C0.0148358 14.0311 0.0236164 13.9531 0.0262585 13.8749C0.0776503 13.3101 0.176982 12.7508 0.323171 12.203C0.559489 11.2667 0.783688 10.3244 1.0301 9.39018L1.59363 7.1306C1.76935 6.46995 1.92488 5.80322 2.09454 5.13851C2.12761 4.97149 2.1763 4.80797 2.23997 4.65012C2.31616 4.46863 2.42349 4.30196 2.55708 4.15767C2.62777 4.0908 2.69443 4.01784 2.75906 3.95502C3.06996 3.7111 3.44453 3.56261 3.83764 3.52743Z" fill="#DA251C"/>
</svg>
