<svg width="21" height="21" viewBox="0 0 21 21" fill="none" xmlns="http://www.w3.org/2000/svg">
    <path fill-rule="evenodd" clip-rule="evenodd"
        d="M3.57812 2.3064C2.7497 2.3064 2.07812 2.97797 2.07812 3.8064V17.3064C2.07812 18.1348 2.7497 18.8064 3.57812 18.8064H17.0781C17.9066 18.8064 18.5781 18.1348 18.5781 17.3064V3.8064C18.5781 2.97797 17.9066 2.3064 17.0781 2.3064H3.57812ZM0.578125 3.8064C0.578125 2.14954 1.92127 0.806396 3.57812 0.806396H17.0781C18.735 0.806396 20.0781 2.14954 20.0781 3.8064V17.3064C20.0781 18.9633 18.735 20.3064 17.0781 20.3064H3.57812C1.92127 20.3064 0.578125 18.9633 0.578125 17.3064V3.8064Z"
        fill="#71717A" />
</svg>