<svg width="27" height="26" viewBox="0 0 27 26" fill="none" xmlns="http://www.w3.org/2000/svg">
<path d="M12.1436 3.0296C12.4317 2.44592 12.5758 2.15409 12.7713 2.06084C12.9415 1.97972 13.1391 1.97972 13.3093 2.06084C13.5049 2.15409 13.6489 2.44592 13.937 3.0296L16.6704 8.56706C16.7554 8.73937 16.7979 8.82553 16.8601 8.89242C16.9151 8.95165 16.9811 8.99964 17.0544 9.03373C17.1372 9.07223 17.2323 9.08613 17.4224 9.11392L23.5365 10.0076C24.1804 10.1017 24.5023 10.1487 24.6513 10.306C24.7809 10.4428 24.8418 10.6308 24.8172 10.8177C24.7888 11.0324 24.5557 11.2594 24.0896 11.7134L19.6671 16.021C19.5292 16.1553 19.4603 16.2224 19.4158 16.3023C19.3764 16.373 19.3512 16.4507 19.3414 16.5311C19.3304 16.6219 19.3467 16.7167 19.3792 16.9064L20.4227 22.9906C20.5328 23.6323 20.5878 23.9532 20.4844 24.1436C20.3944 24.3092 20.2345 24.4254 20.0491 24.4598C19.8361 24.4993 19.5479 24.3478 18.9717 24.0447L13.5058 21.1702C13.3354 21.0807 13.2503 21.0359 13.1606 21.0183C13.0812 21.0027 12.9995 21.0027 12.92 21.0183C12.8303 21.0359 12.7452 21.0807 12.5749 21.1702L7.10894 24.0447C6.53268 24.3478 6.24455 24.4993 6.0315 24.4598C5.84614 24.4254 5.68619 24.3092 5.5962 24.1436C5.49278 23.9532 5.54781 23.6323 5.65788 22.9906L6.70139 16.9064C6.73392 16.7167 6.75019 16.6219 6.73918 16.5311C6.72944 16.4507 6.70417 16.373 6.66479 16.3023C6.62031 16.2224 6.55138 16.1553 6.41352 16.021L1.99098 11.7134C1.52486 11.2594 1.2918 11.0324 1.26344 10.8177C1.23877 10.6308 1.29973 10.4428 1.42935 10.306C1.57833 10.1487 1.90025 10.1017 2.54409 10.0076L8.65817 9.11392C8.84831 9.08613 8.94338 9.07223 9.02618 9.03373C9.09949 8.99964 9.16549 8.95165 9.22051 8.89242C9.28267 8.82553 9.32519 8.73937 9.41025 8.56706L12.1436 3.0296Z" stroke="#D1D5DB" stroke-width="2.5" stroke-linecap="round" stroke-linejoin="round"/>
</svg>
