<svg width="25" height="24" viewBox="0 0 25 24" fill="none" xmlns="http://www.w3.org/2000/svg">
<path fill-rule="evenodd" clip-rule="evenodd" d="M16.8672 2.30399C17.312 2.22036 17.7698 2.23537 18.2083 2.34797C18.6493 2.46122 19.0598 2.67039 19.4106 2.96057C19.7614 3.25075 20.0439 3.61478 20.2378 4.02668C20.4317 4.43859 20.5324 4.88822 20.5325 5.34349V5.34373V6.04712C21.9353 6.29841 23 7.52487 23 9V18C23 19.6569 21.6569 21 20 21H5C3.34315 21 2 19.6569 2 18V9L2 8.99819V7.45333V7.4531C1.99963 6.7329 2.25054 6.03512 2.70949 5.48007C3.16854 4.92489 3.80695 4.54731 4.5146 4.41246C4.51933 4.41155 4.52407 4.4107 4.52882 4.40989L16.8672 2.30399ZM19.0325 5.34397V6H5C4.74591 6 4.4992 6.03159 4.26358 6.09105C4.42406 5.99313 4.60177 5.92365 4.789 5.88717L17.1262 3.78147C17.1287 3.78105 17.1312 3.78061 17.1337 3.78016C17.1359 3.77975 17.1382 3.77933 17.1404 3.77891C17.3708 3.735 17.608 3.74249 17.8352 3.80083C18.0624 3.85917 18.2738 3.96692 18.4546 4.11641C18.6353 4.26589 18.7808 4.45342 18.8807 4.66562C18.9806 4.87773 19.0324 5.10928 19.0325 5.34373V5.34397ZM3.5 18L3.5 9.74998V8.99852C3.5008 8.17077 4.17207 7.5 5 7.5H20C20.8284 7.5 21.5 8.17157 21.5 9V18C21.5 18.8284 20.8284 19.5 20 19.5H5C4.17157 19.5 3.5 18.8284 3.5 18ZM16.9166 14.7472C17.1633 14.912 17.4533 15 17.75 15C18.1478 15 18.5294 14.842 18.8107 14.5607C19.092 14.2794 19.25 13.8978 19.25 13.5C19.25 13.2033 19.162 12.9133 18.9972 12.6666C18.8324 12.42 18.5981 12.2277 18.324 12.1142C18.0499 12.0006 17.7483 11.9709 17.4574 12.0288C17.1664 12.0867 16.8991 12.2296 16.6893 12.4393C16.4796 12.6491 16.3367 12.9164 16.2788 13.2074C16.2209 13.4983 16.2506 13.7999 16.3642 14.074C16.4777 14.3481 16.67 14.5824 16.9166 14.7472Z" fill="#ABABAB"/>
</svg>
