<svg width="24" height="24" viewBox="0 0 24 24" fill="none" xmlns="http://www.w3.org/2000/svg">
<path fill-rule="evenodd" clip-rule="evenodd" d="M7.29299 4.87512H19.4766C19.6518 4.87504 19.8268 4.88615 20.0006 4.9084C19.9417 4.49485 19.7997 4.09752 19.583 3.74036C19.3664 3.3832 19.0797 3.07361 18.7402 2.83024C18.4007 2.58688 18.0154 2.4148 17.6076 2.32436C17.1998 2.23392 16.7779 2.227 16.3673 2.30402L4.51768 4.32707C4.35556 4.35191 4.19166 4.3795 4.02756 4.41012H4.01718C3.94476 4.42397 3.87309 4.44035 3.80229 4.4592C2.02135 4.90739 1.5 6.52223 1.5 7.50015V8.62886C1.4846 8.75138 1.4767 8.87536 1.47656 9.00015V18.0002C1.47743 18.7955 1.79378 19.5581 2.3562 20.1205C2.91862 20.6829 3.68118 20.9993 4.47656 21.0002H19.4766C20.2719 20.9993 21.0345 20.6829 21.5969 20.1205C22.1593 19.5581 22.4757 18.7955 22.4766 18.0002V9.00015C22.4757 8.20477 22.1593 7.44221 21.5969 6.87979C21.0345 6.31737 20.2719 6.00102 19.4766 6.00015H7.5C6.7064 6.00015 6.61943 5.03834 7.29299 4.87512ZM17.25 15.0002C16.9533 15.0002 16.6633 14.9122 16.4166 14.7474C16.17 14.5825 15.9777 14.3483 15.8642 14.0742C15.7506 13.8001 15.7209 13.4985 15.7788 13.2075C15.8367 12.9165 15.9796 12.6493 16.1893 12.4395C16.3991 12.2297 16.6664 12.0869 16.9574 12.029C17.2483 11.9711 17.5499 12.0008 17.824 12.1143C18.0981 12.2279 18.3324 12.4201 18.4972 12.6668C18.662 12.9135 18.75 13.2035 18.75 13.5002C18.75 13.898 18.592 14.2795 18.3107 14.5608C18.0294 14.8421 17.6478 15.0002 17.25 15.0002Z" fill="#EF6820"/>
</svg>
